<?xml version="1.0" encoding="utf-8"?>
<!-- Generator: Adobe Illustrator 26.0.1, SVG Export Plug-In . SVG Version: 6.00 Build 0)  -->
<svg version="1.1" id="Слой_1" xmlns="http://www.w3.org/2000/svg" xmlns:xlink="http://www.w3.org/1999/xlink" x="0px" y="0px"
	 viewBox="0 0 72.9 52.8" style="enable-background:new 0 0 72.9 52.8;" xml:space="preserve">
<style type="text/css">
	.st0{fill-rule:evenodd;clip-rule:evenodd;fill:#FFFFFF;}
</style>
<g>
	<path class="st0" d="M35.9,32.8c2.5,2.3,1.6-3.1,0.1-1.4C35.5,31.9,36,32.3,35.9,32.8z"/>
	<path class="st0" d="M23.5,39.8c0.3,1.3,1.8,0.5,1.5-0.6C24.5,39,23.9,39,23.5,39.8z"/>
	<path class="st0" d="M38.6,30.2c-0.8-0.2-1.4,0.3-2.1,0.6C37.3,30.8,38.1,31.1,38.6,30.2z"/>
	<path class="st0" d="M14.3,33.6c-1.3,0-2.9,0.1-3.9,0.6C11.8,34.1,13.1,33.9,14.3,33.6z"/>
	<path class="st0" d="M37.8,36.6c-1.2-0.6-2.3-0.2-3.4-0.1c-0.1,0.1-0.1,0.3,0,0.4C35.6,36.7,36.7,36.8,37.8,36.6z"/>
	<path class="st0" d="M34.3,31.8c0-0.5-0.6-0.8-1-0.7c-0.2,0.3-0.3,0.5-0.4,0.7C33.3,32.4,34,32.6,34.3,31.8z"/>
	<path class="st0" d="M29.4,35.8c-1.1-0.9-2.2,0.6-1.5,1.5c0.4,0.2,0.6-0.1,0.7-0.4c0.2,0.3,0.4,0,0.5,0.1
		C29.5,36.5,29.6,36.1,29.4,35.8z"/>
	<path class="st0" d="M29.4,38.9c-0.3,0.6,0.1,1,0.6,1.1C32.1,40.7,30.4,37,29.4,38.9z"/>
	<path class="st0" d="M34.2,38.4c-0.4-0.1-0.9,0.4-0.9,0.9c0.1,0.1,0.2,0.1,0.1,0.2C34.1,40.2,34.9,38.8,34.2,38.4z"/>
	<path class="st0" d="M37.9,22c-0.7-0.4-2,0.5-2,1C36.6,22.6,37.4,23.1,37.9,22z"/>
	<path class="st0" d="M20.5,26.5C21,26,20,25.7,19.8,26C20.2,26.3,20.1,26.5,20.5,26.5z"/>
	<path class="st0" d="M34.6,24.4c1.1-0.2,2.4,0.8,3.4,0.1c-1.2-0.4-2.2-0.1-3.4-0.3C34.6,24.3,34.4,24.2,34.6,24.4z"/>
	<path class="st0" d="M41.8,12.6c-0.8-0.2-1.7-0.5-2.5-0.7s-1.7-0.4-2.4-0.4c3.1,1.5,6.6,2.5,9.7,3C45.4,13.3,43.5,13.1,41.8,12.6z"
		/>
	<path class="st0" d="M39.5,22.6c-1-0.2-1.7,0.4-2.6,0.7C37.9,23.7,38.8,23.4,39.5,22.6z"/>
	<path class="st0" d="M32.4,20.1c0.9-0.1,1.9-0.1,2.6-0.6c-0.9-0.4-2-0.1-3-0.1c-1.1,0.1-2.2,0.3-3.2,0.1c0.1,0.1,0,0.2,0.1,0.3
		C30.1,20.3,31.2,20.2,32.4,20.1z"/>
	<path class="st0" d="M45.7,20.5c3,0,6.2-0.6,9-1.2c1-0.2,2.1-0.3,2.8-0.9c-4,0.6-8,1.2-11.9,2C45.5,20.3,45.5,20.5,45.7,20.5z"/>
	<path class="st0" d="M27.4,21.8c1.5,0.6,2.7,0.5,4,0.4c0.9,0,2,0.1,2.7-0.5c-0.4-0.5-1.1-0.2-1.6-0.2c-1.2,0.1-2.4,0.1-3.5,0
		c-0.6,0-1.2-0.2-1.8,0.1C27.2,21.6,27.3,21.7,27.4,21.8z"/>
	<path class="st0" d="M57.4,24.5c1.2-0.4,3.5,0,4-1.3c-1.2,0.1-2.9,0.7-4.3,1.1C57.2,24.4,57.3,24.5,57.4,24.5z"/>
	<path class="st0" d="M49,27.7c-1.3,0.3-2.5,1.3-3.7,2.4c0.1,0.1,0.2,0.1,0.3,0.2C46.7,29.3,48.3,29.1,49,27.7z"/>
	<path class="st0" d="M46.5,26.4c-0.9,0-1.7,0.9-2.5,1.7c0.1,0.1,0.2,0.1,0.3,0.2C45.1,27.8,46.1,27.3,46.5,26.4z"/>
	<path class="st0" d="M46.7,31c1.1-0.6,3.2-1.3,3.4-2.7c-1.2,0.5-2.4,1.3-3.5,2.5C46.5,30.9,46.6,31,46.7,31z"/>
	<path class="st0" d="M47.9,32.5c-0.1,0.5,0.4,1.2,1.1,1.2C51.5,34.1,48.5,30.1,47.9,32.5z"/>
	<path class="st0" d="M38.4,38.8c-1.4-0.6-2.5,0-3.7,0.4C35.9,39.9,37.3,39.3,38.4,38.8z"/>
	<path class="st0" d="M47.7,27.3c-1,0.1-1.7,1.1-2.6,1.7C46.1,29.2,47.1,28.1,47.7,27.3z"/>
	<path class="st0" d="M51.5,33.2c-1,0.8,0.8,2.1,1.2,0.8C52.6,33.5,52,33.2,51.5,33.2z"/>
	<path class="st0" d="M34.3,37.8c1.3,0.7,3.4,0.5,4.4-0.4C37.2,37.1,35.8,37.4,34.3,37.8z"/>
	<path class="st0" d="M38.7,40.1c-1,0.1-2.1,0-3,0.6C36.9,41.3,37.7,40.5,38.7,40.1z"/>
	<path class="st0" d="M35.9,29.9c0.8,0.5,2.4,0,3-0.6C37.8,29.2,36.8,29.4,35.9,29.9z"/>
	<path class="st0" d="M66.7,15.5c-0.5-0.3-1.1-0.1-1.6-0.3c-1-0.4-2.5-1.2-3.6-1.9c-4-2.3-7.3-3.7-11.2-5.3c-2.3-1-4.4-1.8-6.9-3
		c-0.8-0.4-1.8-0.7-2.3-1.1c-0.6-0.4-0.9-1.5-1.9-1.5c-1.2,0-2.9,3.3-3.9,4.4c-1.8,2-4.2,4-6.1,5.3c0.4,0.3,0,0.4-0.1,0.5
		c-0.5,0.6-1.5,1.5-2,2c-1.4,1.1-3,2.1-4.5,3.4c-3.7,3.3-7.3,6.9-11,10c-0.8,0.7-1.5,1.4-2.3,1.9c-0.5,0.3-1.1,0.5-1.7,0.9
		s-1.3,0.5-1.6,1c-0.5,0.6-0.5,1.6-0.7,2.5c-0.2,1-0.6,1.9-0.7,2.6c-0.2,1.2-0.1,2.4-0.1,3.7c0,1.2-0.2,3,1.1,3.5
		c0.1,0.1,0.2,0,0.4,0c0,0,0.1-0.1,0.1,0c2.7,1.9,5.7,2.6,8.2,3.2c1,0.2,2,0.5,2.9,0.7c4.1,1,7.5,1.2,11.3,1.4c1.9,0.1,4,1.1,5.8,1
		c0.3,0,0.8-0.2,1.3-0.3c0.5,0,0.9,0.1,1.3,0c1.2-0.2,2.5-1,3.7-1.6c6.2-3.1,11.6-7.8,17.9-10.9c1.6-0.8,3.7-2,5.3-3.1
		c0.8-0.5,1.4-0.9,1.8-1.4c0.8-1.3,0.7-3.6,0.9-5.2c0.3-2.8-0.2-4.8,0.7-7.5c0.2-0.7,1.5-2.6,1.3-3.1C68.4,17.1,67.3,15.9,66.7,15.5
		z M64,18.2c-1.1,3.4-2.6,6.8-3.3,10.1c-2.3,1.1-5.7-2.4-8.2-3.6c-0.3-0.2-0.5,0.2-0.8-0.1c2.4-0.3,4.8-0.4,7-1.2
		c-0.6-0.4-1.3,0-1.9,0.1c-0.7,0.1-1.3,0.2-2,0.3c-1.3,0.2-2.8,0.4-4.1,0.1c0-0.4,0.6-0.3,0.8-0.3c2.3-0.3,5.2-0.5,7.4-1.6
		c-3.1,0.4-6.2,1-9.4,1.2c-0.3-0.2-0.6-0.4-0.9-0.5c3.1-0.6,6.3-0.7,9.3-1.6c-0.8-0.3-1.7,0-2.5,0.1c-2.5,0.4-5.3,0.6-7.9,1
		c-0.5-0.3-0.9-0.1-1.4-0.6c3.4-0.4,6.9-0.7,10.2-1.7c-4,0.3-8.2,1.1-11.9,1.5c0.6-0.6,0.7-1.6,1.4-2.1c0.4-0.3,1.8-0.3,2.5-0.4
		c2.5-0.4,5.2-0.8,7.4-1.5c-3.2,0.1-6.6,1.2-9.5,1.3c0.2-0.4,0.5-0.7,0.7-1.1c1.4,0,2.8-0.2,4.1-0.5c1.3-0.2,2.8-0.3,4-1
		c-1.2-0.4-2.6,0.3-3.9,0.5c-1.3,0.2-2.7,0.4-3.8,0.4c0.7-0.6,1.7-0.6,2.6-0.7c0.9-0.2,1.9-0.1,2.4-0.7c-1-0.4-2.3,0.4-3.5,0.4
		c0.6-0.9,2-1.4,2.8-2.4C55.8,15.5,60.1,17.8,64,18.2z M56.8,13.6c-1.4-0.7-2.8-1.3-4.2-1.8C53.3,10.8,55.7,13,56.8,13.6z
		 M52.1,10.6c-0.4,0.3-1.4,0.5-2.1,0.2C50.1,10.4,51.4,10.3,52.1,10.6z M49.8,9.5c-0.5,0.8-1.9,0.6-2.9-0.1
		C47.4,8.8,48.8,9.1,49.8,9.5z M47.1,8.4c-1.1,0.9-4.3-0.6-4.8-2.1C44,7.3,45.5,7.6,47.1,8.4z M39.7,8.9c0.2-0.7-1,0.2-0.7-0.4
		c0.4-0.1,0.8-0.4,1.2-0.7c1,0.6,1.7,1.2,2.6,1.8c-0.4,0.2-0.9-0.1-1.2,0c1.7,0.7,3.3,1,5,2c-2.8-0.5-5.7-1.7-8.5-2.1
		C37.9,8.9,39.2,9.3,39.7,8.9z M26.9,17c1.1-1,2-1.9,2.8-2.8c1.6-0.1,3-1,4.9,0.2c-0.5,0.3-1,0.1-1.6-0.2c-0.3,0.1,0.2,0.5,0.3,0.3
		c-0.2,0.4-1.1,0.6-1.7,0.2c-0.2,0.7-0.9,0.4-1.3,0.7c1.2,0.6,3.1,1.7,4.4,2c-0.2,0.7-2.6-0.1-3.4-0.8c0,0.5,1.1,0.9,1.6,1.2
		c-0.1,0.6-1.7,0.2-2.4,0.6c1.3,0.3,2.5,0.1,3.8,0c2.3,1,4.5,1.4,6.8,2.5c0.2-0.5-0.5-0.7-0.8-0.9c-1.4-0.8-3.6-0.9-4.8-1.8
		c0.2-0.7,1-0.1,1.4,0.1c1.4,0.5,3.4,1.1,4.8,1.5c-0.2-0.9-1.7-1.3-2.5-1.5c-2.6-0.9-5.6-1.8-8.3-2.7c1.2-0.5,2.6,0.5,4.1,1
		c2.5,0.9,5.3,1.6,7.8,2.3c0.2-0.9-1.3-1.1-2-1.3c-2.4-0.8-5.3-1.6-7.6-2.2C33,15.1,34,15.1,34.3,15c2.6,1.1,5.1,1.9,7.7,2.5
		c0.8,0.2,1.6,0.4,2.4,0.4c-1.2-0.9-2.9-1.2-4.4-1.6c-1.6-0.5-3.2-1-4.7-1.4c3.1,0.5,6.3,1.7,9.4,2.3c-0.2-0.8-1.3-0.9-2-1.1
		c-2.2-0.6-4.6-1.2-6.8-1.9c-0.8,0-1.7-0.4-2.5-0.4c1.3-0.9,4.1,0.5,6.2,1c1.9,0.5,3.4,0.9,5.2,1.4c0.2-0.7-1.3-0.9-2-1.1
		c-2.2-0.6-5-1.3-7.2-1.9c1.5-0.5,3.2,0.6,4.8,1s3.2,0.7,4.7,0.9c-0.1-0.8-1.2-0.7-1.8-0.8c-2-0.4-4.3-1-6.4-1.8
		c-0.7,0.1-1.5-0.5-2.2-0.4c0,0.3,0.6,0.4,0.8,0.4c-1.2,0.5-3.2,0.6-4.7,0.8c1.4-1.3,2.7-1.9,4.5-2.2c1-0.1,2.1-0.5,2.9-0.4
		c0.7,0.1,1.5,0.6,2.3,0.8c2.1,0.6,4.4,1.2,6.6,1.8c-0.5-0.9-2.7-1.3-4.3-1.8s-3.1-0.6-4.2-1.3c-0.5-0.1-1,0.1-1.6-0.2
		c-0.2,0.4-0.5,0.5-1.1,0.5c0.2-0.4,1.1-0.7,1.6-1.1c3.5,1.8,7.1,1.9,10.3,3.4c0.3-0.1,0.4-0.2,0.5-0.5c1.1,0.5,2.1,0.7,3.1,1.2
		c-1.8,0.7-3.5,2.3-5.4,2.9c-0.1,0.3,0.3-0.1,0.4,0.1c-2.7,2.1-3.6,5.9-5.8,8.5c-1-0.1-1.9,0.4-2.9,0.7c-1.3-0.7-2.3-0.3-3.5-0.3
		c-2.2-1-4-0.3-6-0.3c-1.5-1.3-2.1-2.7-4.2-3.9C23.3,19.7,25.3,18.5,26.9,17z M19,30.4c-0.2-0.1-0.1-0.1,0-0.2
		c0.7-0.1,1.4-0.2,2-0.5c0.9,0.7,2.2,0.4,3.2,0.4c0.1,0.2-0.1,0.5-0.1,0.8C22.3,30.4,20.7,30.5,19,30.4z M23.9,31.3
		c-0.4,0.2-0.9,0-1.4-0.1C22.3,31.3,23.8,31.2,23.9,31.3z M21.5,29.8c0.1-0.5,0.9-0.1,1.3-0.3C22.7,29.8,21.9,29.6,21.5,29.8z
		 M23.1,28.9c0.5-0.4,1-0.7,1.6-0.7c0.1,0.2-0.4,0.4-0.4,0.7C23.9,28.9,23.5,29,23.1,28.9z M22.9,27.8c-0.7-1.3,1.3-2.4,1.8-3.8
		c0.5,0.5,0.8,1.1,1.3,1.6C25,26.1,24,27.1,22.9,27.8z M16.7,26.2c0.1,0.6,1.5,1.5,2.1,1.5c0.2-0.8-1.2-1.3-1.9-1.6
		c1.9-1.7,3.8-3.3,5.7-4.9c0.3,0.1,0.7,1.4,0.9,2c-1.4,1.7-2.2,3.3-1.8,4.8c-2.1,0.7-4.3,1-6.4,2c-0.9-0.4-2.3,0-3.3,0.4
		C13.2,28.9,15.2,27.8,16.7,26.2z M17.3,30.8c-0.3,0.3-1.4-0.1-2,0C15.6,30.3,16.6,30.6,17.3,30.8z M9.7,35.5
		c2.2-0.2,4.5-0.6,6.8-0.8h0.2c1.9,0.1,3.7,0.9,5.6,0.5c-1.4-0.7-3-0.2-4.2-0.8c-0.7,0-1.7,0.2-2.3-0.4c-0.2,0.2-0.1,0.4,0.2,0.5
		c-2,0.3-4,0.2-5.9,0.5c0.2-0.8,0-1.7,0.4-2.3c0.2-0.4,2.6-1.6,3.2-1.8c0.5-0.2,1,0.1,1.3-0.1c0.2,0.1-0.1,0.3,0.1,0.4
		c3,0.8,5.8,0.4,8.7,0.9c-0.3,0.3-0.1,0.5-0.4,0.7c-3.1-0.5-6.2-0.7-9.3-1.1c1.2,1,3,1,4.5,1.2c1.6,0.2,3.2,0.2,4.6,0.2
		c0.2,0.3-0.2,0.7-0.3,1c-2.6-0.3-5.2-0.9-7.8-1c2.4,1,5.2,1.2,7.6,1.3c-0.1,0.8-0.6,1.6-0.8,2.4c-0.7,0-1.6-0.4-2.6-0.7
		c-0.4-0.3,0.4,0,0.5-0.5c-1-0.5-2.3,0.5-3.6-0.3c-0.2,0.2,0,0.2,0.1,0.3c-2.1,0.5-4.4,0.3-6.6,0.7C9.5,36.1,9.7,35.8,9.7,35.5z
		 M19.7,36.6C19,37,18.1,37,17.3,37c-2.5,0.1-5.4,0-7.8,0.3c-0.2-0.1,0.1-0.3-0.1-0.4C12.8,36.7,16,35.8,19.7,36.6z M10.6,37.9
		c3.5-0.1,7.3-0.3,10.8-0.7c-0.1,0.9-2,1-3,1.1c-2.9,0.1-6.5-0.1-9,0.3c-0.1,0-0.1-0.1-0.1-0.2C9.4,37.7,10.2,37.9,10.6,37.9z
		 M9.1,39.1c3.4-0.1,7-0.1,10.4-0.6c0.4-0.1,1-0.3,1.3,0c0,0.7-0.8,0.5-1.2,0.5c-3.3,0.2-7.1,0.3-10.4,0.6
		C8.9,39.5,9.3,39.2,9.1,39.1z M20.5,39.6c-0.6,0.8-1.8,0.4-2.6,0.5c-2.7,0.1-5.8,0.2-8.5,0.2c-0.1,0.1-0.2-0.1-0.3,0.1
		C9,40.3,9,40.1,8.9,40C12.7,40.2,16.9,39.8,20.5,39.6z M8.3,34.6c-0.5,2.3-0.4,4.7-0.6,6.8c-0.3-0.1-0.4,0.4-0.7,0
		c-0.2-1.4,0-2.8-0.3-4.2c1.3-1.3-0.2-3.3,0.6-4.5c0.2-0.4,1-0.7,1.2-0.5C9,32.5,8.4,34.1,8.3,34.6z M8.8,41.3
		c0.6-0.6,1.8-0.3,2.8-0.3c1.9,0,3.9-0.1,5.9-0.2c1-0.1,1.9-0.5,2.8-0.1c-0.6,0.7-1.7,0.5-2.6,0.6c-2.8,0.2-6,0.3-8.8,0.4
		C8.8,41.5,8.8,41.4,8.8,41.3z M16.8,42.4c-0.5,0.1-1.2-0.1-1.7,0C15.4,42.1,16.4,41.9,16.8,42.4z M20.7,46.6
		c-2.2-0.8-4.4-1.5-6.6-2.4c2.6,0.6,5,0.6,7.6,1.3C21.4,45.9,20.9,46.1,20.7,46.6z M21.3,46.8c0.1-0.5,1.3-1.5,2.1-1.1
		C23,46.4,22,47.1,21.3,46.8z M24,47.2c-0.3,0-0.6-0.2-0.9-0.1c0.4-0.6,1.3-1.5,2.1-0.9C24.8,46.5,24.4,46.8,24,47.2z M25.9,47.5
		c-0.3,0-0.6-0.1-0.8-0.1c0.3-0.5,1.2-1.5,2-1C26.7,46.8,26.3,47.2,25.9,47.5z M27.2,47.8c0-0.3,1-1.6,1.6-1.1
		C28.3,47,27.8,47.9,27.2,47.8z M30,48c0.1-0.5,0.9-0.9,1.4-1.2C31.2,47.4,30.5,48,30,48z M31.6,48.2c0.1-0.4,0.9-1,1.3-1.1
		C32.5,47.5,32,48,31.6,48.2z M37.1,48.4c-0.2,0.2-0.5,0-0.7,0.1c0-0.3,0.5-0.9,0.9-0.5C37.1,48.2,37,48.3,37.1,48.4z M27.8,44.2
		c-3.5-0.7-7.2-1.4-10.5-1.7c-0.2-0.1-0.1-0.2,0-0.1c1.2-1,2.8-0.3,4-1.1c0.3-0.3-0.2-0.4-0.1-0.6c0.8-0.5,0.4-1.4,1.4-1.6
		c0-0.3-0.5-0.2-0.5-0.4c1.2-3.3,4.6-7.1,3.8-10c0.4-0.5,0.8-0.9,1.2-1.3c3.6,0.2,7.4,1.6,10.7,0.2c0.7,0.2,1.3,0,2,0.1
		c0.5,0.4,0.8,0.5,1,0.7c-1.3,4.1,0.2,7.6,0.3,11.4c-1,1.8-2.4,3.7-3.2,5.5C34.7,45.9,31.2,44.9,27.8,44.2z M38.4,48.2
		c1.3-2.6,3.9-3.4,6-4.5c1.8-0.9,3.5-1.8,5.2-2.7C46.2,43.6,42.2,46.2,38.4,48.2z M54.3,36.3c0.2-1,0.6-2.1,0.8-3.2
		c0.3-0.3,0.8,0.4,1.1-0.1c0.5-0.9-0.6-1-0.9-1.2c0.1-0.5,0.2-0.8,0.6-1.2c-0.4-0.3-0.6,0.1-0.8,0.3c-0.4-1-1.6-0.6-1.9-0.1
		c-0.6,1.1,0.9,1.3,1.5,1.2c-0.8,1.2-0.4,3.4-1.3,4.6c-0.5,0.7-2.5,1.3-3.3,1.7c-3.2,1.7-6.8,3.8-9.7,5.6c0.7-1.7,2-2.8,2.4-4.3
		c0.3-1.4-0.3-3.2-0.5-4.6c-0.5-2.9-0.5-5.3-0.1-8.5c1.1-1.1,1.7-2.7,1.9-3.9c2.1,0.2,4.7,3,6.7,2.8c0.7,0.8,1.3,0.6,2,0.6
		c2.9,2.3,5.4,2.9,7.9,3.2c-0.5,1.7-0.8,3.4-1.6,5.2C57.4,34.9,55.8,35.6,54.3,36.3z M60,34c0.6-1.6,1-3.2,1.5-4.8
		C61.4,30.6,61.3,32.8,60,34z M62,26.5c0,0.7-0.1,1.3-0.4,2.1C61.6,27.9,61.7,27.2,62,26.5z M64.2,26.4c-0.1,0.8,0.1,1.9-0.1,2.6
		c-0.4,1.4-1.6,2.5-2.3,3.9c0.1-1.2,0.8-2.4,0.9-3.6c0.2-0.3,0.6-0.1,0.9,0c0.1-0.5-0.5-0.1-0.7-0.4c0.4-3.4,0.5-6.8,2.6-10.5
		C65.9,20.9,64.6,23.6,64.2,26.4z"/>
</g>
<g>
	<text transform="matrix(1 0 0 1 -147.8046 195.3722)" style="fill:#793610; font-family:'NordicaBlack'; font-size:21.0387px;">ARCHAEO </text>
	<g>
		<text transform="matrix(1 0 0 1 -144.8691 217.4376)" style="fill:#793610; font-family:'NordicaBlack'; font-size:21.0387px;">STORIES</text>
	</g>
</g>
</svg>
