<?xml version="1.0" encoding="utf-8"?>
<!-- Generator: Adobe Illustrator 26.0.1, SVG Export Plug-In . SVG Version: 6.00 Build 0)  -->
<svg version="1.1" id="Слой_1" xmlns="http://www.w3.org/2000/svg" xmlns:xlink="http://www.w3.org/1999/xlink" x="0px" y="0px"
	 viewBox="0 0 98.4 111.3" style="enable-background:new 0 0 98.4 111.3;" xml:space="preserve">
<style type="text/css">
	.st0{fill-rule:evenodd;clip-rule:evenodd;fill:#793610;}
	.st1{fill-rule:evenodd;clip-rule:evenodd;fill:#FFFFFF;}
	.st2{fill:#793610;}
</style>
<g>
	<g>
		<path class="st0" d="M58.5,43.2c-0.7-0.6-1.2-2-2.5-2c-1.6,0-3.7,4.2-5.1,5.7c-2.4,2.6-5.5,5.3-7.9,6.9c0.5,0.4,0,0.5-0.1,0.7
			c-0.6,0.8-1.9,2-2.6,2.6c-1.8,1.4-3.9,2.7-5.8,4.4c-4.8,4.3-9.6,9-14.4,13c-1.1,0.9-2,1.8-2.9,2.5c-0.6,0.4-1.5,0.7-2.2,1.1
			c-0.8,0.5-1.6,0.6-2.1,1.3c-0.6,0.8-0.7,2.1-0.9,3.2c-0.2,1.3-0.8,2.4-0.9,3.4c-0.3,1.5-0.1,3.1-0.2,4.8c0,1.6-0.3,3.9,1.4,4.6
			c0.2,0.1,0.3-0.1,0.5,0c0.1-0.1,0.1-0.1,0.2,0c3.6,2.5,7.5,3.4,10.6,4.2c1.3,0.3,2.6,0.7,3.8,0.9c5.4,1.2,9.7,1.6,14.8,1.8
			c2.5,0.1,5.2,1.4,7.6,1.3c0.4,0,1-0.3,1.7-0.3c0.6-0.1,1.2,0.1,1.7,0c1.6-0.3,3.2-1.3,4.8-2.1c8.1-4.1,15.2-10.2,23.4-14.2
			c2.1-1,4.8-2.6,7-4c1-0.7,1.9-1.1,2.3-1.8c1.1-1.7,0.9-4.7,1.1-6.8c0.4-3.7-0.3-6.3,0.9-9.8c0.3-0.9,1.9-3.4,1.8-4.1
			c-0.1-0.3-1.5-1.9-2.3-2.3c-0.6-0.4-1.5-0.2-2.1-0.4c-1.3-0.5-3.2-1.6-4.7-2.5c-5.2-3-9.5-4.9-14.6-6.9c-3-1.2-5.7-2.2-8.9-3.9
			C60.5,44.1,59.2,43.8,58.5,43.2z"/>
		<path class="st1" d="M14.8,92.1c-0.4-0.2-0.6,0.5-1,0c-0.2-1.8,0.1-3.7-0.2-5.4c1.7-1.7-0.2-4.3,0.8-5.8c0.3-0.5,1.4-0.9,1.6-0.7
			c0.5,0.4-0.3,2.4-0.4,3.1C15,86.2,15.2,89.4,14.8,92.1z"/>
		<path class="st1" d="M16.4,92.4c-0.1-0.1-0.1-0.2-0.1-0.4c0.8-0.8,2.4-0.4,3.7-0.5c2.5-0.1,5.1-0.1,7.7-0.3
			c1.2-0.1,2.5-0.6,3.6-0.2c-0.8,0.9-2.3,0.7-3.4,0.8C24.3,92.2,20.2,92.2,16.4,92.4z"/>
		<path class="st1" d="M23.3,95.8c3.4,0.8,6.6,0.7,9.9,1.6c-0.5,0.6-1.1,0.9-1.3,1.5C29,97.9,26.1,96.9,23.3,95.8z"/>
		<path class="st1" d="M16.5,90.3c5,0.2,10.4-0.3,15.1-0.5c-0.8,1-2.3,0.6-3.4,0.6c-3.5,0.1-7.5,0.3-11.1,0.3
			c-0.1,0.1-0.3-0.1-0.4,0.1C16.6,90.6,16.6,90.5,16.5,90.3z"/>
		<path class="st1" d="M16.7,89c4.4-0.2,9.1-0.1,13.6-0.7c0.5-0.1,1.3-0.4,1.7,0C32,89.3,31,89,30.4,89c-4.2,0.3-9.3,0.3-13.6,0.7
			C16.4,89.6,16.9,89.2,16.7,89z"/>
		<path class="st1" d="M32.6,99.1c0.1-0.7,1.7-1.9,2.7-1.4C34.9,98.7,33.6,99.5,32.6,99.1z"/>
		<path class="st1" d="M16.9,88c0.2-0.8,1.3-0.5,1.8-0.6c4.5-0.2,9.5-0.3,14-0.9c-0.1,1.2-2.7,1.3-3.9,1.4
			c-3.8,0.2-8.5-0.1-11.7,0.4C16.9,88.2,16.9,88.1,16.9,88z"/>
		<path class="st1" d="M35,99.6c0.5-0.8,1.7-1.9,2.7-1.2c-0.5,0.4-1.1,0.8-1.6,1.4C35.8,99.8,35.3,99.4,35,99.6z"/>
		<path class="st1" d="M27.3,93.5c-0.2-0.1-0.2-0.2,0-0.2c1.6-1.3,3.6-0.4,5.3-1.5c0.4-0.3-0.2-0.5-0.1-0.7c1-0.7,0.6-1.9,1.9-2.1
			c0-0.4-0.7-0.2-0.6-0.6c1.5-4.3,6-9.2,5-13c0.5-0.7,1.1-1.2,1.6-1.7c4.6,0.2,9.7,2.1,13.9,0.3c0.9,0.3,1.7,0,2.6,0.1
			c0.6,0.6,1,0.7,1.3,0.9c-1.7,5.3,0.3,9.9,0.3,14.9c-1.2,2.4-3.2,4.9-4.1,7.2c-4.2,0.8-8.8-0.6-13.3-1.5
			C36.4,94.8,31.6,93.9,27.3,93.5z M37.5,89.2C36.7,89,36,89,35.5,90C35.9,91.7,37.9,90.6,37.5,89.2z M43.2,88.9
			c-0.4,0.8,0.1,1.3,0.8,1.5C46.7,91.1,44.5,86.3,43.2,88.9z M42.1,86.1c0.3,0.3,0.5,0.1,0.7,0.2c0.5-0.6,0.6-1.1,0.4-1.5
			c-1.5-1.2-2.8,0.8-1.9,1.9C41.8,87,42.1,86.6,42.1,86.1z M49.4,88.2c-0.5-0.2-1.1,0.5-1.2,1.1c0.1,0.1,0.2,0.2,0.1,0.3
			C49.4,90.6,50.4,88.8,49.4,88.2z M55.3,90.4c-1.3,0.1-2.7,0-3.9,0.8C52.9,91.9,54.1,90.9,55.3,90.4z M55,88.7
			c-1.8-0.7-3.3,0-4.8,0.5C51.6,90.1,53.5,89.4,55,88.7z M55.4,86.9c-2-0.4-3.9,0-5.8,0.5C51.3,88.3,54.1,88,55.4,86.9z M54.2,85.8
			c-1.6-0.7-3-0.2-4.4-0.1c-0.1,0.2-0.1,0.3,0,0.5C51.2,86,52.7,86,54.2,85.8z M49.6,79.5c-0.1-0.6-0.8-1.1-1.3-0.9
			c-0.3,0.3-0.4,0.7-0.5,1C48.2,80.3,49.2,80.6,49.6,79.5z M51.8,79.1c-0.6,0.6,0.1,1.1-0.1,1.8C54.9,83.9,53.8,76.9,51.8,79.1z
			 M55.2,77.5c-1-0.3-1.8,0.4-2.7,0.8C53.4,78.3,54.5,78.6,55.2,77.5z M55.5,76.3c-1.4-0.1-2.6,0.2-3.9,0.8
			C52.7,77.7,54.8,77.1,55.5,76.3z"/>
		<path class="st1" d="M17.2,86.8c-0.3-0.1,0.1-0.4-0.1-0.5c4.4-0.3,8.7-1.5,13.4-0.4c-0.9,0.4-2,0.5-3.1,0.5
			C24.2,86.5,20.4,86.4,17.2,86.8z"/>
		<path class="st1" d="M37.6,100c0.4-0.7,1.6-2,2.6-1.3c-0.5,0.4-1,0.9-1.6,1.4C38.3,100.1,37.9,99.9,37.6,100z"/>
		<path class="st1" d="M17.5,85.4c-0.2-0.3,0-0.7,0-1c2.8-0.3,5.9-0.7,8.8-1c0.1,0,0.3,0,0.3,0c2.4,0.1,4.8,1.1,7.2,0.7
			c-1.9-0.9-4-0.3-5.5-1.1c-0.9,0-2.2,0.3-3-0.5c-0.2,0.3-0.1,0.5,0.2,0.6c-2.6,0.4-5.2,0.2-7.8,0.6c0.3-1,0-2.2,0.6-3
			c0.3-0.5,3.4-2.1,4.1-2.4c0.6-0.2,1.3,0.1,1.7-0.2c0.2,0.2-0.2,0.4,0.1,0.6c3.9,1,7.5,0.6,11.4,1.2c-0.4,0.4-0.1,0.6-0.5,1
			c-4.1-0.7-8.1-0.9-12.2-1.4c1.6,1.3,3.9,1.3,5.9,1.5c2.1,0.2,4.1,0.3,6,0.3c0.2,0.4-0.2,0.9-0.4,1.3c-3.4-0.4-6.8-1.2-10.2-1.3
			c3.1,1.3,6.8,1.6,9.9,1.6c-0.2,1-0.7,2.1-1,3.2c-0.9,0-2.1-0.6-3.4-0.9c-0.5-0.4,0.6,0,0.6-0.7c-1.3-0.7-3,0.6-4.7-0.4
			c-0.2,0.2,0,0.3,0.2,0.4C23.3,85.2,20.3,84.9,17.5,85.4z M23.5,81.9c-1.7,0-3.8,0.1-5,0.8C20.2,82.5,21.9,82.4,23.5,81.9z"/>
		<path class="st1" d="M40.3,100.4c0-0.4,1.3-2.1,2.1-1.5C41.7,99.4,41.1,100.5,40.3,100.4z"/>
		<path class="st1" d="M43.9,100.7c0.2-0.6,1.2-1.2,1.8-1.5C45.6,99.9,44.6,100.8,43.9,100.7z"/>
		<path class="st1" d="M46,101c0.2-0.5,1.1-1.3,1.7-1.4C47.2,100.1,46.6,100.7,46,101z"/>
		<path class="st1" d="M52.3,101.4c0-0.4,0.6-1.2,1.1-0.7c-0.1,0.2-0.3,0.4-0.2,0.5C52.9,101.5,52.5,101.2,52.3,101.4z"/>
		<path class="st1" d="M20.4,77.7c1.7-1.9,4.2-3.4,6.2-5.5c0.1,0.7,1.9,2,2.7,2c0.3-1.1-1.6-1.8-2.4-2.1c2.5-2.2,5-4.3,7.4-6.4
			c0.4,0.1,0.9,1.9,1.1,2.7c-1.9,2.2-2.9,4.3-2.4,6.2c-2.8,0.9-5.6,1.2-8.3,2.6C23.5,76.8,21.7,77.3,20.4,77.7z M31.6,72.7
			c0.6-0.7-0.6-1-0.9-0.6C31.1,72.4,31.1,72.6,31.6,72.7z"/>
		<path class="st1" d="M29.6,77.8c-0.3-0.2-0.1-0.2,0-0.3c0.9-0.1,1.8-0.2,2.7-0.6c1.2,0.9,2.9,0.5,4.1,0.5c0.1,0.3-0.1,0.7-0.2,1
			C34,77.8,31.8,77.9,29.6,77.8z"/>
		<path class="st1" d="M57.3,95.5c0.9-2.3,2.6-3.7,3.1-5.6c0.4-1.8-0.4-4.1-0.6-6c-0.6-3.8-0.6-7-0.1-11.1c1.5-1.4,2.2-3.5,2.5-5
			c2.7,0.3,6.1,3.9,8.7,3.7c0.9,1,1.7,0.8,2.6,0.7c3.8,3,7.1,3.7,10.4,4.2c-0.6,2.2-1,4.4-2.1,6.8c-2.1,0.6-4.1,1.5-6.1,2.4
			c0.2-1.4,0.8-2.8,1-4.1c0.4-0.4,1.1,0.5,1.4-0.2c0.7-1.1-0.7-1.3-1.2-1.6c0.1-0.6,0.3-1,0.8-1.5c-0.5-0.4-0.8,0.1-1.1,0.4
			c-0.6-1.3-2.1-0.8-2.5-0.1c-0.8,1.4,1.2,1.7,2,1.6c-1.1,1.6-0.6,4.5-1.8,6c-0.7,0.9-3.3,1.7-4.4,2.2
			C65.7,90.4,61.1,93.2,57.3,95.5z M67.2,80.5c-0.2,0.7,0.5,1.5,1.5,1.6C71.9,82.6,68.1,77.4,67.2,80.5z M73.5,82.5
			c-0.1-0.7-0.9-1.1-1.6-1C70.7,82.4,73,84.2,73.5,82.5z M70.1,75.1c-1.6,0.6-3.1,1.7-4.5,3.2c0,0.1,0,0.2,0.1,0.3
			C67.1,77.8,69.8,76.9,70.1,75.1z M68.7,74.2c-1.7,0.4-3.2,1.7-4.8,3.1c0.1,0.1,0.2,0.2,0.3,0.2C65.7,76.3,67.8,76,68.7,74.2z
			 M67,73.7c-1.2,0.2-2.3,1.4-3.4,2.2C64.9,76.1,66.3,74.8,67,73.7z M65.5,72.5c-1.2,0-2.2,1.2-3.2,2.2c0.1,0.1,0.2,0.2,0.3,0.2
			C63.6,74.3,65,73.8,65.5,72.5z"/>
		<path class="st1" d="M35,75.7c0.6-0.5,1.3-0.9,2-0.9c0.1,0.3-0.5,0.5-0.5,1C36,75.7,35.5,75.9,35,75.7z"/>
		<path class="st1" d="M34.8,74.3c-0.9-1.7,1.7-3.2,2.4-5c0.7,0.7,1.1,1.4,1.7,2.1C37.4,72.2,36.1,73.5,34.8,74.3z"/>
		<path class="st1" d="M83.1,82.4c0.7-2.1,1.2-4.2,1.9-6.2C84.9,78.1,84.8,80.9,83.1,82.4z"/>
		<path class="st1" d="M85.4,80.9c0.2-1.5,1-3.2,1.2-4.7c0.3-0.4,0.7-0.1,1.1,0c0.2-0.6-0.6-0.2-1-0.5c0.5-4.5,0.7-8.8,3.4-13.7
			c0.7,3.3-1.1,6.9-1.5,10.5c-0.1,1.1,0.1,2.4-0.2,3.4C87.9,77.7,86.3,79.1,85.4,80.9z"/>
		<path class="st1" d="M85.2,75.4c-0.1-0.8,0.1-1.8,0.5-2.7C85.7,73.6,85.7,74.4,85.2,75.4z"/>
		<path class="st1" d="M60,46.4c2.1,1.3,4.1,1.7,6.2,2.7C64.8,50.2,60.6,48.3,60,46.4z"/>
		<path class="st1" d="M66,50.4c0.7-0.8,2.5-0.5,3.8,0.1C69.1,51.6,67.3,51.3,66,50.4z"/>
		<path class="st1" d="M70.1,52.2c0.1-0.5,1.8-0.7,2.7-0.3C72.3,52.4,71,52.6,70.1,52.2z"/>
		<path class="st1" d="M73.4,53.5c1-1.2,4,1.6,5.5,2.4C77,54.9,75.2,54.2,73.4,53.5z"/>
		<path class="st1" d="M24.6,93.3c0.3-0.2,1.7-0.6,2.2,0C26.1,93.5,25.3,93.2,24.6,93.3z"/>
		<path class="st1" d="M55,101c1.8-3.4,5.1-4.4,7.9-5.8c2.4-1.2,4.6-2.4,6.8-3.5C65.1,94.9,59.9,98.4,55,101z"/>
		<path class="st1" d="M24.8,78.3c0.4-0.6,1.8-0.2,2.6,0C27,78.6,25.6,78.1,24.8,78.3z"/>
		<path class="st1" d="M34.2,78.9c-0.2,0,1.7-0.1,1.9,0.1C35.5,79.3,34.8,79,34.2,78.9z"/>
		<path class="st1" d="M32.9,76.9c0.1-0.6,1.2-0.1,1.7-0.3C34.4,77,33.4,76.7,32.9,76.9z"/>
		<path class="st1" d="M48.5,56.1c1.7-1.2,5.4,0.6,8.1,1.3c2.5,0.7,4.4,1.1,6.8,1.8c0.3-1-1.8-1.2-2.6-1.4c-2.9-0.8-6.5-1.7-9.4-2.4
			c2-0.6,4.1,0.7,6.2,1.2c2.1,0.5,4.2,0.9,6.1,1.2c-0.1-1-1.6-0.9-2.3-1.1c-2.6-0.6-5.7-1.3-8.4-2.3c-0.9,0.2-2-0.7-2.9-0.5
			c0,0.4,0.8,0.5,1.1,0.5c-1.6,0.6-4.1,0.8-6.1,1c1.8-1.7,3.5-2.5,5.9-2.8c1.2-0.2,2.8-0.7,3.7-0.6c0.9,0.1,2,0.7,3,1
			c2.8,0.8,5.8,1.5,8.6,2.4c-0.7-1.2-3.5-1.7-5.6-2.3c-2.1-0.6-4.1-0.8-5.5-1.8c-0.7-0.1-1.3,0.2-2.1-0.3c-0.2,0.5-0.6,0.6-1.4,0.7
			c0.3-0.5,1.4-0.9,2-1.4c4.6,2.4,9.3,2.5,13.5,4.5c0.4-0.1,0.6-0.3,0.6-0.7c1.4,0.7,2.7,0.9,4.1,1.6c-2.4,1-4.6,2.9-7,3.8
			c-0.1,0.4,0.3-0.1,0.5,0.2c-3.5,2.8-4.6,7.7-7.6,11.1c-1.3-0.1-2.5,0.5-3.8,0.9c-1.6-0.9-3-0.4-4.5-0.4c-2.9-1.3-5.3-0.3-7.9-0.4
			c-1.9-1.7-2.7-3.5-5.4-5c-0.9-2.2,1.7-3.7,3.8-5.7c1.4-1.3,2.6-2.5,3.7-3.6c2.1-0.1,4-1.3,6.4,0.2c-0.6,0.4-1.3,0.1-2.1-0.2
			c-0.4,0.2,0.3,0.6,0.4,0.4c-0.3,0.5-1.5,0.7-2.2,0.3c-0.2,0.9-1.1,0.5-1.7,0.9c1.5,0.8,4,2.2,5.8,2.6c-0.2,1-3.4-0.1-4.4-1
			c0,0.7,1.5,1.2,2,1.5c-0.2,0.8-2.2,0.3-3.1,0.8c1.7,0.4,3.3,0.1,4.9,0.1c3,1.3,5.9,1.9,8.9,3.2c0.3-0.6-0.7-1-1-1.1
			c-1.8-1.1-4.7-1.2-6.2-2.4c0.2-0.9,1.3-0.1,1.9,0.1c1.8,0.6,4.4,1.4,6.2,1.9c-0.3-1.1-2.2-1.6-3.3-2c-3.4-1.2-7.3-2.4-10.8-3.5
			c1.5-0.7,3.3,0.6,5.4,1.3c3.3,1.2,6.9,2,10.1,3c0.3-1.2-1.7-1.4-2.6-1.7C55,60,51.3,59,48.3,58.2c-0.3-0.5,1.1-0.4,1.4-0.5
			c3.4,1.5,6.6,2.5,10,3.3c1.1,0.2,2.1,0.5,3.2,0.5c-1.5-1.2-3.8-1.5-5.8-2.1c-2.1-0.6-4.2-1.2-6.1-1.8c4,0.7,8.2,2.2,12.2,3
			c-0.2-1-1.7-1.2-2.6-1.4c-2.8-0.8-6.1-1.5-8.9-2.5C50.6,56.7,49.5,56.1,48.5,56.1z M40.6,66.5c1.9,0.8,3.5,0.6,5.2,0.6
			c1.2,0,2.6,0.2,3.5-0.7c-0.5-0.7-1.4-0.3-2.1-0.3c-1.6,0.1-3.1,0.1-4.6,0c-0.8-0.1-1.6-0.3-2.3,0.1C40.3,66.3,40.4,66.4,40.6,66.5
			z M50,69.6c-0.1,0.1-0.3,0.1,0,0.3c1.4-0.2,3.1,1,4.4,0.1C52.9,69.4,51.5,69.9,50,69.6z M42.5,63.9c1.7,0.6,3,0.5,4.6,0.3
			c1.1-0.1,2.5-0.1,3.4-0.8c-1.1-0.6-2.6-0.2-3.9-0.1c-1.4,0.1-2.8,0.4-4.2,0.1C42.4,63.6,42.3,63.8,42.5,63.9z M54.3,66.8
			c-0.9-0.6-2.6,0.6-2.6,1.3C52.5,67.6,53.6,68.2,54.3,66.8z M56.4,67.6c-1.2-0.3-2.3,0.5-3.4,1C54.3,69,55.4,68.6,56.4,67.6z
			 M65.7,57.1c-1.6-1.6-4.2-2-6.3-2.6c-1.1-0.3-2.2-0.6-3.2-0.9c-1-0.2-2.2-0.5-3.2-0.5C57,55.2,61.6,56.4,65.7,57.1z"/>
		<path class="st1" d="M72.3,70.3c3.1-0.4,6.2-0.5,9.2-1.6c-0.7-0.5-1.7,0-2.5,0.1c-0.9,0.1-1.8,0.2-2.6,0.3
			c-1.7,0.2-3.6,0.5-5.4,0.1c0-0.5,0.7-0.4,1.1-0.4c3-0.4,6.8-0.7,9.7-2.1c-4.1,0.5-8.1,1.3-12.3,1.6c-0.4-0.3-0.8-0.5-1.2-0.6
			c4-0.7,8.1-0.8,12.1-2.1c-1-0.3-2.2,0-3.3,0.2c-3.3,0.5-6.9,0.8-10.3,1.3c-0.7-0.4-1.2-0.2-1.9-0.8c4.5-0.5,9-0.9,13.3-2.2
			c-5.2,0.4-10.7,1.5-15.5,2c0.8-0.7,0.9-2,1.8-2.8c0.5-0.4,2.4-0.4,3.2-0.6c3.2-0.5,6.7-1,9.6-1.9c-4.1,0.1-8.5,1.5-12.3,1.7
			c0.3-0.5,0.6-1,1-1.4c1.8,0,3.6-0.3,5.4-0.6c1.7-0.3,3.6-0.4,5.2-1.3c-1.5-0.6-3.3,0.4-5.1,0.6c-1.7,0.3-3.5,0.6-5,0.5
			c0.9-0.8,2.2-0.8,3.4-1c1.1-0.2,2.4-0.1,3.2-0.9c-1.3-0.5-3,0.5-4.5,0.5c0.8-1.1,2.6-1.8,3.7-3.1c5.4,2.3,11,5.4,16.1,5.9
			c-1.4,4.4-3.3,8.9-4.3,13.2c-3,1.4-7.4-3.2-10.6-4.7C72.9,70.1,72.7,70.6,72.3,70.3z M64.3,64.7c-0.1-0.1-0.2,0.1,0,0.2
			c3.9-0.1,8.1-0.8,11.8-1.6c1.3-0.3,2.7-0.4,3.7-1.2C74.6,62.8,69.5,63.6,64.3,64.7z M79.6,70.1c1.5-0.5,4.6,0,5.2-1.6
			c-1.5,0.1-3.8,1-5.6,1.4C79.4,69.9,79.5,70,79.6,70.1z"/>
		<path class="st1" d="M54.4,50.6c-0.1-0.8,1.7-0.3,2.2-0.9c0.2-0.9-1.3,0.2-1-0.5c0.6-0.1,1-0.6,1.6-0.9c1.3,0.8,2.2,1.6,3.4,2.4
			c-0.5,0.2-1.1-0.2-1.6,0c2.2,0.9,4.3,1.3,6.6,2.6C61.8,52.6,58,51.1,54.4,50.6z"/>
	</g>
</g>
<g>
	<text transform="matrix(1 0 0 1 -147.8046 253.8796)" class="st2" style="font-family:'NordicaBlack'; font-size:21.0387px;">ARCHAEO </text>
	<g>
		<text transform="matrix(1 0 0 1 -144.8691 275.945)" class="st2" style="font-family:'NordicaBlack'; font-size:21.0387px;">STORIES</text>
	</g>
</g>
<g>
	<g>
		<path class="st2" d="M6.7,14.6l3.6-8.1l0.4-0.9h1.9L13,6.5l3.6,8.1h0.1v0.2l1.6,3.6l0.9,2.1h-3.3l-0.4-0.9l-0.9-2.1h-6l-0.9,2.1
			l-0.4,0.9H4L5,18.4l1.6-3.6v-0.3C6.5,14.6,6.7,14.6,6.7,14.6z M13.3,14.6l-1.7-3.8L10,14.6H13.3z"/>
		<path class="st2" d="M26.8,14c0.7,0.7,1.6,1.9,3,4.3l1.3,2.2h-3.4l-0.4-0.8c-1.3-2.2-1.6-2.1-4.5-5.3l-0.9,0v4.5v1.5h-3v-1.5
			l0-4.5h0v-3c0,0,0,0,0,0l0-4.5V5.6h1.5l5,0c3.3,0,5,2.4,4.9,4.5C30.3,11.7,28.6,13.3,26.8,14z M21.9,11.5l2.8,0h0
			c1.5,0,2.7-0.7,2.7-1.4v0c0-1.2-0.2-1.5-1.9-1.5h-3.5V11.5z"/>
		<path class="st2" d="M39.4,15.8l0.4-0.7h3.5L42,17.3c-0.2,0.4-0.5,0.8-0.8,1.1c-1.1,1.3-3,2.2-4.9,2.2c-3.5,0-6.6-3.6-6.6-7.5
			c0-3.9,3.1-7.5,6.7-7.5c1.7,0,3.6,0.9,4.8,2.2l0,0c0.3,0.3,0.6,0.7,0.8,1.1l1.2,2.2h-3.4l-0.4-0.8c-0.1-0.2-0.3-0.4-0.4-0.6
			c-0.8-0.8-1.5-1.2-2.6-1.2c-2.2,0-3.6,1.7-3.7,4.5c0,2.8,1.5,4.5,3.7,4.5c1.2,0,1.9-0.3,2.6-1.2C39.2,16.1,39.3,16,39.4,15.8z"/>
		<path class="st2" d="M54.1,14.5V19v1.5h-3V19v-4.5h-5.5V19v1.5h-3V19v-4.5v-3V7.1V5.6h3v1.5v4.5h5.5V7.1V5.6h3v1.5v4.5V14.5z"/>
		<path class="st2" d="M55.3,14.6l3.6-8.1l0.4-0.9h1.9l0.4,0.9l3.6,8.1h0.1v0.2l1.6,3.6l0.9,2.1h-3.3l-0.4-0.9l-0.9-2.1h-6l-0.9,2.1
			L56,20.5h-3.3l0.9-2.1l1.6-3.6v-0.3C55.2,14.6,55.3,14.6,55.3,14.6z M62,14.6l-1.7-3.8l-1.7,3.8H62z"/>
		<path class="st2" d="M77.1,5.6h1.5v3h-1.5h-6.6v3h4.4h1.5v3h-1.5h-4.4v3h6.6h1.5v3h-1.5H69h-1.5v-1.5v-4.5v-3V7.1V5.6H69
			C69,5.6,77.1,5.6,77.1,5.6z"/>
		<path class="st2" d="M78.4,13c0-3.9,3.3-7.5,7-7.5c3.7,0,6.9,3.6,6.9,7.5c0,3.9-3.2,7.5-6.9,7.5C81.7,20.5,78.4,17,78.4,13z
			 M81.4,13c0,2.7,1.6,4.5,4,4.5c2.4,0,4-1.7,4-4.5c0-2.7-1.6-4.5-3.9-4.5C83,8.6,81.4,10.3,81.4,13z"/>
	</g>
	<g>
		<g>
			<path class="st2" d="M23.1,28.5V30h-3v-1.5c0-0.9-0.7-1.5-2.2-1.5c-1.5,0-2.2,0.6-2.2,1.5c0,1.5,7.8,1.5,7.8,6
				c0,2.4-2.8,4.5-5.5,4.5c-2.8,0-5.6-2.1-5.6-4.5v-1.5h3v1.5c0,0.9,0.8,1.5,2.6,1.5c1.7,0,2.6-0.6,2.5-1.5c0-1.5-7.7-1.5-7.8-6
				c0-2.4,2.6-4.5,5.2-4.5C20.5,24,23.1,26.2,23.1,28.5z"/>
			<path class="st2" d="M29.9,24h2.9h1.5v3h-1.5h-2.9v10.5V39h-3v-1.5V27H24h-1.5v-3H24h2.9C26.9,24,29.9,24,29.9,24z"/>
			<path class="st2" d="M34,31.5c0-3.9,3.3-7.5,7-7.5c3.7,0,6.9,3.6,6.9,7.5c0,3.9-3.2,7.5-6.9,7.5C37.3,39,34,35.4,34,31.5z
				 M37,31.5c0,2.7,1.6,4.5,4,4.5c2.4,0,4-1.7,4-4.5c0-2.7-1.6-4.5-3.9-4.5C38.7,27,37,28.8,37,31.5z"/>
			<path class="st2" d="M56.4,32.5c0.7,0.7,1.6,1.9,3,4.3l1.3,2.2h-3.4l-0.4-0.8c-1.3-2.2-1.6-2.1-4.5-5.3l-0.9,0v4.5V39h-3v-1.5
				l0-4.5h0v-3c0,0,0,0,0,0l0-4.5v-1.5h1.5l5,0c3.3,0,5,2.4,4.9,4.5C59.9,30.2,58.2,31.8,56.4,32.5z M51.4,30l2.8,0h0
				c1.5,0,2.7-0.7,2.7-1.4v0c0-1.2-0.2-1.5-1.9-1.5h-3.5L51.4,30L51.4,30z"/>
			<path class="st2" d="M60.3,25.5V24h3v1.5v12V39h-3v-1.5V25.5z"/>
			<path class="st2" d="M74.1,24h1.5v3h-1.5h-6.6v3h4.4h1.5v3h-1.5h-4.4v3h6.6h1.5v3h-1.5h-8.1h-1.5v-1.5V33v-3v-4.5V24h1.5
				C65.9,24,74.1,24,74.1,24z"/>
			<path class="st2" d="M85.7,28.5V30h-3v-1.5c0-0.9-0.7-1.5-2.2-1.5c-1.5,0-2.2,0.6-2.2,1.5c0,1.5,7.8,1.5,7.8,6
				c0,2.4-2.8,4.5-5.5,4.5c-2.8,0-5.6-2.1-5.6-4.5v-1.5h3v1.5c0,0.9,0.8,1.5,2.6,1.5c1.7,0,2.6-0.6,2.5-1.5c0-1.5-7.7-1.5-7.8-6
				c0-2.4,2.6-4.5,5.2-4.5C83.1,24,85.7,26.2,85.7,28.5z"/>
		</g>
	</g>
</g>
</svg>
