<?xml version="1.0" encoding="utf-8"?>
<!-- Generator: Adobe Illustrator 26.0.1, SVG Export Plug-In . SVG Version: 6.00 Build 0)  -->
<svg version="1.1" id="Слой_1" xmlns="http://www.w3.org/2000/svg" xmlns:xlink="http://www.w3.org/1999/xlink" x="0px" y="0px"
	 viewBox="0 0 232.18 77.52" style="enable-background:new 0 0 232.18 77.52;" xml:space="preserve">
<style type="text/css">
	.st0{fill-rule:evenodd;clip-rule:evenodd;fill:#793610;}
	.st1{fill-rule:evenodd;clip-rule:evenodd;fill:#FFFFFF;}
	.st2{fill:#793610;}
</style>
<g>
	<g>
		<path class="st0" d="M191.34,9.46c-0.74-0.57-1.21-2-2.51-1.99c-1.56,0.01-3.72,4.24-5.09,5.74c-2.37,2.59-5.51,5.26-7.93,6.88
			c0.47,0.44,0.01,0.5-0.15,0.7c-0.61,0.79-1.94,1.98-2.65,2.56c-1.78,1.44-3.87,2.71-5.83,4.44c-4.81,4.26-9.58,9.05-14.38,12.99
			c-1.06,0.87-1.99,1.85-2.95,2.52c-0.6,0.42-1.46,0.7-2.18,1.11c-0.8,0.47-1.63,0.63-2.14,1.3c-0.64,0.83-0.66,2.1-0.88,3.25
			c-0.25,1.3-0.76,2.44-0.95,3.36c-0.32,1.54-0.14,3.13-0.17,4.84c-0.03,1.58-0.26,3.89,1.41,4.61c0.18,0.08,0.31-0.06,0.48,0
			c0.05-0.06,0.1-0.12,0.18-0.04c3.55,2.54,7.47,3.38,10.64,4.19c1.27,0.32,2.58,0.66,3.84,0.95c5.38,1.24,9.74,1.55,14.78,1.82
			c2.46,0.13,5.21,1.38,7.57,1.35c0.41-0.01,1.02-0.28,1.66-0.34c0.59-0.05,1.22,0.13,1.74,0.03c1.57-0.28,3.22-1.34,4.76-2.11
			c8.14-4.08,15.16-10.18,23.35-14.23c2.07-1.02,4.76-2.59,6.97-4c1.02-0.65,1.89-1.11,2.32-1.81c1.05-1.72,0.93-4.67,1.13-6.76
			c0.35-3.65-0.28-6.29,0.9-9.79c0.3-0.9,1.91-3.35,1.76-4.1c-0.06-0.33-1.53-1.9-2.29-2.32c-0.65-0.36-1.47-0.19-2.11-0.44
			c-1.33-0.51-3.22-1.62-4.73-2.5c-5.17-3-9.47-4.87-14.57-6.95c-2.98-1.22-5.74-2.25-8.94-3.86C193.34,10.32,192.04,10,191.34,9.46
			z"/>
		<path class="st1" d="M147.71,58.34c-0.35-0.16-0.55,0.47-0.96,0c-0.21-1.78,0.13-3.68-0.23-5.43c1.72-1.73-0.21-4.3,0.84-5.84
			c0.31-0.46,1.36-0.87,1.59-0.7c0.52,0.38-0.3,2.43-0.44,3.07C147.88,52.46,148.05,55.63,147.71,58.34z"/>
		<path class="st1" d="M149.3,58.59c-0.07-0.11-0.13-0.23-0.07-0.37c0.76-0.76,2.41-0.42,3.66-0.45c2.47-0.06,5.15-0.07,7.72-0.31
			c1.24-0.12,2.5-0.63,3.62-0.15c-0.82,0.88-2.26,0.69-3.4,0.78C157.17,58.39,153.05,58.46,149.3,58.59z"/>
		<path class="st1" d="M156.14,62.01c3.36,0.79,6.55,0.73,9.94,1.64c-0.49,0.55-1.12,0.87-1.33,1.52
			C161.88,64.1,159.03,63.18,156.14,62.01z"/>
		<path class="st1" d="M149.37,56.56c4.96,0.18,10.36-0.35,15.07-0.55c-0.8,0.98-2.31,0.58-3.43,0.6c-3.54,0.07-7.5,0.31-11.08,0.32
			c-0.11,0.1-0.27-0.07-0.37,0.08C149.44,56.87,149.51,56.69,149.37,56.56z"/>
		<path class="st1" d="M149.59,55.27c4.45-0.19,9.11-0.11,13.59-0.73c0.52-0.07,1.26-0.44,1.74,0.03c-0.06,0.93-1.01,0.66-1.59,0.7
			c-4.25,0.32-9.32,0.33-13.59,0.73C149.3,55.84,149.83,55.48,149.59,55.27z"/>
		<path class="st1" d="M165.45,65.32c0.11-0.65,1.71-1.94,2.69-1.41C167.74,64.91,166.48,65.78,165.45,65.32z"/>
		<path class="st1" d="M149.77,54.27c0.2-0.78,1.29-0.54,1.81-0.56c4.51-0.17,9.54-0.34,14.03-0.92c-0.13,1.18-2.67,1.32-3.95,1.37
			c-3.79,0.17-8.52-0.07-11.74,0.36C149.78,54.46,149.74,54.37,149.77,54.27z"/>
		<path class="st1" d="M167.86,65.79c0.46-0.76,1.66-1.94,2.73-1.22c-0.52,0.43-1.05,0.8-1.55,1.37
			C168.66,65.99,168.21,65.65,167.86,65.79z"/>
		<path class="st1" d="M160.2,59.75c-0.22-0.1-0.16-0.25-0.04-0.18c1.6-1.29,3.63-0.44,5.28-1.45c0.39-0.34-0.23-0.47-0.15-0.74
			c1-0.71,0.55-1.87,1.88-2.11c0.04-0.44-0.69-0.2-0.59-0.55c1.5-4.31,5.98-9.21,4.96-13.01c0.5-0.7,1.05-1.17,1.59-1.67
			c4.65,0.2,9.66,2.14,13.89,0.27c0.92,0.28,1.73,0.02,2.62,0.14c0.59,0.55,1.02,0.67,1.33,0.88c-1.74,5.34,0.31,9.93,0.33,14.92
			c-1.24,2.36-3.17,4.87-4.12,7.17c-4.22,0.84-8.79-0.56-13.26-1.45C169.31,61.07,164.53,60.17,160.2,59.75z M170.38,55.48
			c-0.76-0.25-1.46-0.27-1.96,0.78C168.8,57.95,170.75,56.86,170.38,55.48z M176.07,55.1c-0.38,0.75,0.07,1.27,0.78,1.48
			C179.59,57.36,177.34,52.57,176.07,55.1z M175.03,52.34c0.29,0.33,0.46,0.05,0.7,0.15c0.49-0.58,0.6-1.08,0.37-1.51
			c-1.47-1.21-2.84,0.84-1.92,1.92C174.64,53.19,174.97,52.79,175.03,52.34z M182.27,54.43c-0.54-0.18-1.13,0.47-1.22,1.11
			c0.07,0.08,0.22,0.15,0.15,0.26C182.26,56.82,183.27,54.99,182.27,54.43z M188.18,56.59c-1.32,0.14-2.69,0.02-3.88,0.78
			C185.81,58.16,186.95,57.15,188.18,56.59z M187.85,54.93c-1.78-0.73-3.26,0.03-4.8,0.49C184.5,56.35,186.41,55.63,187.85,54.93z
			 M188.25,53.12c-2.03-0.36-3.9,0.01-5.76,0.49C184.18,54.49,186.97,54.23,188.25,53.12z M187.07,52.02
			c-1.62-0.72-2.99-0.24-4.43-0.07c-0.13,0.19-0.1,0.34,0,0.48C184.1,52.24,185.62,52.28,187.07,52.02z M182.44,45.75
			c-0.05-0.61-0.75-1.08-1.33-0.88c-0.3,0.35-0.37,0.65-0.48,0.96C181.09,46.56,182.05,46.83,182.44,45.75z M184.65,45.3
			c-0.6,0.63,0.08,1.1-0.11,1.85C187.78,50.16,186.68,43.16,184.65,45.3z M188.08,43.74c-1.02-0.3-1.84,0.39-2.73,0.75
			C186.33,44.54,187.35,44.85,188.08,43.74z M188.42,42.52c-1.37-0.14-2.65,0.18-3.88,0.78C185.57,43.92,187.67,43.32,188.42,42.52z
			"/>
		<path class="st1" d="M150.1,53.05c-0.28-0.14,0.09-0.4-0.11-0.55c4.43-0.26,8.66-1.51,13.37-0.4c-0.86,0.44-2.04,0.48-3.07,0.53
			C157.09,52.76,153.3,52.6,150.1,53.05z"/>
		<path class="st1" d="M170.44,66.23c0.44-0.67,1.58-2,2.62-1.3c-0.53,0.38-1.03,0.93-1.55,1.37
			C171.16,66.31,170.77,66.12,170.44,66.23z"/>
		<path class="st1" d="M150.39,51.65c-0.22-0.28,0.02-0.65,0-0.96c2.82-0.3,5.91-0.72,8.83-1.01c0.05,0,0.28,0.04,0.3,0.04
			c2.42,0.14,4.78,1.13,7.24,0.65c-1.88-0.91-3.97-0.32-5.5-1.1c-0.93-0.03-2.21,0.29-2.99-0.55c-0.23,0.27-0.09,0.47,0.22,0.63
			c-2.55,0.36-5.21,0.21-7.75,0.61c0.27-1-0.02-2.18,0.55-2.99c0.32-0.46,3.41-2.13,4.13-2.37c0.64-0.22,1.32,0.11,1.7-0.15
			c0.2,0.15-0.17,0.42,0.11,0.55c3.92,1.01,7.54,0.56,11.38,1.16c-0.35,0.36-0.12,0.6-0.48,0.96c-4.1-0.67-8.11-0.86-12.19-1.38
			c1.57,1.27,3.92,1.32,5.88,1.5c2.05,0.2,4.13,0.26,6.02,0.32c0.22,0.37-0.21,0.88-0.41,1.33c-3.38-0.43-6.83-1.17-10.16-1.31
			c3.09,1.32,6.79,1.58,9.94,1.64c-0.18,1.03-0.74,2.13-0.99,3.18c-0.95-0.04-2.09-0.57-3.36-0.95c-0.5-0.44,0.56-0.04,0.63-0.7
			c-1.3-0.69-3.01,0.63-4.69-0.4c-0.21,0.2,0.02,0.32,0.18,0.44C156.19,51.47,153.2,51.13,150.39,51.65z M156.41,48.13
			c-1.67-0.02-3.81,0.14-5.02,0.82C153.08,48.76,154.77,48.59,156.41,48.13z"/>
		<path class="st1" d="M173.21,66.63c-0.04-0.45,1.3-2.06,2.1-1.48C174.61,65.62,174.03,66.75,173.21,66.63z"/>
		<path class="st1" d="M176.83,66.96c0.19-0.64,1.23-1.19,1.81-1.52C178.47,66.17,177.48,66.99,176.83,66.96z"/>
		<path class="st1" d="M178.9,67.21c0.19-0.5,1.13-1.35,1.73-1.41C180.06,66.32,179.52,66.96,178.9,67.21z"/>
		<path class="st1" d="M185.14,67.68c-0.03-0.36,0.65-1.2,1.11-0.7c-0.11,0.18-0.33,0.39-0.18,0.52
			C185.8,67.78,185.41,67.44,185.14,67.68z"/>
		<path class="st1" d="M153.26,43.96c1.67-1.89,4.25-3.39,6.19-5.48c0.1,0.74,1.9,1.96,2.7,1.95c0.3-1.06-1.59-1.76-2.44-2.1
			c2.47-2.2,4.96-4.28,7.45-6.4c0.45,0.12,0.86,1.87,1.11,2.66c-1.88,2.23-2.89,4.29-2.39,6.25c-2.76,0.9-5.64,1.25-8.3,2.64
			C156.36,43,154.6,43.51,153.26,43.96z M164.44,38.91c0.61-0.66-0.63-1.04-0.89-0.59C164.03,38.61,163.95,38.85,164.44,38.91z"/>
		<path class="st1" d="M162.49,44.02c-0.29-0.18-0.08-0.17,0.04-0.3c0.91-0.11,1.81-0.24,2.66-0.63c1.16,0.93,2.86,0.54,4.14,0.51
			c0.12,0.29-0.08,0.66-0.18,1C166.85,44.03,164.69,44.1,162.49,44.02z"/>
		<path class="st1" d="M190.19,61.76c0.87-2.28,2.61-3.66,3.09-5.62c0.45-1.84-0.35-4.11-0.64-6.02c-0.59-3.84-0.65-6.97-0.13-11.12
			c1.49-1.44,2.17-3.5,2.54-5.03c2.71,0.26,6.1,3.89,8.72,3.71c0.89,0.98,1.66,0.84,2.55,0.73c3.78,3.02,7.09,3.73,10.35,4.15
			c-0.65,2.24-1.03,4.44-2.09,6.76c-2.06,0.56-4.06,1.46-6.05,2.38c0.21-1.36,0.75-2.78,0.99-4.14c0.41-0.37,1.06,0.46,1.4-0.19
			c0.67-1.14-0.74-1.27-1.19-1.59c0.13-0.63,0.32-1.01,0.84-1.52c-0.47-0.43-0.75,0.08-1.07,0.41c-0.56-1.31-2.12-0.77-2.51-0.07
			c-0.79,1.43,1.18,1.72,1.96,1.62c-1.07,1.57-0.55,4.48-1.76,6.02c-0.68,0.88-3.27,1.67-4.35,2.23
			C198.61,56.67,194.01,59.44,190.19,61.76z M200.13,46.78c-0.19,0.66,0.52,1.5,1.48,1.62C204.82,48.8,201.02,43.61,200.13,46.78z
			 M206.38,48.69c-0.11-0.7-0.89-1.06-1.55-1.03C203.54,48.68,205.9,50.41,206.38,48.69z M202.96,41.31
			c-1.6,0.61-3.12,1.67-4.54,3.22c-0.03,0.1,0.01,0.19,0.15,0.26C199.98,44.07,202.72,43.12,202.96,41.31z M201.63,40.43
			c-1.7,0.45-3.25,1.65-4.76,3.08c0.11,0.07,0.22,0.15,0.33,0.22C198.6,42.51,200.68,42.25,201.63,40.43z M199.9,39.91
			c-1.25,0.16-2.27,1.44-3.39,2.22C197.78,42.37,199.19,40.99,199.9,39.91z M198.42,38.77c-1.23-0.05-2.2,1.15-3.21,2.19
			c0.11,0.07,0.22,0.15,0.33,0.22C196.49,40.56,197.9,40.01,198.42,38.77z"/>
		<path class="st1" d="M167.84,41.97c0.63-0.51,1.29-0.9,2.03-0.89c0.11,0.28-0.54,0.51-0.48,0.96
			C168.87,41.98,168.39,42.16,167.84,41.97z"/>
		<path class="st1" d="M167.65,40.57c-0.92-1.71,1.73-3.17,2.35-4.99c0.69,0.66,1.07,1.39,1.67,2.07
			C170.29,38.41,169.02,39.72,167.65,40.57z"/>
		<path class="st1" d="M215.98,48.67c0.72-2.1,1.24-4.16,1.91-6.25C217.78,44.29,217.68,47.1,215.98,48.67z"/>
		<path class="st1" d="M218.27,47.15c0.17-1.51,1.01-3.15,1.17-4.66c0.3-0.4,0.74-0.13,1.14-0.04c0.16-0.59-0.6-0.18-0.96-0.48
			c0.46-4.45,0.66-8.84,3.37-13.74c0.7,3.33-1.05,6.88-1.53,10.49c-0.15,1.1,0.11,2.42-0.18,3.4
			C220.74,43.97,219.15,45.37,218.27,47.15z"/>
		<path class="st1" d="M218.11,41.61c-0.08-0.85,0.13-1.76,0.51-2.7C218.57,39.79,218.54,40.66,218.11,41.61z"/>
		<path class="st1" d="M192.93,12.6c2.15,1.27,4.13,1.71,6.21,2.68C197.67,16.48,193.49,14.54,192.93,12.6z"/>
		<path class="st1" d="M198.85,16.68c0.7-0.81,2.47-0.47,3.77,0.1C201.96,17.83,200.2,17.53,198.85,16.68z"/>
		<path class="st1" d="M202.95,18.45c0.07-0.5,1.83-0.72,2.73-0.27C205.22,18.59,203.89,18.8,202.95,18.45z"/>
		<path class="st1" d="M206.28,19.7c1.01-1.23,4.04,1.61,5.47,2.35C209.9,21.14,208.09,20.41,206.28,19.7z"/>
		<path class="st1" d="M157.46,59.54c0.31-0.25,1.7-0.57,2.22,0.03C158.98,59.75,158.18,59.44,157.46,59.54z"/>
		<path class="st1" d="M187.84,67.23c1.75-3.44,5.12-4.4,7.85-5.81c2.39-1.23,4.58-2.36,6.79-3.49
			C198.01,61.16,192.75,64.61,187.84,67.23z"/>
		<path class="st1" d="M157.69,44.51c0.36-0.59,1.75-0.2,2.58-0.04C159.86,44.8,158.46,44.35,157.69,44.51z"/>
		<path class="st1" d="M167.04,45.11c-0.2-0.01,1.68-0.12,1.85,0.11C168.34,45.53,167.66,45.22,167.04,45.11z"/>
		<path class="st1" d="M165.78,43.16c0.07-0.62,1.19-0.12,1.66-0.34C167.32,43.21,166.24,42.91,165.78,43.16z"/>
		<path class="st1" d="M181.36,22.33c1.74-1.16,5.38,0.62,8.05,1.35c2.51,0.68,4.45,1.11,6.8,1.8c0.27-0.95-1.76-1.16-2.59-1.4
			c-2.93-0.83-6.51-1.72-9.42-2.42c2-0.65,4.11,0.72,6.21,1.24c2.08,0.52,4.22,0.88,6.1,1.17c-0.12-1-1.57-0.9-2.33-1.07
			c-2.63-0.57-5.66-1.29-8.35-2.35c-0.9,0.16-1.99-0.65-2.88-0.48c0.03,0.41,0.81,0.55,1.07,0.55c-1.6,0.64-4.14,0.77-6.13,1.05
			c1.8-1.71,3.54-2.46,5.87-2.82c1.25-0.19,2.79-0.68,3.73-0.56c0.9,0.11,1.99,0.74,2.99,1.03c2.77,0.8,5.8,1.5,8.65,2.38
			c-0.66-1.2-3.46-1.68-5.65-2.31c-2.08-0.6-4.09-0.81-5.54-1.76c-0.7-0.11-1.31,0.18-2.07-0.26c-0.21,0.55-0.65,0.63-1.4,0.67
			c0.29-0.49,1.41-0.93,2.03-1.37c4.61,2.38,9.28,2.48,13.49,4.48c0.37-0.07,0.55-0.28,0.63-0.7c1.39,0.7,2.68,0.88,4.07,1.58
			c-2.4,0.95-4.59,2.94-7.01,3.82c-0.12,0.39,0.34-0.15,0.52,0.18c-3.47,2.79-4.64,7.66-7.55,11.13c-1.34-0.14-2.53,0.46-3.77,0.86
			c-1.65-0.86-3.02-0.39-4.51-0.43c-2.87-1.35-5.26-0.35-7.87-0.43c-1.92-1.66-2.72-3.55-5.44-5.05c-0.92-2.21,1.69-3.68,3.76-5.66
			c1.39-1.33,2.64-2.53,3.69-3.63c2.09-0.12,3.96-1.3,6.39,0.24c-0.6,0.36-1.32,0.12-2.07-0.25c-0.38,0.19,0.28,0.63,0.37,0.41
			c-0.29,0.47-1.46,0.72-2.25,0.26c-0.22,0.86-1.15,0.5-1.73,0.93c1.54,0.82,4.03,2.19,5.8,2.57c-0.24,0.96-3.36-0.1-4.43-1.02
			c0.03,0.67,1.47,1.23,2.03,1.51c-0.18,0.75-2.24,0.28-3.1,0.82c1.72,0.42,3.29,0.14,4.91,0.06c3.02,1.31,5.88,1.85,8.91,3.2
			c0.26-0.64-0.7-0.96-1-1.14c-1.84-1.1-4.71-1.23-6.25-2.39c0.25-0.9,1.32-0.07,1.85,0.11c1.8,0.59,4.39,1.43,6.24,1.91
			c-0.26-1.14-2.17-1.63-3.29-2.02c-3.39-1.2-7.3-2.38-10.79-3.49c1.52-0.68,3.33,0.6,5.36,1.32c3.3,1.18,6.87,2.05,10.13,3.05
			c0.29-1.18-1.66-1.39-2.55-1.69c-3.19-1.1-6.88-2.06-9.9-2.9c-0.31-0.45,1.05-0.35,1.44-0.48c3.36,1.47,6.64,2.53,9.98,3.27
			c1.05,0.23,2.13,0.52,3.18,0.51c-1.53-1.18-3.79-1.5-5.8-2.09c-2.09-0.62-4.16-1.25-6.13-1.83c4.02,0.71,8.2,2.22,12.23,3
			c-0.23-1.03-1.74-1.15-2.59-1.4c-2.82-0.81-6.05-1.54-8.87-2.53C183.52,22.9,182.37,22.29,181.36,22.33z M173.47,32.77
			c1.92,0.75,3.51,0.64,5.21,0.58c1.16-0.04,2.64,0.15,3.51-0.71c-0.46-0.69-1.45-0.3-2.07-0.26c-1.56,0.11-3.11,0.07-4.62-0.03
			c-0.75-0.05-1.6-0.27-2.29,0.08C173.15,32.57,173.31,32.67,173.47,32.77z M182.93,35.85c-0.12,0.12-0.32,0.11-0.03,0.29
			c1.42-0.24,3.15,0.99,4.43,0.07C185.78,35.68,184.43,36.12,182.93,35.85z M175.35,30.18c1.67,0.6,3.04,0.46,4.58,0.32
			c1.13-0.1,2.54-0.07,3.4-0.78c-1.15-0.57-2.63-0.17-3.95-0.07c-1.39,0.11-2.82,0.41-4.21,0.08
			C175.31,29.86,175.23,30.04,175.35,30.18z M187.18,33.07c-0.95-0.55-2.55,0.64-2.62,1.3C185.41,33.83,186.5,34.47,187.18,33.07z
			 M189.25,33.8c-1.25-0.32-2.27,0.48-3.36,0.97C187.17,35.25,188.26,34.8,189.25,33.8z M198.57,23.37
			c-1.65-1.63-4.17-1.98-6.28-2.57c-1.07-0.3-2.19-0.64-3.25-0.88c-1.03-0.23-2.25-0.53-3.18-0.51
			C189.85,21.41,194.51,22.64,198.57,23.37z"/>
		<path class="st1" d="M205.17,36.54c3.08-0.43,6.24-0.52,9.19-1.57c-0.73-0.47-1.7,0.02-2.47,0.12c-0.88,0.11-1.76,0.23-2.62,0.34
			c-1.73,0.22-3.6,0.55-5.36,0.12c-0.01-0.47,0.74-0.36,1.07-0.41c3.01-0.42,6.79-0.67,9.67-2.05c-4.1,0.47-8.13,1.27-12.26,1.61
			c-0.41-0.31-0.82-0.55-1.18-0.63c4.01-0.74,8.15-0.85,12.07-2.06c-1.04-0.34-2.22,0.03-3.32,0.19c-3.29,0.49-6.94,0.78-10.3,1.31
			c-0.66-0.4-1.19-0.17-1.89-0.77c4.48-0.48,8.97-0.92,13.29-2.21c-5.18,0.36-10.72,1.48-15.54,1.99c0.8-0.74,0.94-2.03,1.84-2.77
			c0.52-0.43,2.41-0.44,3.25-0.56c3.22-0.47,6.73-0.98,9.6-1.94c-4.14,0.13-8.54,1.5-12.33,1.72c0.32-0.48,0.64-0.96,0.96-1.44
			c1.8-0.04,3.59-0.31,5.35-0.6c1.73-0.28,3.62-0.41,5.21-1.34c-1.53-0.58-3.34,0.37-5.06,0.64c-1.74,0.27-3.51,0.58-4.99,0.53
			c0.87-0.79,2.24-0.77,3.36-0.97c1.13-0.2,2.43-0.12,3.17-0.93c-1.26-0.54-3.03,0.55-4.5,0.53c0.83-1.12,2.58-1.81,3.69-3.15
			c5.43,2.32,11.01,5.37,16.08,5.88c-1.43,4.39-3.33,8.87-4.26,13.16c-2.97,1.37-7.38-3.16-10.65-4.67
			C205.82,36.29,205.59,36.86,205.17,36.54z M197.22,30.94c-0.12-0.07-0.18,0.08,0.04,0.19c3.94-0.06,8.07-0.76,11.78-1.61
			c1.26-0.29,2.7-0.42,3.69-1.23C207.53,29.03,202.34,29.85,197.22,30.94z M212.52,36.3c1.52-0.54,4.61,0.02,5.24-1.64
			c-1.54,0.12-3.78,0.95-5.57,1.41C212.3,36.16,212.41,36.23,212.52,36.3z"/>
		<path class="st1" d="M187.25,16.82c-0.11-0.81,1.66-0.29,2.21-0.93c0.25-0.92-1.29,0.21-0.96-0.48c0.55-0.15,1.04-0.56,1.55-0.89
			c1.3,0.76,2.22,1.6,3.36,2.39c-0.5,0.2-1.13-0.19-1.62,0.04c2.2,0.89,4.29,1.26,6.58,2.61C194.71,18.85,190.88,17.33,187.25,16.82
			z"/>
	</g>
	<g>
		<path class="st2" d="M9.4,27.88l5.82-13.2l0.66-1.46h3.16l0.66,1.46l5.82,13.2h0.17v0.39l2.61,5.92l1.49,3.41h-5.31l-0.66-1.46
			l-1.49-3.39h-9.75l-1.49,3.39l-0.66,1.46H5.12l1.49-3.41l2.55-5.79v-0.52H9.4z M20.18,27.88l-2.72-6.17l-2.72,6.17H20.18z"/>
		<path class="st2" d="M42.17,27.01c1.16,1.16,2.66,3.09,4.9,7.04l2.07,3.64h-5.59l-0.72-1.23c-2.09-3.65-2.53-3.46-7.29-8.65
			l-1.43,0.02v7.35v2.44h-4.88v-2.44l0.01-7.29c0,0-0.01,0-0.01,0V23c0.01,0,0.01,0,0.02,0l0.01-7.32v-2.44h2.44l8.15-0.03
			c5.37,0,8.06,3.93,8.03,7.37C47.91,23.27,45.15,25.79,42.17,27.01z M34.1,22.95l4.53-0.06h0.03c2.44,0,4.33-1.2,4.33-2.3v-0.03
			c0.03-1.92-0.34-2.44-3.16-2.47H34.1V22.95z"/>
		<path class="st2" d="M62.7,29.83l0.69-1.2h5.68l-2.18,3.67c-0.37,0.66-0.89,1.29-1.29,1.75c-1.84,2.09-4.91,3.59-7.92,3.56
			c-5.74,0-10.79-5.85-10.82-12.19c0-6.31,5.11-12.16,10.85-12.19c2.78,0,5.85,1.43,7.78,3.53l0.03,0.03
			c0.43,0.49,0.95,1.18,1.32,1.86l2.01,3.61h-5.57L62.59,21c-0.2-0.34-0.43-0.63-0.72-0.98c-1.23-1.35-2.44-1.89-4.19-1.92
			c-3.5,0-5.91,2.84-5.94,7.32c0,4.48,2.47,7.34,5.94,7.32c1.89,0,3.07-0.55,4.25-1.89C62.27,30.44,62.5,30.15,62.7,29.83z"/>
		<path class="st2" d="M86.6,27.85v7.32v2.44h-4.88v-2.44v-7.32h-8.89v7.32v2.44h-4.88v-2.44v-7.32v-4.88v-7.32v-2.44h4.88v2.44
			v7.32h8.89v-7.32v-2.44h4.88v2.44v7.32V27.85z"/>
		<path class="st2" d="M88.58,27.88l5.82-13.2l0.66-1.46h3.16l0.66,1.46l5.82,13.2h0.17v0.39l2.61,5.92l1.49,3.41h-5.31l-0.66-1.46
			l-1.49-3.39h-9.75l-1.49,3.39l-0.66,1.46h-5.31l1.49-3.41l2.55-5.79v-0.52H88.58z M99.37,27.88l-2.72-6.17l-2.72,6.17H99.37z"/>
		<path class="st2" d="M124.04,13.22h2.44v4.88h-2.44h-10.76v4.88h7.2h2.44v4.88h-2.44h-7.2v4.88h10.76h2.44v4.88h-2.44h-13.2h-2.44
			v-2.44v-7.32v-4.88v-7.32v-2.44h2.44H124.04z"/>
		<path class="st2" d="M126.05,25.41c0-6.37,5.42-12.16,11.39-12.19c5.97,0,11.3,5.88,11.28,12.19c0,6.31-5.28,12.22-11.3,12.19
			C131.41,37.61,126.05,31.76,126.05,25.41z M130.93,25.41c0,4.45,2.64,7.34,6.48,7.32c3.84,0,6.46-2.84,6.43-7.32
			c0-4.45-2.58-7.29-6.4-7.32C133.57,18.1,130.93,20.97,130.93,25.41z"/>
	</g>
	<g>
		<g>
			<path class="st2" d="M27.92,50.63v2.44h-4.88v-2.44c0-1.52-1.09-2.41-3.59-2.44c-2.44,0-3.56,0.92-3.59,2.44
				c0,2.41,12.65,2.47,12.62,9.81c0,3.84-4.56,7.29-9.01,7.26c-4.48,0-9.07-3.39-9.07-7.29v-2.44h4.88v2.44
				c0,1.43,1.35,2.44,4.19,2.41c2.84,0,4.16-0.95,4.13-2.38c0-2.5-12.6-2.5-12.62-9.81c0-3.87,4.3-7.29,8.46-7.32
				C23.64,43.31,27.92,46.75,27.92,50.63z"/>
			<path class="st2" d="M38.99,43.31h4.71h2.44v4.88H43.7h-4.71v17.07v2.44h-4.88v-2.44V48.19h-4.76h-2.44v-4.88h2.44h4.76H38.99z"
				/>
			<path class="st2" d="M45.71,55.51c0-6.37,5.42-12.17,11.39-12.19c5.97,0,11.3,5.88,11.28,12.19c0,6.31-5.28,12.22-11.3,12.19
				C51.07,67.7,45.71,61.85,45.71,55.51z M50.58,55.51c0,4.45,2.64,7.34,6.48,7.32c3.84,0,6.46-2.84,6.43-7.32
				c0-4.45-2.58-7.29-6.4-7.32C53.22,48.19,50.58,51.06,50.58,55.51z"/>
			<path class="st2" d="M82.04,57.1c1.16,1.16,2.66,3.09,4.9,7.04L89,67.78H83.4l-0.72-1.23c-2.09-3.65-2.53-3.46-7.29-8.65
				l-1.43,0.02v7.35v2.44h-4.88v-2.44l0.01-7.29c0,0-0.01,0-0.01,0v-4.88c0.01,0,0.01,0,0.02,0l0.01-7.32v-2.44h2.44l8.15-0.03
				c5.37,0,8.06,3.93,8.03,7.37C87.78,53.36,85.02,55.88,82.04,57.1z M73.96,53.04l4.53-0.06h0.03c2.44,0,4.33-1.2,4.33-2.3v-0.03
				c0.03-1.92-0.34-2.44-3.16-2.47h-5.74V53.04z"/>
			<path class="st2" d="M88.48,45.75v-2.44h4.88v2.44v19.51v2.44h-4.88v-2.44V45.75z"/>
			<path class="st2" d="M110.83,43.31h2.44v4.88h-2.44h-10.76v4.88h7.2h2.44v4.88h-2.44h-7.2v4.88h10.76h2.44v4.88h-2.44h-13.2
				h-2.44v-2.44v-7.32v-4.88v-7.32v-2.44h2.44H110.83z"/>
			<path class="st2" d="M129.77,50.63v2.44h-4.88v-2.44c0-1.52-1.09-2.41-3.59-2.44c-2.44,0-3.56,0.92-3.59,2.44
				c0,2.41,12.65,2.47,12.62,9.81c0,3.84-4.56,7.29-9.01,7.26c-4.48,0-9.07-3.39-9.07-7.29v-2.44h4.88v2.44
				c0,1.43,1.35,2.44,4.19,2.41c2.84,0,4.16-0.95,4.13-2.38c0-2.5-12.6-2.5-12.62-9.81c0-3.87,4.3-7.29,8.46-7.32
				C125.49,43.31,129.77,46.75,129.77,50.63z"/>
		</g>
	</g>
</g>
<g>
	<text transform="matrix(1 0 0 1 -147.8046 220.117)" class="st2" style="font-family:'NordicaBlack'; font-size:21.0387px;">ARCHAEO </text>
	<g>
		<text transform="matrix(1 0 0 1 -144.8691 242.1824)" class="st2" style="font-family:'NordicaBlack'; font-size:21.0387px;">STORIES</text>
	</g>
</g>
</svg>
