<?xml version="1.0" encoding="utf-8"?>
<!-- Generator: Adobe Illustrator 26.0.1, SVG Export Plug-In . SVG Version: 6.00 Build 0)  -->
<svg version="1.1" id="Слой_1" xmlns="http://www.w3.org/2000/svg" xmlns:xlink="http://www.w3.org/1999/xlink" x="0px" y="0px"
	 viewBox="0 0 595.3 1412.4" style="enable-background:new 0 0 595.3 1412.4;" xml:space="preserve">
<style type="text/css">
	.st0{fill:#793611;}
</style>
<g>
	<path class="st0" d="M421.8,1102.4c0.8,0.8,1.3,1.6,2,2.6c-0.8,1.2-1.7,2.6-2.6,4c1.7,1.8,3.3,4,2.7,7c-1.7,1.3-2.6,3.7-5.5,3.6
		c-0.8,0-1.7,1.4-1.4,2.8c0.3,1.5-0.1,2.8-1,4.1c-1.1,1.7-2.2,2.7-4.5,3.1c-2.4,0.5-4.7,0.9-7.1,0.8c-0.8-0.8-1.6-1.6-2.3-2.3
		c0-1.9,0-3.7,0-6.1c0.9,0.7,1.7,1.1,1.8,1.5c0.1,1.6-0.1,3.3,2,4c1.5-0.3,2.1-1.2,2.1-2.7c0-0.8-0.7-2.1,1.4-2
		c0.3,0.1,0.1-0.1,0-0.3c-0.1,0.1-0.3,0.3-0.4,0.4c0.2,0.2,0.4,0.3,0.6,0.4c0,0,0.2-0.2-0.1-0.6c-1.5-2.6-4.5-1.5-6-3.4
		c-0.8,1-1.6,2-2.4,3c-0.5,0.6-0.8,1.7-1.4,1.9c-2.5,0.8-4.1,2.9-5.4,4.8c-1.3,1.8-1.8,4.3-2.1,6.6c-0.4,3.5-2.2,6.5-2.6,9.9
		c-0.1,0.6-0.4,1.2-0.4,1.8c-0.4,3.5-0.7,7.1-1,10.6c0,0.5-0.1,1-0.3,1.4c-3.2,4.8-1.1,10.2-1.6,15.3c0,0.6,1.2,1.2,1.9,1.9
		c0.3,0.3,0.7,0.7,1,1c-0.3,1-0.7,2-1.2,3.7c-1.5-2.1-2.8-3.6-3.7-5.2c-1.7-3-3.4-5.8-7.1-6.9c-0.2-2.8,2.3-4.6,3-7.1
		c0.6-2.4,1.3-4.7,2-7.3c-2.1,0.5-3.7,2.3-6.2,1.8c-0.1,0,0.1,0,0.2,0c-0.1-0.3-0.1-0.5-0.3-0.8c0-0.1-0.4,0.1-0.6,0.2
		c0.2,0.2,0.3,0.4,0.7,0.6c1.9,2.2,1.9,2.2,2.1,4.5c-2.1,0.6-4.2,1.2-6.8,2c-0.5-0.3-1.6-0.8-3-1.5c-0.1,1.3,0.3,2.8-0.3,3.5
		c-2.1,2.5-0.2,4.4,1.1,5.8c3,3.3,5.8,7,10.7,7.8c1.1,2.1,3.7,1.7,5.3,2.8c1.7,1.1,3.6,1.9,5.2,3.1c2.1,1.5,4,3.2,6,4.7
		c3.8,2.9,6.6,6.5,8.8,10.8c0.9,1.7,2.2,3.1,3.5,4.5c3.1,3.6,6.4,7,9.5,10.6c0.6,0.7,1,1.6,1.4,2.4l2.4,2.4c2.6,1.2,3.4,4,5.5,5.7
		c1.2,0.9,1.9,2.5,2.9,3.8c1.1,1.4,0.8,2.2-1.2,3.4c-0.4,0.2-0.7,0.5-1.4,1c-3.3-3.7-6.6-7.3-9.8-10.9c-0.4-0.4-0.4-1.2-0.8-1.7
		c-3.3-3.7-6.7-7.2-9.8-10.9c-3.6-4.4-7.9-8.4-10.4-13.7c-0.3-0.7-0.7-1.5-1.3-1.9c-4.4-3.6-9.1-6.9-13.9-9.9
		c-4.3,0.4-6.7-4-10.7-4.3c-0.7-0.1-1.7-0.7-1.9-1.3c-0.6-1.8-1.6-3.1-3.5-3.6c-0.3-0.1-0.6-0.3-0.7-0.6c-2.1-5.1-6.3-8.9-8.3-14.1
		c-0.3-0.8-0.4-2.5-2.3-2.6c-0.9,0-1.6-1.4-1.4-2.8c0.1-1.1,0.1-2.1-0.6-3.2c-1.9-2.8-3.3-6-5.1-8.9c-1.5-2.4-3.3-4.6-3.3-7.6
		c0-0.5-0.5-1.2-0.9-1.6c-1.5-1.5-2.3-3.3-3.2-5.2c-2.4-5-6.4-9.3-8.4-14.5c-2.2-5.8-5.5-11-7.6-16.9c-0.8-2.4-2.9-4.4-3.4-7.1
		c-0.6-3.9-2.9-6.8-5-10c-0.6-0.9-1.1-1.9-1.5-2.9c-0.5-1,1.1-2.8-1.2-3.1c-1.9-0.3-0.3-1.9-1.1-2.9c-1.6-1.9-2.9-4.1-4.3-6.2
		c-0.1-0.1-0.2-0.2-0.3-0.4c-0.8-1.1,1.2-2.9-1.2-3.7c-1.1-0.4-1.9-2-2.6-3.1c-0.6-1-0.8-2.4-1.5-3.4c-0.9-1.2-2.2-2.1-3.1-3.2
		c-1.2-1.6-2.2-3.4-3.2-5c-1.6,2.4-4.2,3.7-6,5.8c-2,2.2-4.2,4.3-6.3,6.4c-2.1,2.1-4.2,4.2-6.2,6.5c-2,2.2-3.8,4.5-5.8,6.9
		c2.6,2.9,5.6,5.9,8.1,9.2c1.9,2.6,3.2,5.7,4.7,8.5c1.7,3.1,3.6,6.2,4.9,9.5c1.4,3.5,3.6,6.5,5,9.9c2.2,5.1,4.6,10.1,7.1,15.1
		c1.5,3,3.5,5.9,4.9,9c1.1,2.6,2.4,5,3.8,7.4c1.4,2.5,2,5.3,4.3,7.2c0.3,3.5,2.8,6.2,4.2,9.3c1.7,4,3.2,8,5.1,11.9
		c0.9,1.9,2.1,3.6,1.8,5.8c-0.1,0.4,0,1,0.3,1.4c3.4,3.8,3.7,8.8,5.8,13.1c2.4,4.9,2.6,10.5,5.4,15.3c0.4,0.6,0.4,1.5,0.4,2.3
		c0,2.7-0.1,5.3,0.1,8c0.1,1.7-0.6,3.5,0.9,5.2c0.6,0.6-0.2,2.4,0.2,3.4c0.5,1.3-1.6,1.9-0.3,3.3c1.1,1.3-0.9,1.8-1.2,2.7
		c-0.3,0.9-0.5,1.9-0.5,2.8c0,4.7,0.1,9.3-0.1,14c-0.1,1.9,0.9,4-0.9,5.6c-0.2,0.2,0,0.9,0.3,1.3c1.1,1.5,0.6,2.8,0,4.5
		c-0.9,2.7-1.3,5.6-1.3,8.4c-0.1,3.7-0.2,7.3-2.3,10.6c1.6,0.7,3,1.3,4.7,2c-1.1,0.8-1.7,1.5-2.4,1.6c-3,0.6-3.8,3.2-3.9,5.5
		c-0.2,3.1-1.5,5.7-2.5,8.5c-0.7,2-0.9,4.3-1.7,6.3c-1.2,3.3-2.7,6.6-4.3,9.7c-1.2,2.3-2.4,4.7-3.6,7c-2.5,5-6.4,8.9-9.3,13.6
		c-1.1,1.8-2.6,3.3-3.9,4.9c-1.2,1.5-2.2,3.2-3.6,4.5c-1.6,1.6-3.2,3.1-5.1,4.4c-2.9,2.1-5.2,5.1-7.7,7.7c-2.2-0.4-3-1.8-2.5-3.6
		c0.6-2.5,1.5-5,2.5-8.5c0.4,1.9,0.6,3,0.9,4.4c4.1-2.7,8-5.3,10.5-9.1c1.6-2.4,4-4,5.3-6.8c0.8-1.7,1.3-2.8-0.2-4.2
		c-0.7-0.8-1.2-1.8-1.8-2.9c1-0.5,2-1,3.2-1.7c0.9,1.2,1.9,2.3,2.8,3.5c0.5-0.6,0.7-0.8,0.9-1.1c0.7-1.2,1.3-2.4,2-3.7
		c2.3-4.2,4.6-8.5,7-12.6c2.1-3.5,2.2-7.7,3.9-11.4c1.6-3.5,1.7-7.5,3.7-11c0.8-1.4,0.7-3.1-0.9-4.4c-0.5-0.4-0.7-1-1.3-1.8
		c3.7-0.3,4.7-2.5,4.4-5.5c-0.1-1.4,0.7-2.6,0.6-4c-0.1-1.4,0.3-2.9,0.4-4.3c0.1-1.6-0.3-3.2,1-4.6c0.2-0.3,0-1,0-1.5
		c-0.1-9.9,1.8-19.7,0.9-29.6c-0.1-1.6,1.3-2.8,0.3-4.8c-0.8-1.6-0.2-3.9-0.2-5.9c0-1.8-0.2-3.7,0-5.5c0.2-1.7-1.4-3.5,0-5.2
		c-2.1-1.2,0.1-4-2-5.2c0.4-2-0.7-3.7-1.4-5.4c-0.5-1.3-0.9-2.7-1.1-4.1c-0.4-2.5-2.3-4.3-3-6.8c-0.7-2.6-0.7-5.8-3.4-7.6
		c0.9-2.9-2-4.4-2.3-7.1c-0.3-2.3-1.9-4.5-2.8-6.8c-0.5-1.1-0.7-2.4-1.2-3.5c-1-2.2-2.5-4.2-2.9-6.8c-0.3-1.9-1.8-3.7-3.1-5.2
		c-1.2-1.3-1.9-2.9-2.8-4.4c-2.7-4.9-4.4-10.3-8-14.7c-0.1-2.9-2.6-4.8-3.1-7.7c-0.3-1.9-2-3.5-3-5.2c-0.5-0.8-1.2-1.6-1.4-2.4
		c-0.8-5.8-5.1-9.9-7.1-15.1c-2-5.3-4.9-10.1-8.3-14.5c-1.7-2.1-2.9-4.7-4.8-6.5c-2.7-2.5-4.6-5.6-7.5-7.9
		c-4.1-3.3-8.5-5.9-12.9-8.7c-2.4-1.5-5.4-2.1-7-4.8c-0.4-0.7-1.6-1.3-2.4-1.3c-3.2-0.1-5.4-2.4-8.1-3.4c-2.7-1-5.4-2.3-7.9-3.7
		c-3.2-1.8-6.5-3.3-9-6.1c-0.9-0.9-2.5-1.2-3.7-1.8c-1.1-0.6-1.5-2.2-3.1-2.1c-2.1-2.7-6.2-2.7-8.3-5.3c-2.1-2.7-5.5-3.2-7.8-5.5
		c-0.5-0.5-1.6-0.9-2.3-1.5c-2.4-2.2-4.5-4.6-7.3-6.5c-1.6-1.1-3.1-2.6-4.1-4.7c-1-2.1-3-3.7-4.4-5.7c-1.4-1.9-3-3.8-3.8-5.9
		c-1.6-4-4.9-7.3-5.4-11.8c-2.2-2.4-1.1-6.3-3.8-8.4c0.2-4.1-3.2-7.1-3.2-11.2c0-0.3,0.1-0.7,0-1c-4.2-6.8-3.8-15-7-22.1
		c0.5-4.2-1.8-8-2.2-12.2c-0.2-2.6-1.1-5.6-3.6-7.5c-3-2.3-5.9-5-9.3-6.6c-2.5-1.2-3-3.2-3.9-5.1c-0.4-0.8-0.1-1.9-0.1-4
		c1.5,2.7,3.7,2.6,5.1,3.7c1.5,1.2,3.1,2,4.8,2.8c6,2.8,10.1,7.1,11.3,14.1c0.5,2.9,0.1,6.4,2.8,8.8c0.1,2.4,0.3,4.7,0.9,7.1
		c1.6,6.5,3.5,12.9,5.5,19.3c1.1,3.5,2.3,7,3.5,10.5c0.8,2.5,1.6,5,2.5,7.5c0.9,2.3,1.2,5,3.5,6.5c0.7,4,2.8,7.2,5.1,10.4
		c1.6,2.2,3.1,4.4,4.8,6.5c1.2,1.5,2.8,2.6,3.6,4.5c0.7,1.7,3.8,1.3,3.8,3.9c2.1,0.5,3,2.4,4.6,3.5c3.5,2.7,7.1,5.3,10.8,7.8
		c4.3,2.9,9,5,13.2,8.1c0.4,0.3,0.9,0.4,1.3,0.4c3.6,0.5,6.2,2.9,9.1,4.5c1.7,0.9,3.5,1.7,4.6,3.2c1,1.4,3.2,0.3,4.2,2.1
		c0.7,1.4,2.2,1.5,3.7,1.9c1.6,0.4,2.9,2.6,4.3,2.6c2.1,0,2.6,2,4.2,2.2c10.5-8,17.5-18.8,25.3-29.2c-2.1-1.3-3.7-2.9-5.5-3.3
		c-2.1-0.4-3.4-2.1-5.4-2.6c-1.9-0.5-3.8-1.4-5.4-2.5c-1.8-1.1-3.9-1.2-5.8-1.8c-3.1-0.9-6-2.5-8.6-4.5c-0.5-0.4-1-1.1-1.5-1.1
		c-3.6,0.1-6.3-2.8-9.8-3.1c-0.3,0-0.7,0-0.9-0.1c-2.1-1.5-3.2-4.2-6-4.9c-2.6-0.7-3.5-3-4.9-4.9c-2-2.6-4.6-4.5-6.3-7.4
		c-2.2-3.6-6-6.2-7.4-10.5c-2.7-2-3.9-5-5.7-7.6c-3.7-5.4-6.4-11.3-9-17.3c-1.6-3.7-2.6-7.6-3.7-11.5c-0.4-1.5-0.4-3.2-0.8-4.7
		c-0.4-1.5-1.2-2.9-1.6-4.3c-0.4-1.5-0.3-3.3-1.1-4.5c-0.8-1.3,0.5-2.8-0.9-3.8c0.3-3.2-0.2-6.3,0.8-9.6c1.3-4.1,3.1-8.2,3.3-12.7
		c0.1-1.4,1.4-2.7,2.2-4c2.2-3.6,4.5-7.1,6.6-10.8c1.1-1.9,2.1-3.8,3-5.8c1-1.9,1.7-4,2.8-5.8c2.3-3.9,2.6-8.6,5.2-12.3
		c-0.1-3.3,1.2-6.1,2.8-8.8c0.2-0.2,0.2-0.6,0.1-0.9c-0.4-4,1.3-7.4,2.7-10.9c0.8-1.9-0.4-4.3,1.3-6c-0.3-5.4,2.6-10.3,2-15.7
		c-0.1-1.2,2-1.8,0.5-3.4c-0.5-0.5,0.3-2.2,0.5-3.3c0.2-1.2-0.2-2.5,0.7-3.8c0.6-0.9,0.3-2.5,0.3-3.8c0-1.3,0-2.7,0-4s0.1-2.7,0-4
		c-0.2-2.4-0.8-4.7-0.9-7.1c-0.2-2.5,0.5-5.1-0.1-7.5c-1.4-5.3-1-11-3.8-15.9c-0.6-1.1-0.4-3,0-4.4c0.3-1.2-1.4-1.8-0.4-3.4
		c0.6-1-0.6-2.9-0.6-4.4c-0.1-5.2-0.1-10.3,0-15.5c0-1.4,0.8-2.7,0.9-4.1c0.1-0.8-0.6-1.6-0.5-2.4c0-0.9,0.5-1.8,0.6-2.7
		c0.1-2.2,0.2-4.4,0.9-6.6c1.2-3.9,1.5-8.1,2.1-12.1c0.1-0.3-0.1-0.8,0-1c2.1-2.9,2.3-6.4,3.1-9.8c0.7-3.3,2.1-6.4,3.2-9.7
		c3.2-10.2,7.2-20,10.8-30c0.3-0.9,0.5-1.8,0.9-2.6c0.9-1.6,2.1-3.1,2.8-4.9c2.2-6.1,4.2-12.3,6.3-18.4c0.8-2.3,1.5-4.6,2.8-6.8
		c1.4-2.5,2.8-5.4,3-8.2c0.3-4.2,2.4-7.7,3.3-11.7c0.7-3.3,2.1-6.4,3-9.7c0.8-2.9,2.3-5.7,3.1-8.7c1.2-4.3,2.5-8.6,3.7-13
		c0.3-1.2,0.6-2.4,1-3.6c0.2-0.6,1-1.1,0.9-1.6c-0.9-4.9,3.4-8.5,3.1-13.3c2.1-3.8,2.9-8.1,4.6-12.1c2-4.8,3.3-10,4.6-15.1
		c0.9-3.3,0.9-7.2,3.6-10c0.6-0.6,0.1-2.2,0.5-3.3c2-5.5,4.2-10.9,6.3-16.4c1.6-4,2.8-8.2,4.4-12.2c1.2-3.2,2.3-6.4,3.4-9.6
		c0.1-0.3,0.6-0.5,0.6-0.7c-0.4-4.3,2.3-7.8,3.1-11.7c0.5-2.5,1.5-5,2.9-7.3c2.2-3.6,2.8-7.8,4.1-11.8c0.8-2.3,1.4-4.7,2.7-6.9
		c1.1-2,2.8-3.9,2.3-6.5c2.2-2.9,2-6.6,3.3-9.6c1.3-3.1,2.3-6.4,3.6-9.5c1.6-3.7,2.8-7.5,3.9-11.4c1.1-3.7,1.7-7.5,3.8-10.9
		c0.8-1.2,0.2-3.2,0.9-4.6c1.7-3.6,2.1-7.8,4.1-11.3c0.6-1,0.5-2.4,0.8-3.7c1.4-6.4,4.9-12,6.6-18.3c2-1.8,1.9-4.6,3.4-6.6
		c1.8-2.4,4-4.5,6.3-6.3c1.8-1.4,3.8-3.2,6.3-2.8c1.5,0.3,2.3-2.1,4-0.7c0.7,0.6,1.9,0,2.9,0.5c0.9,0.5,2.7,0.6,3.4,0
		c1.8-1.5,3.8-0.8,5.7-0.9c3.7-0.1,7.3,0,11,0c0.8,0,2,0.4,2.4-0.1c1.2-1.3,2-0.3,3.3-0.1c1.8,0.3,1,1.9,2,2.3
		c0.1,0.1,0.2,0.2,0.4,0.3c-0.8,0.8-1.7,1.6-2.4,2.4c-2.9,0.4-5.7-0.1-8.7,0.9c-2.4,0.8-5.5,0.8-8-0.8c-3.2,2-6.7,0.5-10.1,1
		c-2.3,0.4-4.7,0.9-7.6,1.5c-6.6,6.1-6.6,6.1-10.2,15.9c-2.7,3.1-3.3,7.1-4.3,10.7c-1,3.6-3.2,6.7-3.8,10.5
		c-0.5,3.7-2.2,7.1-3.1,10.7c-1.3,5.2-3.1,10.3-5,15.4c-2,5.5-3.8,11.1-5.9,16.6c-2.2,5.8-4,11.6-6.8,17.2c-1.5,3-2.1,6.4-3.2,9.7
		c-1.1,3.2-1.9,6.6-3.3,9.6c-3.3,7-5,14.6-7.7,21.8c-1.2,3.2-2.7,6.3-3.5,9.5c-0.8,3.5-2.3,6.7-3.5,10.1c-2.9,8-5.6,16-8.4,24
		c-1.6,4.6-3.7,9.2-4.6,14.1c-0.7,4-2.1,7.7-3.9,11.4c-1.2,2.5-2.3,5.1-2.2,8.1c0,1.8-0.8,3.7-1.5,5.3c-1.6,3.4-2.3,7.1-3.3,10.6
		c-0.8,2.8-1.5,5.7-2.5,8.5c-1.3,3.8-2.4,7.7-3.5,11.6c-0.4,1.5-0.2,3.4-1.1,4.5c-2.1,2.7-1.4,6.4-3.7,9c-0.7,6.6-4.1,12.3-5.5,18.8
		c-0.6,3-2,6.1-3.4,9c-1.7,3.5-2.7,7.2-4.2,10.8c-1.4,3.4-2.9,6.8-4.3,10.2c-2.1,5-4,10-5.9,15.1c-1.4,3.8-2.3,7.8-4.2,11.2
		c-0.9,1.6-0.7,3.1-1.1,4.6c-1.7,5.6-3.4,11.3-4.9,17c-0.9,3.3-1.8,6.6-2.8,9.8c-0.8,2.5-1.8,5.1-1.9,7.7c-0.3,4.4-1.8,8.6-1.1,13.1
		c0.2,1.1,0.1,2.3-0.9,3.1c1.1,0.9,1.4,1.8,0.2,2.8c-0.2,0.2-0.3,0.7-0.2,0.9c2.1,3.2,0.5,6.7,1,10.1c0.2,1.8-0.4,3.9,0.4,5.3
		c0.8,1.4-1.9,3.1,0.6,3.9c0.4,1.7,0.5,3.5,1.2,5c1.2,2.8,1.9,5.7,1.9,8.7c0,1.1,0.4,2.1,0.8,3.2c0.7,2.2,1.3,4.5,1.3,7
		c0,3.5-1,7.2,0.9,10.6c0.2,0.4,0.2,1.2-0.1,1.4c-1.5,1.2-0.7,2.8-0.9,4.2c-0.4,2.5,0.5,5.1-0.7,7.7c-1.1,2.3,0.4,5.1-1.1,7.5
		c-0.7,1.1,0,2.9-0.2,4.4c-0.2,1.4-0.8,2.7-0.9,4.1c-0.1,1.6-0.4,3.1-0.9,4.6c-0.6,1.9-1.8,3.8-1.2,6.1c0.4,1.5-0.5,2.7-0.9,4.1
		c-1.1,3.7-2,7.5-3,11.2c-0.2,0.9-0.7,1.7-1,2.6c-0.2,0.6-0.7,1.6-0.5,1.8c1,1.2-1,1.5-0.5,2.4c0.1,0.2-0.9,0.8-0.8,1.1
		c0.6,2.8-1.2,4.8-2.1,7.2c-0.8,2.2-1,4.7-2.1,6.6c-1.7,3-2.9,6.2-4.7,9.1c-1.2,2-3.3,3.8-3.7,5.9c-0.5,2.3-2.9,3.5-2.6,6
		c-3.3,3.6-3.9,8.4-5.4,12.8c-0.8,2.4-0.8,5-1.7,7.3c-1.4,3.5,0.2,6.6,0.7,9.9c0.6,3.7,1.5,7.4,2.4,11c0.3,1.4,0.5,2.8,1,4.1
		c1.3,3.1,2.6,6.3,3.8,9.4c2.1,5.4,4.8,10.4,7.7,15.3c2.3,3.9,4.8,7.7,7.5,11.4c1.9,2.6,4,5.1,6.3,7.4c2.6,2.5,4.1,5.7,6.6,8.3
		c1.2,1.2,2,2.8,3.8,3.3c0.9,0.3,1.9,0.7,2.4,1.4c1.9,2.7,5.2,3,7.8,4.1c2.4,1,4.8,2.2,7.2,3.1c2.8,1,4.9,3.6,8.2,3.1
		c0.1,0,0.3,0.2,0.4,0.3c2.3,2.1,5.4,2.4,7.9,3.8c2.5,1.3,5.5,1.4,7.5,3.7c3.2,0.1,4.7,3,7.2,4.3c2.5,1.2,4.9,2.7,7.2,4.2
		c1.4,0.9,2.4,2.3,3.6,3.5c1.2,1.2,3,2.2,3.4,3.6c0.5,2.1,3.1,1.6,3.4,3.5c0.3,1.5,2.1,1.8,2.7,3.3c0.8,2.2,3.4,3.4,3.3,6.1
		c0,0.4,0.5,0.8,0.9,1.1c2.9,2.2,4.9,5.3,6.2,8.4c2.6,6,7.4,10.8,8.8,17.3c2,1.7,2.1,4.5,3.9,6.4c1.5,1.6,2.3,4,3.1,6.2
		c1,3.1,1.7,6.4,4.1,8.8c0,3,2.6,4.9,3.1,7.7c0.3,1.7,1.7,3.3,2.6,4.9c1,1.7,2.6,3.3,3,5.2c0.4,1.7,1.1,2.9,2.2,4.1
		c0.8,0.9,0.9,2.3,1.5,3.4c3.4,5.7,5.5,12.1,9.4,17.6c2.3,3.2,3.6,7.1,5.7,11.2c1.8-1.7,3.2-3,4.7-4.4c-0.7-1.8-3.3-2.9-2.2-5.2
		c0.9-2,1.6-4.2,4.4-4.8c0.3,0.1,0.1-0.1,0-0.3c-0.1,0.1-0.3,0.3-0.4,0.4c0.2,0.2,0.4,0.3,0.6,0.4c0,0,0.2-0.2-0.1-0.6
		c-2-1.5-1.2-3.3-1.1-4.6c0.1-1.8,1.3-4,3-4.4c2.4-0.6,2.5-2.7,3.7-4c1.4-1.4,2.1-3.1,2-5.2c0-0.6,0.7-1.3,1.4-2.4
		c1.4,3.5,2.8,6.4,2.6,10c-0.2,4.9,1.7,10.8,4.6,15.5c0.6,1-0.5,3.3,2,3.1c0,0.9,0.3,2.1-0.2,2.6c-0.8,1.1-2.1,1.8-3.2,2.7
		c1,1.2,2.1,2.7,3.4,4.3c0.8-3.6,2.4-7.1,2.4-11.1c0-1.7,0.5-3.4,1-5.1c0.7-2.3-1.4-4.2-0.2-6.7c1-2,0.1-4.9,0.2-7.4
		c0.1-2.4-0.3-4.4-2.1-6.1c-1.4-1.4-1.1-3.5-2-5.2c-0.2-0.5-0.7-0.9-2.4-0.1c-0.4,0.2,0.3-0.5,0.9-1.2c0.3-0.4,0.6-1.2,0.5-1.4
		c-0.9-1.1-2-2.2-3.1-3.2c-1.2-1.1-3.4,0.5-4.4-1.4c-1.1,0.5-2.3,0.9-3.4,1.4c1.7,3.3,3.8-0.5,5.6,0.8c0.8,1.9,1.6,3.9,3.9,5
		c1.4,0.3,1.4,1.8,1.4,3.3c-4.1,0.7-4.1,0.7-6.4-4.2c-1.1,0.6-2.1,1.3-3.2,1.9c-3.5,1.7-5.1,1-6.4-2.8c-1.2-3.9,0.3-7.7,3.9-9.6
		c0-2.2,0-4.5,0-6.8c0.3-0.4,0.6-0.9,0.9-1.1c3-1.9,5-4.5,6.3-7.8c0.6-1.4,2-2.5,3-3.7c1.9-0.2,3.6-0.4,5.9-0.7
		c0.9,0.9,2.3,2.3,3.9,3.9c1.1-1.5,2.1-2.8,3-4.1c-0.5-0.2-1.1-0.4-1.9-0.7c-0.2-2.6,1.6-3.8,3.6-4.6c4.6-1.9,7.2-1.4,12.7,1.8
		c1-1.2,1.8-2.7,3-3.5c1.1-0.7,2.8-1,4,0.4c1.1,1.2,2.5,2,3.6,3.4c1.2,1.5,2.4,4.5,5.5,2.1c0.4-0.3,1.6,0.4,2.3,0.9
		c2.8,2,3.7,5.2,4.2,8.2c0.8,4.9-1.5,9.2-3.4,13.5C424.1,1102.4,423.1,1102.5,421.8,1102.4c-0.1,0,0.1,0,0.2,0
		c-0.1-0.3-0.1-0.5-0.3-0.8c0-0.1-0.4,0.1-0.6,0.2C421.2,1102,421.4,1102.2,421.8,1102.4z M393.6,1082.4c0.1,0,0.3,0,0.4,0
		c-0.1-0.3-0.1-0.5-0.3-0.8c0-0.1-0.4,0.1-0.6,0.2c0.2,0.2,0.3,0.4,3.4,1.8c-0.7-0.8-0.9-1.2-1.1-1.1c-0.5,0.1-0.9,0.3-1.4,0.4
		C394.6,1083,395.2,1083.2,393.6,1082.4z M410.2,1110c-0.8,0.7-1.1,0.9-1.1,1c0.1,0.5,0.3,0.9,0.4,1.4c0.2-0.6,0.3-1.2-0.5,0.4
		c0-0.1,0-0.3,0-0.4c-0.3,0.1-0.5,0.1-0.8,0.3c-0.1,0,0.1,0.4,0.2,0.6C408.6,1113.1,408.8,1113,410.2,1110z M414.1,1125.2
		c0.9-1.2,0.9-1.2,0-2.8c0,1.1,0,2-0.1,3.4c0-0.1,0-0.3,0-0.4c-0.3,0.1-0.5,0.1-0.8,0.3c-0.1,0,0.1,0.4,0.2,0.6
		C413.6,1126.1,413.8,1126,414.1,1125.2z M382.6,1088.4c0.1,0,0.3,0,0.4,0c-0.1-0.3-0.1-0.5-0.3-0.8c0-0.1-0.4,0.1-0.6,0.2
		c0.2,0.2,0.3,0.4,1-0.6c-0.1,2.5-0.1,3.7,1.9,2.9C384.4,1089.3,384,1088.6,382.6,1088.4z M383.6,1111.4c0.1,0,0.3,0,0.4,0
		c-0.1-0.3-0.1-0.5-0.3-0.8c0-0.1-0.4,0.1-0.6,0.2c0.2,0.2,0.3,0.4,1.5,0.5c-0.6,1.6-1,3.3,1.6,4
		C385.6,1113.8,385.1,1112.6,383.6,1111.4z M367.9,1111c-0.2-0.2-0.3-0.4-0.5-0.6c-0.1,0.1-0.3,0.3-0.4,0.4c0.2,0.2,0.4,0.3,0.6,0.4
		c0,0,0.2-0.2-0.6-0.9c0-2,0-4,0.6-6.9c-0.2,0.2-0.4,0.3-0.6,0.5c0.1,0.1,0.3,0.3,0.4,0.4c0.2-0.2,0.3-0.4,0.4-0.6
		c0,0-0.2-0.2-0.9,0.6C365,1107.3,365,1107.8,367.9,1111z M367.7,1130.2c0.2,0.1,0.3,0.3,0.5,0.4c1.1-1.1,2.2-2.2,3.8-3.8
		c0,1.9,0,3.1,0,4.8c0.7-0.6,1.1-0.9,1.4-1.2c0.9-0.6-0.1-1-0.1-1.4c-0.2-2.6-0.3-5.1-0.4-7.7c-1.8,3.1-3.4,6-4.8,9.5
		c0-0.1,0-0.3,0-0.4c-0.3,0.1-0.5,0.1-0.8,0.3c-0.1,0,0.1,0.4,0.2,0.6C367.6,1131.1,367.8,1131,367.7,1130.2z M416,1083.4
		c2,2.3-0.2,6.4,3.5,8.3c1.4-3.2-1.3-5.6-0.6-8.3c-1.2,0-2.1,0-3.1,0.6c0-1.9,0-3.1,0-4.3c-2-1.9-3.6-4.2-7.2-4.2
		C410.3,1079.1,413.5,1080.8,416,1083.4z M404.7,1080.7c1.7,1.2,4.1,1.7,4.4,4.3c0,0.1,0.4,0.2,0.6,0.2c0.5-1,0.9-2,1.2-2.7
		c-1-1-1.8-1.9-2.6-2.7c-0.9,0.2-2.1,0.5-3,0.5c-1.6-0.5-0.3-3-2.6-3.1c-1,0-5.7-0.8-8.7-0.6c0.1,0.9,0.1,1.8,0.1,2.6
		c1.9,0.2,3.4-0.1,4.9-0.9c2.1-1.1,2.6,2.3,4.5,1.9C404,1080.3,404.5,1080.4,404.7,1080.7z M390,1125.6c0.9-1.2,1.7-2.3,2.6-3.3
		c0.4-0.5,1.3-1,1.3-1.4c0-0.6-0.5-0.8-0.3-1.8c0.6-2.7,0.4-5.5,0.3-8.3c0-0.5-0.9-1-1.4-1.5c0.2,2.9-1.1,4.6-3,5.9
		c-0.3-0.3-0.7-0.6-1.5-1.2c0,1.2-0.3,2.3,0.1,2.7c2.4,2.5,1.9,5.6,1.9,9.1c0-0.1,0-0.3,0-0.4c-0.3,0.1-0.5,0.1-0.8,0.3
		c-0.1,0,0.1,0.4,0.2,0.6C389.6,1126.1,389.8,1126,390,1125.6z M375,1100.4c0.7-0.1,1.7,0.4,2-0.8c0.8-2.9,3-3.5,5.7-3.2
		c0.6,0.1,1.3,0,1.8,0c1.1-1.1,2-2,3-3c1.9,1.5,3.3,3.3,3.5,5.8c0.2,2.6,0.1,5.2-2,7.6c0-0.1,0-0.3,0-0.4c-0.3,0.1-0.5,0.1-0.8,0.3
		c-0.1,0,0.1,0.4,0.2,0.6c0.2-0.2,0.4-0.3,0.6-0.9c0.6-0.1,1.3-0.1,1.8-0.4c1.1-0.6,2.1-1.3,3.1-2.1c1.3-1,2.4-0.8,3.4,0.3
		c1,1.1,2,2.1,3,3.1c1.9-1.6,3.6-3.2,5.6-4.9c-1.2,0-2.5,0-3.6,0c-0.6-1.6-1.1-2.9-1.5-4c1.3-2.5,4.7-3.4,4.3-6.6
		c0-0.1,0.9-0.5,1.2-0.4c2.1,0.5,1.3-1.9,2.4-2.3c-1.3-2.2-0.2-6-4.1-6.7c-0.6,1.2-1.1,2.4-1.8,3.6c-0.9,1.4-2.1,2-4,1
		c0.2-1.1,0.4-2.3,0.7-3.5c0.1-0.6,0.5-1.2,0.4-1.8c-0.1-0.4-0.7-1.1-1-1.1c-1.1,0-0.3,0.5-0.3,1.1c-0.1,3.1-2,4.4-4.7,3.2
		c-0.8-0.4-1.6-0.8-1.8-0.9c-1.2,0.8-2.3,1.6-3.2,2.2c0.5,1.1,0.9,1.9,1.1,2.4c-1.3,1.5-2.4,2.7-3.1,3.5c-3.5,1.6-4.7-1.3-7.4-3.2
		c0.7,1.8,1,2.5,1.4,3.6c-1.9,1.2-3.8,2.4-5.9,3.7c0,1.3,0,2.8,0,4.7C375,1100.7,375,1100.5,375,1100.4c-0.3,0.1-0.5,0.1-0.8,0.3
		c-0.1,0,0.1,0.4,0.2,0.6C374.6,1101.1,374.8,1101,375,1100.4z M269.1,1068.5c2.3-3,5.6-5,7.6-8.2c1.9-3.1,5.9-4.2,7.6-7.7
		c3.8-1.6,5.7-5.4,9.1-7.9c-0.9-1.8-1.7-3.6-2.8-5.8c-2.1,2.5-4.1,4.5-5.6,6.8c-1.6,2.4-4.8,2.9-6,5.9c-0.5,1.4-2.7,2.1-4,3.3
		c-1.3,1.2-2,2.8-3.7,4c-2.5,1.7-4.2,4.7-6.2,7C266.5,1066.8,267.8,1067.6,269.1,1068.5z M285.3,1033.2
		c-5.9,6.1-11.6,11.9-17.4,17.9c1.4,0.8,2.7,1.6,3.9,2.4c4.2-2.1,5.5-3.2,16.2-16.1C287.2,1036.1,286.3,1034.8,285.3,1033.2z
		 M264,1049.2c0.4,0.2,0.8,0.3,1.2,0.5c2.1-2.1,3.8-4.9,6.3-6c2.9-1.3,3.2-4.2,5.4-5.8c2.3-1.7,4.1-4,6.2-6
		c-3.6-3.4-3.6-3.4-6.8-0.2c-0.9,0.9-1.5,2-2.3,3c-1.8,2.2-3.7,4.4-5.5,6.7c-1.4,1.7-2.9,3.4-4.2,5.2
		C263.9,1047.3,264.1,1048.4,264,1049.2z M396.7,1120.5c0.3-0.4,0.6-1.1,1.1-1.4c1.4-1,2.8-2.1,4.4-2.6c2.4-0.8,1.3-3.4,2.8-4.8
		c1.4-1.2,2.1-3,3.2-4.6c-2.3-1.8-3.2,0.3-4.6,1.1c-2.3,1.3-1.1,3.6-1.8,5c-1.1,0-1.9,0-2.6,0c-0.2-1.1-0.4-2-0.5-2.7
		c-1,0-1.8,0-2.8,0c1.7,1.6,0.9,3.1,0.4,4.6C398.4,1116.9,394.7,1118.3,396.7,1120.5z M264.7,1054.3c-1.9,2.6-3.8,5.1-5.6,7.6
		c1.1,0.5,2.2,1.1,3.5,1.7c1.4-3.1,5.1-3.7,6.2-6.9C267.6,1055.7,266.7,1053.8,264.7,1054.3z M362.4,1159c1.9-0.9,2.7-1.4,3.5-1.6
		c1-0.3,1.8,0.1,2.6,0.9c0.5,0.5,1.5,0.5,2.3,0.7c0.4-0.4,0.8-0.8,1.2-1.2c-2.1-2.9-5.9-3.3-8.6-5.4c-1.3-0.9-3,0.2-3.4,2.2
		C363.9,1156.1,364.1,1156.2,362.4,1159z M423.2,1094.8c-3.7,2.1-4.9-1-6.7-2.3c-2.2,1.6-3.4,3.3-2,6.1c1.4-1.2,2.8-1.1,4.5-0.4
		C420.7,1098.9,422.7,1098.5,423.2,1094.8z M411.6,1112.5c-1.2,2-2.2,3.8-3.3,5.6c0.8,1.4,2,1.8,3.5,1c-0.3-0.8-0.6-1.6-1-2.5
		c1.3-0.2,2.2-0.4,3.2-0.5c0-0.8-0.1-1.5,0-2.1c0.1-0.5,0.6-0.8,1.1-1.5C413.6,1112.5,412.5,1112.5,411.6,1112.5z M369,1143.9
		c0.1,0,3,3,3,3.1c-0.1,1.3,0.3,1.9,1.6,2.8c2.4,1.7,1.1-2.8,2.8-1.3c0.2-0.6,0.4-1.2,0.7-2.3c-1.1,0.6-1.5,1.1-2.1,1.2
		c-0.6,0.2-1.2,0-1.4,0c-1.1-2-2-3.5-2.9-5.2C370,1142.9,369.5,1143.4,369,1143.9z M371.6,1093.3c-1.9,2.5-2.1,5.3-0.9,9
		C373,1099.6,372.9,1096.7,371.6,1093.3z M255.4,1059.3c2.8-1.5,5.2-3.3,6.5-6.2c0.1-0.1-0.4-0.5-0.7-0.9
		C258.2,1053.6,257.1,1056.7,255.4,1059.3z M378.9,1083.9c-1.2,1.5-2.3,2.4-2.8,3.6c-0.8,1.6-2.3,3-2,5c0,0.3,0.2,0.5,0.4,0.8
		c0.8-0.5,1.7-1,2.5-1.4C374.4,1088.6,379.3,1087.3,378.9,1083.9z M408.7,1100c0.4,0.1,0.8,0.3,1.2,0.4c0.7-1.9,1.5-3.7,1.9-5.7
		c0.1-0.7-0.7-1.6-1.6-3.3C409.7,1094.9,409.2,1097.5,408.7,1100z M388.8,1098.4c-0.6,0-1.2,0-1.2,0c-0.4,2.3-2.4,4.4-1.2,7
		C389,1103.8,389.5,1101.4,388.8,1098.4z M370,1142c-0.5-1.5-0.8-2.3-0.9-3.1c-0.2-0.8-0.3-1.7-0.5-3.5c-1.5,2.1-3.9,2.4-3.2,5.2
		c0.6-0.5,0.9-0.8,1.1-1C367.4,1140.2,368.4,1140.9,370,1142z M412.9,1091.4c0.4-1.1,0.9-2.3,1.3-3.4c-1.6-0.7-2.6-1.1-3.8-1.6
		c-0.1,0-0.2,0.2-0.4,0.4c0,1,0,2.1,0,3.1C411,1090.4,411.8,1090.8,412.9,1091.4z M413.2,1105.2c2,0.9,1.5-1.4,2.2-1.5
		c3.3-0.9,1.3-2,0.3-3.1c-0.9,0.5-1.8,1-2.5,1.3C413.2,1103.1,413.2,1104.2,413.2,1105.2z M367.1,1151.7c-0.1-1.8-0.2-3.1-0.4-5.1
		c-1.6,1.4-2.7,2.3-3.9,3.3C364.2,1150.5,365.3,1151,367.1,1151.7z M378.2,1102.1c2,1.4,3.2,2.3,4.5,3.2
		C382.8,1101.7,382.4,1101.3,378.2,1102.1z M420.5,1113.1c-1.7,1.1-3.5,1.8-3.5,4.4c2.3-0.1,3-1.6,4-2.8
		C421.1,1114.4,420.7,1113.8,420.5,1113.1z M372.8,1139.3c-0.3-1.2-0.6-2-0.8-2.9c-0.3-1.5-1.1-1.2-2-0.6
		C371.1,1138.7,371.1,1138.7,372.8,1139.3z M408.3,1102.5c0.9,0.9,1.8,1.7,2.6,2.5c0-0.6,0-1.5,0-2.5
		C409.9,1102.5,409.1,1102.5,408.3,1102.5z M423.8,1094.8c2.8-1.7,2.4-3.5,1.9-6C424.9,1090.9,424.5,1092.4,423.8,1094.8z
		 M419.5,1106.8c0.7-1.6,1.1-2.7-0.2-3.4c-0.3-0.1-0.8,0.3-1.2,0.4C418.4,1104.7,418.9,1105.6,419.5,1106.8z M387.2,1128.4
		c0.2,0,0.3,0,0.5,0c0-1.3,0-2.7,0-4c-0.2,0-0.3,0-0.5,0C387.2,1125.7,387.2,1127.1,387.2,1128.4z M370.2,1133.2
		c0.3,0,0.6-0.1,0.9-0.1c-0.1-0.9-0.3-1.7-0.4-2.6c-0.2,0-0.3,0-0.5,0.1C370.2,1131.5,370.2,1132.3,370.2,1133.2z M421.2,1087.2
		c0.3,0,0.6,0,0.9,0c-0.1-0.9-0.2-1.8-0.4-2.7c-0.2,0-0.3,0-0.5,0C421.2,1085.4,421.2,1086.3,421.2,1087.2z M383,1083.6
		c-0.5-0.1-1-0.2-1.4-0.2c-0.1,0-0.3,0.4-0.4,0.6c0.4,0.1,0.9,0.3,1.3,0.3C382.6,1084.4,382.7,1084,383,1083.6z M386.8,1130.4
		c-0.2,0-0.3,0-0.5,0c0,0.7,0,1.3,0,2c0.2,0,0.3,0,0.5,0C386.8,1131.7,386.8,1131.1,386.8,1130.4z M373.8,1132.4c-0.2,0-0.3,0-0.5,0
		c0,0.7,0,1.3,0,2c0.2,0,0.3,0,0.5,0C373.8,1133.7,373.8,1133.1,373.8,1132.4z M362.8,1145.4c-0.4,0.2-0.8,0.4-0.8,0.5
		c0,0.4,0.2,0.9,0.3,1.3c0.2-0.1,0.6-0.2,0.6-0.4C363,1146.4,362.9,1146,362.8,1145.4z M406.5,1099.4c-0.1,0.1-0.3,0.2-0.3,0.3
		c0.1,0.2,0.2,0.4,0.3,0.7c0.1-0.1,0.3-0.2,0.3-0.3C406.8,1099.8,406.6,1099.6,406.5,1099.4z M405,1117.9c-0.1-0.1-0.2-0.3-0.3-0.3
		c-0.2,0.1-0.4,0.2-0.7,0.3c0.1,0.1,0.2,0.3,0.3,0.3C404.6,1118.1,404.8,1118,405,1117.9z M387.6,1137.2c0.1-0.1,0.2-0.2,0.4-0.4
		c-0.2-0.1-0.4-0.3-0.7-0.3c-0.1,0-0.2,0.2-0.3,0.3C387.2,1137,387.4,1137.1,387.6,1137.2z M389.6,1135.2c0.1-0.1,0.2-0.2,0.4-0.4
		c-0.2-0.1-0.4-0.3-0.7-0.3c-0.1,0-0.2,0.2-0.3,0.3C389.2,1135,389.4,1135.1,389.6,1135.2z M387.9,1123c-0.1-0.2-0.2-0.4-0.4-0.6
		c-0.1,0.1-0.3,0.2-0.3,0.3c0.1,0.2,0.2,0.4,0.3,0.7C387.6,1123.3,387.7,1123.2,387.9,1123z"/>
	<path class="st0" d="M274,367.4c0.3-0.3,0.9-0.5,1-0.8c0.1-2,0-3.9,0-6.4c-2.7,1.1-5.1,2.1-7.4,3.1c-1.5,0.7-3,1.6-4.5,2.4
		c-0.5,0.3-1.2,0.7-1.7,0.6c-2.9-0.6-5.7-1.4-8.5-2.2c0-1,0-1.6,0-2.4c0.4-0.1,0.8-0.3,1.3-0.4c0.5,0,1,0,1.4,0.2
		c5.3,1.8,5.3,1.8,9.4-0.2c1.5-0.7,3.1-1.3,4.6-2c0.8-0.4,1.6-0.9,2.2-1.6c0.7-0.8,1.1-1.9,1.9-2.7c0.9-0.9,2.7-1.3,3-2.2
		c0.7-2.4,0.8-5,1.7-8.7c-0.2-0.5-0.6-0.3-0.5-0.2c0.1,0.5,0.3,0.9,0.4,1.4c0.2-0.6,0.3-1.2,0.1-1.2c-2.7,1.5-0.8,3.8-2.4,4.8
		c-0.8,0.5-1.1,1.8-2.4,2.5c-3.5,2-7.5,3.1-10.6,5.8c-0.8,0.7-2.3,0.9-3.5,1c-1.8,0.2-3.6,0-5.5,0c0-1,0-1.8,0-2.8
		c0.4-0.1,0.9-0.3,1.3-0.2c1,0.2,2.5,1.2,3,0.8c1.7-1.4,3.8-1.4,5.5-2.4c0.7-0.4,1.7-1.1,1.7-1.7c0-2.9,2.5-3.1,4.2-4.2
		c1.6-1,3.1-2.2,4.5-3.5c1.6-1.4,3.1-3,4.6-4.6c-2.4-1.9,2.4-2.4,0.5-4.5c-0.6,0.6-1.4,1.1-1.8,1.8c-1.3,3-4.1,4.1-6.6,5.6
		c-0.7,0.4-1.5,0.6-2,1.1c-2.6,2.9-6.3,2.5-9.9,3.8c-0.1-1.2-0.2-2.1-0.2-2.7c3.3-1.3,6.5-2.1,9.3-3.7c2.5-1.4,4.6-3.4,6.7-5.4
		c1.9-1.9,2.6-4.9,5.6-5.6c0.4-1.6,2.3-2.8,0.9-5c-2,2.3-3.9,4.6-5.9,6.9c-3.3-0.1-4.7,3.7-8,3.2c-0.4-0.4-1.3-1.3-2-2
		c3.9-1.7,8.7-3.7,11.4-7.9c1.9-2.9,5.7-4.8,6-9.3c-3.6,2.7-7,5-10,7.6c-1.6,1.4-3,1.7-4.8,1.3c0-3,0-3,2.3-3.8
		c0.7-0.3,1.5-0.6,2-1.1c3.8-3.4,7.5-6.8,11.3-10.2c1.1-0.9,2.3-1.7,3.4-2.5c1.8,0.6,2.4,2.3,1.5,3.3c-1.3,1.5-0.1,2.2,0.1,3.3
		c0.9,5,3.3,9.4,6.1,13.5c1,1.4,2.4,2.4,4.1,3.9c-0.3,0.6-0.8,1.8-1.5,3.5c-2.9-3.4-5.4-6.3-7.8-9.4c-1-1.2-1.8-2.5-1.9-4.2
		c-0.1-1.6-1.1-1.3-2.1-0.3c1.9,3.3,3.4,6.9,6.1,9.9c2.1,2.3,3.9,4.7,6.1,6.9c1.1,1.1,1.4,2.1,0.3,3.7c-6.3-2.9-8.5-9.5-12.9-14.4
		c-1.4,5.2-0.1,9,4.6,11.3c-0.4,0.8-1.1,1.5-0.9,1.9c0.5,1,1.1,2.2,2,2.9c1.6,1.2,3.5,2,5.2,3.1c0.8,0.5,1.4,1.5,2.4,2.7
		c-3.2,0.6-4.7-1.3-6.6-2c-2.4-0.9-3.7-2.7-5.1-4.4c-1.3-1.6-2.2-3.6-3.8-6.3c0,2.5,0,3.9,0,5.2c2,2.4,3.9,4.8,5.8,7.2
		c0.6,0.7,3.4,2.8,4.5,3.5c1.6,1,3.1,2.2,4.2,2.9c-0.4,0.9-0.8,1.6-1.3,2.7c-1.2-1.1-2-1.9-2.8-2.6c-0.5,0.5-1,1-1.7,1.7
		c2.7,2,5.3,4,7.9,6c-2.4,1.9-3.1,1.9-5.5,0.1c-0.4-0.3-0.8-0.5-1.2-0.7c-0.3-0.3-0.7-0.7-1-1s-0.7-0.7-1-1s-0.7-0.7-1-1
		s-0.7-0.7-1-1s-0.7-0.7-1-1c-0.9-1.1-1.9-2.2-2.8-3.3c-1.5-1.9-2-4.1-2.2-6.7c0.8,0.4,1.3,0.6,1.8,0.9c1.1-2.5-2-1.5-2.3-3.4
		c-0.7,2.4-0.8,4.5-1.8,6.2c-1.7,2.7-0.2,4.6,1.1,6.5c1.4,2,3,3.8,4.6,5.6c1.5,1.8,3.5,2.9,5,4.8c1,1.4,3.1,2,4.9,3.2
		c-0.5,0.7-1,1.5-1.6,2.3c-3.8-0.9-6.3-3.7-8.2-6.5c-2-2.9-5.1-4.6-7.1-8.3c0,2.6,0,4.5,0,6.4c2.8,2,6.5,3.1,8,7
		c0.2,0.7,1.5,1.2,2.4,1.3c2.1,0.4,2.5,1.7,2.4,3.5c-2.8,2.3-3.6-2.1-5.8-1.8c-1.3-3.4-4.6-5-6.9-8c-0.5,1.8-0.9,3.3-1.3,4.8
		c2,1.4-0.6,2.6-0.1,4.2c0.6,1.8,0.3,4,0.1,6c-0.3,3.3-0.9,6.5-1.7,9.8c-0.4,1.4-0.1,2.9-0.1,4.7c4.9-1.1,10-1,14.8-3.7
		c0-0.4,0.1-1.2,0.1-2c0.3-0.1,0.5-0.4,0.8-0.4c3.3,0,5.4-2,6-5c0.6-2.9,2.3-5,3.3-7.6c0.9-2.4,1.8-4.9,3.7-7c1.3-1.5,1.5-4,2.3-6
		c1.6-4.5,4.7-8.4,4.9-13.5c0-0.7,0.5-1.5,1-2.1c2.1-3,3.7-6.1,4-9.8c0-0.5,0.7-1,1-1.6c0.6-0.9,1.8-1.9,1.7-2.7
		c-0.4-2.6,1.5-4.1,2.3-6.1c0.8-2,2.1-3.8,2.7-5.9c1.5-5.2,4.7-9.7,5.6-15.2c0.7-4.1,3.1-8,4.9-11.9c1.8-3.9,3.2-8,4.8-12
		c1-2.4,2.6-4.5,3.1-7.2c0.7-3.8,1.5-7.7,3-11.2c2.4-5.6,2.8-11.5,4-17.3c0.8-3.7,0.1-7.5,1-11.1c0.9-3.6,1-7.1,0.8-10.6
		c-0.4-7.9-1.6-15.6-4.4-23.1c-1.8-4.9-4.6-9.4-5.9-14.6c-1.2-5.2-4.1-10-4.7-15.5c-0.2-1.3-1.5-2.4-1.9-3.7
		c-0.9-3.2-2.9-6.1-2.1-9.7c0.1-0.3,0.1-0.7-0.1-1c-3.4-7.3-1.8-14.9-1.4-22.5c0.1-1.1-0.5-2.3-0.5-3.4c-0.1-4,0.1-8-0.1-12
		c-0.1-2,1-4.3-0.9-6.1c-0.2-0.2,0.1-1,0.3-1.3c1.2-1.3,0.7-2.9,0.5-4.2c-0.1-1.2-1.7-2.7-0.7-3.4c1.4-1-1.2-2.5,0.7-3
		c0-3.2-0.1-6.3,0.1-9.5c0.1-1.9-0.9-3.9,0.9-5.7c0.3-0.3-0.7-1.6-0.9-2.5c-0.1-0.6,0.4-1.2,0.4-1.9c0.1-1,0.2-2.2-0.2-3.1
		c-0.6-1.4-0.4-2.4,0.6-3.5c0.3-0.4-0.5-1.5-0.5-2.3c0.1-1.8-0.1-3.7,0.7-5.2c0.6-1.3,0.2-2.6,0.7-3.9c0.7-1.6,0.2-3.6,0.2-5.8
		c1.2-0.1,2.4-0.2,4-0.3c0,1.5,0,2.8,0,4.1c0,1.5,0.6,3.7-0.1,4.3c-1.3,1.1,0.7,2.4-0.7,3c-0.1,0-0.2,0.3-0.2,0.4
		c-0.3,4.4-0.7,8.7-1,13.1c-0.1,1.3,0.5,2.7-0.9,3.6c1.5,1.1,0.9,2.7,0.9,4.1c0.1,1.3,0.1,2.7,0,4c-0.2,2,0.8,4.2-0.9,6.2
		c-0.4,0.4,1,2.3,0.7,2.9c-0.9,1.2-1,1.9,0.1,2.9c0.3,0.3,0.2,1.3,0.1,1.9c-0.2,1.2-1,2.7-0.5,3.4c1,1.5,0.4,2.9,0.5,4.3
		c0.1,1.3,0,2.7,0,4c0,1.7,0.2,3.4-0.1,5c-0.2,1.3,1.5,2.4,0.2,3.6c1.6,1.1-0.8,2-0.2,3.2c0.5,1.1,0.9,2.4,1,3.6
		c0.2,1.6-1.4,2.8-1,4.6c0.4,1.8-0.7,3.9,0.9,5.5c-2.4,1.6,0.6,3,0.2,4.7c-0.5,1.9-0.6,4.1,0,5.9c1.8,5.9,3.2,11.9,5.4,17.8
		c2.6,6.9,5.3,13.8,7.7,20.8c1.2,3.5,2.3,7.2,4,10.3c1.8,3.2,1,6.9,2.8,9.9c-0.1,6.4,2.1,12.7,0.9,19.1c-0.8,3.9-0.2,7.8-1,11.6
		c-1.1,5.3-1.9,10.7-3.6,15.9c-1,3.2-2.1,6.5-2.9,9.8c-0.7,2.9-1.1,5.8-2.2,8.6c-1.4,3.5-3,6.8-4.5,10.2c-1,2.3-1.5,5-2.6,7.4
		c-2,4-3.9,8-5.3,12.3c-0.1,0.3-0.7,0.6-0.7,0.7c1.2,3.2-1.4,5.5-2.4,8.1c-0.9,2.5-2.1,5.1-3.5,7.5c-2.1,3.7-3.5,7.9-5.1,11.9
		c-0.5,1.3-0.9,2.6-1.4,3.9c-0.6,1.6-2,2.9-1.7,4.8c0.1,0.4-0.2,0.9-0.4,1.3c-2.3,3.7-3.6,7.8-5.1,11.9c-1.4,4-3,8-5.3,11.8
		c-3.4,5.5-5.5,11.7-7.2,18c-0.1,0.5-0.5,1.1-1,1.3c-3.5,1.3-7.2,1.9-10.1,4.6c-3.2-0.1-5.7,2.8-9,2.4c-1.7-0.2-3.1,0.7-4.5,1.2
		c-0.7,0.3-1.3,1.5-1.4,2.3c-0.2,2.2-0.1,4.4-0.9,6.6c-0.5,1.4-0.8,3.5,0.6,5.2c0.9,1.1,0.3,2.6-0.9,3.3c-1.3,0.8-2.4,0.3-3.4-0.8
		c-0.8-0.9-2.1-1.9-1.3-2.9c1.3-1.8-0.3-2.7-0.2-4.8c-0.9,2.1-1.5,3.5-2.3,5.4c-1.3-1-2.2-1.7-3.1-2.4c-0.1,0.1-0.5,0.3-0.5,0.5
		c0,1.3,0,2.6,0,3.9c-0.9,0.5-1.8,0.9-2.5,1.3c-1.4-0.7-3-1.5-4.9-2.5c0.5-0.9,0.7-2.5,1.4-2.8c3.5-1.2,3.6-4.4,4.9-7
		c0.2-0.4,0.1-1,0.3-1.4c2.8-3.7,2.8-8.5,4.7-12.6c0.4-1,0.4-2.4,1.1-3c1.2-0.9,0-1.8,0.3-2.6c0.9-2.1,2.2-4.3,2.4-6.5
		C272.2,375.7,273.7,371.7,274,367.4z M270.9,395.4c2.9,0.3,2-1.4,1.8-3.3c-0.7,1.3-1.2,2.3-1.7,3.7
		C271,395.7,271,395.5,270.9,395.4c-0.2,0.1-0.5,0.2-0.7,0.3c-0.1,0,0.1,0.4,0.2,0.6C270.6,396.1,270.8,396,270.9,395.4z
		 M270.1,400.8c-2.6,2-3.5,4.5-2.8,8.3c0.8-1.5,1.4-2.2,1.6-3.1c0.2-0.9-0.1-2,0.1-3C269.2,402.3,269.7,401.5,270.1,400.8z
		 M272.8,391.4c0.1-0.5,0.2-1,0.2-1.4c0-0.1-0.4-0.3-0.6-0.4c-0.1,0.4-0.3,0.9-0.3,1.3C272,391,272.4,391.1,272.8,391.4z M275.9,357
		c-0.1-0.2-0.2-0.4-0.4-0.6c-0.1,0.1-0.3,0.2-0.3,0.3c0.1,0.2,0.2,0.4,0.3,0.7C275.6,357.3,275.7,357.2,275.9,357z M288.5,352.4
		c-0.1,0.1-0.3,0.2-0.3,0.3c0.1,0.2,0.2,0.4,0.3,0.7c0.1-0.1,0.3-0.2,0.3-0.3C288.8,352.8,288.6,352.6,288.5,352.4z M271.4,400.5
		c-0.1,0.1-0.2,0.2-0.4,0.4c0.2,0.1,0.4,0.3,0.7,0.3c0.1,0,0.2-0.2,0.3-0.3C271.8,400.8,271.6,400.6,271.4,400.5z"/>
	<path class="st0" d="M217,637.9c0.7,0.3,1.4,0.7,2.3,1.1c-1,2.6-3.6,3.8-4.4,5c-1.1,3.6-1.4,6.4-2.9,8.5c-2.4,3.4-2.7,7.6-4.9,11
		c-1.2,2-2.2,4.1-2.1,6.7c0.1,2-1.4,3.8-2.1,5.6c-1.2,2.8-2.4,5.7-3.2,8.7c-1,3.4-3.2,6.3-4,9.9c-1.3,6-3.8,11.6-3.8,18
		c0,3.1-0.9,6.3-0.9,9.6c0,0.4-0.6,0.7-0.8,1c2.2,2.6,4.6,5.1,6.5,7.9c0.8,1.2,2,2.7,1.3,4.4c-0.4,0.9-1.1,1.7-1.6,2.4
		c-3.6-0.8-2.8-4.5-5.1-6.4c-0.1,1-0.4,1.8-0.2,2.5c0.4,1.1,1.6,1.9,0.1,3.3c-0.4,0.4,0.9,2.3,0.7,3.4c-0.6,4,0.6,7.8,1.3,11.6
		c0.7,3.9,0.8,8.1,2.6,11.9c0.7,1.5,0,3.7,0.5,5.3c0.7,1.8,0.6,3-0.1,4.9c-0.5,1.4,0.7,3.5,1.2,5.3c0.1,0.4,0.6,0.8,0.6,1.2
		c-0.1,1.3-0.6,2.7-0.4,3.9c0.3,1.5,0.4,2.6-0.1,4.1c-0.4,1.1,0.4,2.6,0.4,3.9c0.1,4.5,0,9,0,13.8c1.2,0.1,2.5,0.3,3.7,0.4
		c0.1,3.3,0.1,3.3-3.2,3.9c-1.1,3.7-1.6,7.4-1.5,11.3c0.1,2.2-0.7,4.4-0.9,6.6c-0.2,2.1,0.5,4.2-1,6.1c-0.2,7.5-3.2,14.3-5,21.4
		c-0.3,1.3-1.2,2.5-1.7,3.8c-1.8,5.3-5.4,9.7-6.5,15.3c-0.4,2.1-2.5,3.9-3.7,5.9c-1.1,1.7-2.2,3.4-3,5.3c-0.8,1.8-2,3.2-2.9,4.8
		c-1.5,2.7-4,4.5-5.5,7.2c-1.1,1.9-3.1,3.4-4.1,5.3c-0.8,1.6-2.1,1.9-3.4,2.9c-0.7-1.6-1.8-3.1-2.1-4.7c-0.5-2.8-1.9-4.9-3.3-7.1
		c-0.7-1-0.8-2.3-1.5-3.4c-2.7-4.4-5.4-8.8-8.1-13.1c-0.7-1.1-1.3-2.1-2.1-3.1c-1.6-2-1.4-3.4,1.1-5.8c3,2.5,5.1,5.5,7,8.9
		c1.1,1.9,2.9,3.6,3.4,5.6c0.5,2.3,2.2,3.5,3.3,5.2c1.5,2.4,2.5,5.2,4.1,8.5c0.8-1.4,1.1-2.2,1.6-2.8c0.8-1.1,1.6-2.4,2.7-3
		c1.3-0.7,1.4-2,2.2-2.9c4-4.5,6.2-10.1,9.2-15.2c0.8-1.4,0.5-2.3-0.5-3.5c-0.6-0.8-2.5-0.1-2.2-2c0.1-0.4-1.5-1.1-2.5-1.8
		c4.5-1.9,4.5-1.9,8,0.4c3-5.1,4.5-10.7,6.6-16.1c0.8-2.2,1.4-4.4,2-6.7c1-3.5,1.9-7,2.1-10.7c0.1-1.9,0.6-3.7,1-5.6
		c0.3-1.9-0.3-3.7,0.8-5.7c0.9-1.8-0.1-4.4,1.1-6.5c0.2-0.4-0.1-1.2-0.4-1.8c-0.8-1.4-1.7-2.6-2.7-4.3c0.8-0.7,1.7-1.5,3.2-2.7
		c0-4.5,0.1-9.8,0-15.1c0-1.5-0.6-3-0.8-4.5c2.4-1.5-0.6-2.7-0.2-4.2c0.4-1.6,0.5-3.4,0-5c-1.2-3.8-0.8-7.7-1-11.6
		c-0.1-1.4-1.1-2.9-0.8-4c0.3-1.2-2-1.6-0.4-2.9c1.1-0.9-0.7-1.6-0.7-2.4c0.2-3.6-1.5-6.9-1.1-10.6c0.4-3.4-1.6-6.6-0.9-10.1
		c-1.8-1.1,0.4-2.1,0-3.2c-0.4-1.2-0.9-2.4-1-3.6c-0.2-2.2,0.4-4.5-1.8-6.3c-0.6-0.5-0.8-2.7,1.8-2.6c-0.5-3.6,0.9-6.9,1.2-10.4
		c0.5-6.5,1.7-13.2,4.3-19.2c2.6-6,4.8-12,6.6-18.3c0.1-0.4,0.4-0.8,0.7-1.2c2.3-4.4,3.3-9.3,5.3-13.8c1.2-2.7,2-5.5,3.4-8.1
		c0.8-1.6,2.3-3.5,1.4-5.8c-2.5-0.7-5.6,3.2-7.8-0.8c0.4-2.9,3.1-1.6,4.4-2.5c1.8-1.3,3.5-0.3,5-0.9c2.4-5.4,4.9-10.7,7.2-16.1
		c1.7-4,2.6-8.2,4.4-12.2c2.8-6.3,4.3-13.2,7.3-19.5c1.7-3.5,3.8-6.8,3.8-11c0-0.7,0.7-1.4,0.9-2.1c2-5,4-10,6-15
		c0.7-1.9,1.3-3.8,2-5.7c1.1-2.6,2-5.2,2.3-8.1c0.3-2.8,2.1-5.5,2.6-8.4c0.5-2.8,2.5-5.2,2.1-8.2c2.1-2.5,2-5.8,3.2-8.7
		c0.8-1.8,1.2-3.8,1.8-5.8c0.5-1.8,0.7-3.7,1.5-5.4c2.9-5.9,5.2-11.9,6.7-18.3c0.6-2.6,2-5.2,2.9-7.8c1.1-3.3,2.7-6.5,3.9-9.9
		c0.9-2.6,2.1-5.2,2.1-8.2c0-0.9,0-2,0.4-2.8c0.5-1.1,1.4-2.1,2.1-3.1c1.7,1.8,3.4-1.3,5.3,0.5c0.3,0.6,0.7,1.6,1.1,2.4
		c-1,1.9-2.5,3.6-2.8,5.5c-0.4,2.1-3.3,3.1-2.1,5.6c-2.6,3.8-2.5,8.5-4.8,12.5c-1.8,3.1-2.8,6.8-3.8,10.4c-1.6,5.5-4.6,10.5-5.9,16
		c-0.8,3.3-2.8,6.3-2.6,10c0,1-1.6,2-1.8,3.2c-0.8,3.3-1.7,6.7-3.2,9.7c-1.3,2.7-0.6,5.8-2.5,8.5c-1.5,2.1-1.6,5.3-2.4,7.9
		c-2.9,9.3-6.2,18.4-10,27.3c-1.9,4.4-3.3,9-5,13.4c-1.1,2.9-1.8,6-3.3,8.6c-2.2,3.8-3,8.1-4.6,12.1c-1.6,4.2-3.3,8.3-4.9,12.5
		C219.2,632.4,218.1,635.1,217,637.9z"/>
	<path class="st0" d="M393.8,325.2c-5.1-3.4-11-4.1-16.6-5.9c-5.8-1.8-11.8-2.4-17.9-3.3c0,0-0.2-0.3-0.3-0.5c-0.4-2,0-3.6,1-5.8
		c3.6-7.8,6.8-15.8,10.5-23.6c1.2-2.4,1.7-5.3,2.3-8c0.4-1.9,1.1-3.5,1.9-5.2c1.3-2.6,2.6-5.4,2.2-8.6c-0.2-1.5,0.3-2.8,1-4.1
		c0.4-0.8,1.1-1.8,1-2.6c-0.3-2.2,0.6-4.1,1.1-6.1c1.6-6.5,2.4-13,2-19.7c-0.1-2.2-0.8-4.4-0.9-6.6c-0.2-2.3,0.5-4.8-0.2-7
		c-0.9-3-1.8-6-2.3-9c-0.7-5-3.4-9.4-3.6-14.5c0-0.5-0.1-1-0.3-1.3c-3.2-4.5-3.4-10.3-6.6-14.8c-1-1.4-1-3.6-1.6-6.3
		c-0.4-0.5-1.8-1.6-2.4-3c-0.7-1.9-0.7-4-1.1-6c-0.7-4-1-8.1-2.4-12c-0.7-2-1.3-4.2-1.5-6.3c-0.5-4.7-0.5-9.4-1.1-14.1
		c-0.7-5-0.8-10.1-2.7-14.9c-0.2-0.4-0.2-0.9-0.3-1.4c-0.3-6.4-0.8-12.7-1-19.1c-0.1-2-0.7-4.2,0.9-6.1c0.3-0.4,0.2-1.3,0-2
		c-2-6.3-0.5-12.7-1-19.1c-0.1-1,0.3-1.8,0.9-2.7c0.4-0.7-0.2-2-0.4-3.2c1.5,0,3.4,0,5.6,0c-0.4,2.2,0.8,4.5-1.1,6.5
		c0.5,5.2-1,10.5,0.8,15.7c0.2,0.7-1,2-0.7,2.4c1.6,2.2-0.4,4.1-0.1,6.2c0.3,2.1-0.1,4.3,0.1,6.5c0.2,2.7,0.8,5.4,0.9,8.1
		c0.2,2.7-0.2,5.4,0.1,8c0.3,2.8,1,5.6,2,8.1c1,2.4,1,4.7,0.9,7.1c-0.1,5.5,0.2,10.9,2,16.2c-0.6,6.2,3.1,11.6,3,17.7
		c1.7,2.3,1.8,5.2,2.9,7.8c2.7,6,5.6,12,7.1,18.6c0.1,0.3,0.2,0.6,0.4,0.8c2.2,2.8,2.9,6.1,3.7,9.5c0.3,1,1,1.9,0.9,3.1
		c-0.5,4.1,1,7.9,2.2,11.6c0.4,1.4,0.7,2.7,0.9,4.1c0.1,1.4-0.7,3,0.9,4.1c-1.7,1.3-0.5,2.4,0.1,3.6c-1.6,1.4,0.3,2.7,0.1,4.2
		c-0.3,1.8-0.1,3.7-0.1,5.5c0,1.7,0.3,3.4-0.1,5c-0.9,3.2-0.7,6.5-1.9,9.7c-1,2.6-1.4,5.4-2.1,8.1c-0.4,1.7-0.4,3.5-1.2,5
		c-0.4,0.9-0.9,1.6-0.8,2.7c0.2,2.8-0.8,5.2-2,7.7c-0.6,1.2-0.8,2.6-1.3,3.9c-0.5,1.3-1.9,2.9-1.5,3.7c0.7,1.6-2.1,2.5-0.4,3.8
		c0.1,0,0.1,0.3,0,0.3c-4.6,5-4.6,12.2-8.5,17.5c-0.8,1.1-0.1,2.4-1.2,3.6c-1.1,1.2,0.5,3.4,2.3,3.2c4.9-0.3,9.2,1.8,13.6,3.5
		c2,0.8,4.2,1.1,6.4,1.5c1.8,0.4,3.7,0.6,5.6,1c2,0.4,2.7,2.3,1.4,4.1c-0.4,0.5-1,0.9-1.4,1.4C393.8,324.3,393.9,324.8,393.8,325.2z
		"/>
	<path class="st0" d="M400.8,1245.3c-3.5,0.5-6-0.1-7.2-3.6c-0.4-1.2-1.5-2.8-2.5-3.1c-1.7-0.5-1.4-2-2.2-2.9
		c-2.5-2.7-4.6-5.7-7-8.6c-0.6-0.7-1.6-0.9-2.2-1.5c-2.2-2.1-4.7-3.9-6.2-6.4c-1.3-2.1-3.9-2.9-4.6-5.4c-2.5-0.7-3.1-3.5-5.4-4.7
		c-3.6-1.9-6.7-4.9-10-7.5c-1.2,2.4-2,5.2-1.4,8c0.9,4.2,1.4,8.4,2,12.7c0.2,1.2,0.8,2.5,1.7,3.2c1.8,1.5,1.7,3.6,1.1,5
		c-1.2,2.4,0,5.1-1,7.1c-1.2,2.5-0.6,4.8-0.8,7.2c-0.2,2.5-0.1,5,0,7.5c0,0.8,0.5,1.5,0.5,2.3c0.1,1.2,0.5,2.7,0,3.7
		c-0.8,1.6-0.7,2.8,0,4.5c0.5,1.3,0.1,3.1,0,4.7c0,0.6-0.5,1.2-0.5,1.8c-0.9,10.2-2.6,17.4-6.5,28.3c-1.5,4.2-3,8.4-4.5,12.6
		c-0.2,0.6-0.5,1.1-0.8,1.7c-3,5.4-5.4,11.1-8.2,16.6c1.2,2.2-2,1.8-2.1,3.6c-0.1,1.4-1,2.9-2,4.1c-3.5,4.5-6.6,9.4-10.5,13.7
		c-2.3,2.4-4.6,5.1-5.9,8c-1,2.2-2.5,4.2-3.1,6.7c-0.5,2.4-1.8,4.6-2.7,6.7c-1.2-0.3-2.3-0.6-3.6-1c0-0.4-0.3-0.9-0.1-1.3
		c1.5-3.6,3-7.1,4.4-10.7c2.1-5.1,5.7-8.7,9-12.8c3.5-4.3,6.9-8.8,10.3-13.2c0.1-2.6,2.1-4.1,3.2-6.2c1.1-2.1,2.1-4.1,3.2-6.2
		c1-1.9,2.1-3.8,2.8-5.8c2.6-7.9,6.7-15.3,8.2-23.6c0.7-3.8,2.3-7.4,3.5-11c0.2-0.6,0.4-1.2,0.4-1.8c0.4-5,0.8-10,1-15.1
		c0.2-5.2,0.3-10.3,0-15.5c-0.4-5,1.1-9.7,1.1-14.6c0-0.7,0.7-1.4,0.9-1.9c-1.5-1.5-2.9-2.8-3.9-3.8c-0.1-3.2,0-5.5-0.9-7.9
		c-0.8-2.2,0.8-4.9-1.1-7.1c-0.1-0.1,0-0.3,0-0.5c0.1-1.9-0.3-4.3,0.6-5.7c1.2-1.8-2-3,0.2-4.7c1.1-0.9,0.8-3.5,1.2-5.2
		c2.7-0.5,4.6-0.1,6.6,1.6c2.2,2,5,3.3,7.2,5.4c1.4,1.3,3,2.4,4.5,3.5c1.4,1,2,3.1,4.2,3.2c0.3,0,0.6,0.4,0.7,0.7
		c1.1,3.4,4.6,4.3,6.7,6.6c3.7,4.1,8,7.9,11.2,12.4C393.7,1234.3,398.2,1239,400.8,1245.3z"/>
	<path class="st0" d="M243.3,1194.9c-1.5-0.1-3.2-0.9-1.9-2.2c1.5-1.6-0.4-2.3-0.4-3.8c3.1-2,5.3-5.2,8.1-8.2c-1-0.6-1.9-1.2-3-1.9
		c-0.6-1.8,0.8-4.3-1-6.3c-0.2-0.2,0.7-1.3,1-2c1,0.3,1.9,0.5,3.2,0.8c-3.2-6.2-3.2-6.5,0.3-10c0.6,0.6,1.2,1.2,1.9,1.9
		c0.8-1.6,1.6-3.1,2.6-5c-2.4,0.1-4.6,2-7.3,0.4c0.5-0.5,0.8-1.2,1.3-1.4c1-0.5,2-0.8,3.1-1c3.1-0.5,5.1-2,5.9-5.2
		c0.8-3,1.9-5.9,3.6-8.8c0.4,1.3,0.9,2.6,1.3,4.2c0,0.1,0-0.1,0-0.2c-0.3,0.1-0.5,0.1-0.8,0.3c-0.1,0,0.1,0.4,0.2,0.6
		c0.2-0.2,0.4-0.3,0.6-0.7c0.3-0.5,1-0.8,1-1c-0.3-2,0.6-3.6,1.6-5.2c0.9,1.7,1.6,3.3,1.5,5.4c-0.1,1.7,0.5,3.4,0.9,5
		c0.9,3.4,1.2,7,3.1,10.1c1.6,2.5,1.7,2.5,1.4,4.6c-0.9-0.4-1.7-0.8-2.7-1.2c-0.1,0,0.1,0,0.2,0c-0.1-0.3-0.1-0.5-0.3-0.8
		c0-0.1-0.4,0.1-0.6,0.2c0.2,0.2,0.3,0.4,0.7,0.6c-0.6,4.7-0.2,9.6-1.9,14.1c-0.7,1.8,0.6,2.8,0.2,4.2c-0.3,1,0.8,2.9-1.6,2.8
		c-0.8,1.5-1.7,3-2.4,4.5c-0.1,0.3-0.2,0.8,0,1c2.4,3.1,0.3,5.3-1.7,7.8c-0.3-1.3-0.4-2.3-0.6-3.3c-0.2,0-0.3,0-0.5,0
		c0,1.6,0,3.1,0,4.9c0.8,0.4,1.7,0.7,2.4,1.2c1.1,0.7,1.7,3.3,1.3,3.3c-1.5-0.2-2.1,2.5-3.8,1.2c-2.7-2.1-4.3,0.9-6.3,1.5
		c-1.3,0.4-1.9,2.3-1.8,3.9c0,2.7-0.1,5.3,0.1,8c0.1,1.2,0.6,2.4,1,3.7c-1.5,0-3,0-4.7,0c-0.4-1-0.8-2.3-1.5-3.5
		c-1.2-1.9-0.9-3.4,0.4-5.2c1.2-1.6,1.6-3.6,2.5-5.7c-0.6-1-1.4-2.2-2.4-3.7c-1.6,1-2.3,3.2-4.7,3.2c-1.2-1.1,0-4-2.9-4.1
		c-1-0.1-1-3,0.3-4.2C241.3,1198.7,242.2,1197.1,243.3,1194.9c0.1-0.3-0.1-0.1-0.3,0c0.1,0.1,0.3,0.3,0.4,0.4
		c0.2-0.2,0.3-0.4,0.4-0.6C243.9,1194.8,243.7,1194.6,243.3,1194.9z M247,1187.4c0.3-0.3,0.7-0.7,1-1c0.9,0,1.8,0,2.6,0
		c1.1,1.7-0.1,2.8-0.6,4c-0.3,0.3-0.7,0.7-0.6,1.2c-1.5,0.3-2.8,0.8-2,3.1c0.8-1.3,1.4-2.2,1.6-3.3c0.3-0.3,0.7-0.7,1-1
		c2.1,0.2,0.2,2.4,1.5,3c2-3.6,0.9-6.8-1.1-10.1c-0.8,1.1-1.6,2.1-2.4,3.1c-0.3,0.3-0.7,0.7-1,1.4C247,1187.7,247,1187.5,247,1187.4
		c-0.3,0.1-0.5,0.1-0.8,0.3c-0.1,0,0.1,0.4,0.2,0.6C246.6,1188.1,246.8,1188,247,1187.4z M264.9,1163c-0.2-0.2-0.3-0.4-0.5-0.6
		c-0.1,0.1-0.3,0.3-0.4,0.4c0.2,0.2,0.4,0.3,0.6,0.4c0,0,0.2-0.2-0.6-0.7c0-1.3,0-2.5,0-3.6c0-1.1-0.1-2.3-0.2-3.4
		C264,1157.8,259.7,1160.2,264.9,1163z M258.6,1156.1c-1.6,1.2-1.4,1.3-2.6,4.6c-0.6,1.6-2,2.8-3,4.2c-0.4,0.7-0.6,1.5-1.4,3.2
		C259.1,1161,259.1,1161,258.6,1156.1z M255.6,1192c3.7,1.1,3.6-1.5,4.6-3c-1.1-0.5-2-1-3-1.5C256.7,1189,256.2,1190.4,255.6,1192z
		 M254.3,1176.2c0.2,0,0.4,0,0.5,0.1c0-1.2,0-2.5,0-3.9c-1.7,0.5-3.3,1-4.7,1.5c0.5,1,0.9,1.8,1.5,2.9c0.6-0.9,1.2-1.6,1.9-2.6
		C253.9,1175,254.1,1175.6,254.3,1176.2z M251.6,1198.3c-0.4-0.8-0.8-1.5-1.3-2.5c-1.9,1.5-3.3,2.5-1.6,4.9
		C249.9,1199.8,251,1198.9,251.6,1198.3z M256.6,1202.7c1.2-2.4-0.5-3.7-1-5.4c-0.5,0.5-1,0.9-1.5,1.4
		C254.8,1200,255.6,1201.2,256.6,1202.7z M262.2,1177.7c-0.9-1.4-1.9-2.8-2.9-4.3C258.3,1176.1,260.3,1177,262.2,1177.7z
		 M262.5,1165.2c-0.6,3.4-0.6,3.4,1.5,5C263.5,1168.5,263.1,1166.9,262.5,1165.2z M258.2,1184.6c2-2.2,2-2.2,0-4.5
		C258.2,1181.7,258.2,1183,258.2,1184.6z M245.6,1198.9c0.3-1.3,0.3-1.3-2.4-1.1C244.5,1198.4,245.2,1198.7,245.6,1198.9z
		 M254.2,1182.9c-0.3-0.8-0.4-1-0.5-1.3c-0.2,0.3-0.5,0.5-0.6,0.9c-0.1,0.2,0.2,0.5,0.3,0.8C253.7,1183.1,254,1182.9,254.2,1182.9z
		 M265.6,1153.2c0.1-0.1,0.2-0.2,0.4-0.4c-0.2-0.1-0.4-0.3-0.7-0.3c-0.1,0-0.2,0.2-0.3,0.3C265.2,1153,265.4,1153.1,265.6,1153.2z
		 M265.9,1176c-0.1-0.2-0.2-0.4-0.4-0.6c-0.1,0.1-0.3,0.2-0.3,0.3c0.1,0.2,0.2,0.4,0.3,0.7C265.6,1176.3,265.7,1176.2,265.9,1176z
		 M249.6,1202.5c-0.2,0.1-0.4,0.2-0.6,0.4c0.1,0.1,0.2,0.3,0.3,0.3c0.2-0.1,0.4-0.2,0.7-0.3C249.9,1202.8,249.8,1202.7,249.6,1202.5
		z M266.9,1157c-0.1-0.2-0.2-0.4-0.4-0.6c-0.1,0.1-0.3,0.2-0.3,0.3c0.1,0.2,0.2,0.4,0.3,0.7C266.6,1157.3,266.7,1157.2,266.9,1157z"
		/>
	<path class="st0" d="M404.3,1173.9c-0.5,0.5-0.6,0.4-0.8,0.5c-1.1,0.5-2.2,1.4-3.4,1.5c-1.3,0.2-2.7-0.3-4.1-0.5
		c-2.2-0.3-4.1,0-5.6,2c-0.2,0.2-0.9,0-1.4,0c-0.3-0.3-0.7-0.7-1-1c0.9-2.5,2.5-4.1,5.4-4.1c1,0,2-0.7,3.1-1.1
		c0.2,0.7,0.4,1.3,0.6,1.9c2.1-1.4,5.3,0.1,7.1-3.2c0.1-0.3-0.1-0.1-0.3,0c0.1,0.1,0.3,0.3,0.4,0.4c0.2-0.2,0.3-0.4,0.4-0.6
		c0,0-0.2-0.2-0.6,0.1c-1.1,0.5-2,0.4-2.8,0.5c-1.4,0.1-2.2-0.8-2.4-1.9c-0.2-1-0.4-1.7-0.9-2.6c-0.8-1.3,0.2-3.2,1.7-3.4
		c1.6-0.2,2.7-0.5,3.2-2.3c0.7-2.3,1.7-0.3,2.7,0.2c0-1.3,0-2.6,0-3.9c-0.8-0.1-1.6-0.2-2.8-0.3c0.1-1.2-0.2-2.6,0.4-3.6
		c0.6-1,1.9-1.7,2.7-2.4c-0.7-0.9-1.2-1.4-1.7-2c-0.3,0.8-0.5,1.3-0.8,2.3c-1.9-0.8-3.8-1.5-5.8-2.3c1.9-3,4.5-1.2,6.2-1.8
		c5.4-6.2,10.7-12.3,13.4-20.3c0.9,0.5,1.6,0.9,2.5,1.5c0-1.4,0-2.7,0-4.7c1.1,0.8,1.9,1.1,2,1.6c0.2,0.8,0.3,0.8,1.1,0.5
		c1.2-0.4,2.4,0.8,1.8,1.6c-1.4,2-0.7,4.1-0.9,6.1c2.1,1.2-0.1,4,2,5.2c-0.4,1.7,0.7,2.7,1.7,3.8c1.2,1.3,2.2,2.7,3.4,4.3
		c-0.7,0.5-1.3,1-2.1,1.6c0.8,1.4,1.6,2.7,2.4,4c0.5-0.5,0.9-0.8,1.2-1.1c0.3,2.8,0.3,2.8-2.4,4.2c-0.6,2.2-0.1,4.3,0.9,6.2
		c-0.9,0.4-1.5,0.7-2.2,1c0.1,0.5,0,0.9,0.2,1.1c1.2,1.7,3.1,2.7,4,4.8c0.5,1.1-0.1,1.5-0.1,2.3c-0.1,1.7-1.2,1.2-2.3,1.3
		c-0.1,0,0.1,0,0.2,0c-0.1-0.3-0.1-0.5-0.3-0.8c0-0.1-0.4,0.1-0.6,0.2c0.2,0.2,0.3,0.4,0.7,0.6c0.9,0.7,1.6,1.3,2.2,2.1
		c0.2,0.3,0,1,0,1.9c-2.5,0-4.9,0-7.3,0c-1.9,0-3.3-1-4.5-2.3c-1.6-1.6-3.3-3-6.2-2.6c0,1.1-0.2,2.3,0,3.4c0.3,1.8,0.6,3.9,3.3,3.5
		c1.1,2,3.5,0.1,4.8,1.6c0.1,0.1,0.6,0.2,0.7,0.1c2.3-3.1,4.8-1.4,7-0.3c0,0.9,0,1.7,0,2.7c-1.7-0.3-3.3-0.9-4.6,0.3
		c-1.2,1.1-2.2,0.3-3.4,0.2c-3.2-0.4-5.6-2.9-8.8-2.9c-0.8,0-1.7,0.6-2.3,0.4c-0.8-0.3-1.4-1.6-2.2-1.8c-0.7-0.2-1.7,0.6-2.9,1
		C405.7,1177.2,403.6,1176.7,404.3,1173.9c0.1-0.3-0.1-0.1-0.3,0c0.1,0.1,0.3,0.3,0.4,0.4c0.2-0.2,0.3-0.4,0.4-0.6
		C404.9,1173.7,404.7,1173.6,404.3,1173.9z M424.9,1172c-0.2-0.2-0.3-0.4-0.5-0.6c-0.1,0.1-0.3,0.3-0.4,0.4c0.2,0.2,0.4,0.3,0.6,0.4
		c0,0,0.2-0.2-0.6-0.9c-0.3-0.3-0.7-0.7-1.3-0.8c0.5-1.3,0.9-2.3,1.4-3.4c-0.7-0.8-2.1-1.8-1.9-2.5c0.4-2.8-1.8-4.2-3-6.2
		c0.3,1.8-0.8,3.5,0.7,5.4c0.9,1.2-0.1,2.6-1.9,3c1.6,1.1,2.5,3.1,5.1,3.5C423.3,1170.7,423.7,1171.1,424.9,1172z M427.9,1157
		c-0.2-0.2-0.3-0.4-0.5-0.6c-0.1,0.1-0.3,0.3-0.4,0.4c0.2,0.2,0.4,0.3,0.6,0.4c0,0,0.2-0.2-0.9-3.3c-0.4,0.7-0.7,1.1-0.6,1.2
		c0.2,0.4,0.6,0.8,1,1.2C426.9,1155.7,426.8,1155.1,427.9,1157z M423.9,1159c-0.2-0.2-0.3-0.4-0.5-0.6c-0.1,0.1-0.3,0.3-0.4,0.4
		c0.2,0.2,0.4,0.3,0.6,0.4c0,0,0.2-0.2-0.6-0.5c0.4-3.5-2-5.1-3.9-7C420.3,1153.9,420.4,1156.6,423.9,1159z M411.9,1161.4
		c-0.2,0-0.5,0-0.9,0c-0.3,0-0.6,0.2-0.8,0.3c-0.2,3.8-0.2,3.8,1.7,5.5c0-2,0-3.9-1.1-5.9c2.5,0.1,3.7,0.1,2.9-1.9
		C412.9,1160,412.2,1160.4,411.9,1161.4z M420,1142.2c-2.7,2.5-2.8,2.5-2.9,3.9c-0.2,3-2,4.7-4.3,6c-1.4,0.8-3.1,1.2-4.7,1.8
		c0.5,0.5,0.9,0.9,1.3,1.3c0.8-0.4,1.9-0.6,2.4-1.2c1.2-1.4,1.7,1.2,2.9,0.4c0.5-0.3,1.5,0.4,2.5,0.7c-0.4-2.3,0.6-4.1,1.5-6
		C419.4,1147.3,419.4,1145,420,1142.2z M413.4,1144.7c2.2-0.9,3.6-2.4,4.5-3.9c0.8-1.5,0.8-3.4,1.1-5.2c-1.4,1.4-2.3,2.9-3.2,4.4
		C415.1,1141.4,412.5,1142,413.4,1144.7z M423.8,1146.5c0.5-2.9,0.3-5.2-1.3-7.1c-2,2.1-0.8,4.4-0.2,6.7
		C422.3,1146.3,423.1,1146.3,423.8,1146.5z M429.4,1151.1c-1-2.1-1.9-3.9-3.3-6.6c-0.2,3.2,0.7,5,1.7,6.8
		C427.8,1151.5,428.4,1151.3,429.4,1151.1z M414.8,1162.5c-0.3,0-0.5,0.1-0.8,0.1c0,1.3-0.1,2.6,0.1,3.8c0,0.4,0.8,0.7,1.2,1
		c0.2-0.3,0.8-0.7,0.7-1C415.6,1165.1,415.2,1163.8,414.8,1162.5z M420.2,1139.4c0.2,0,0.3,0,0.5,0c0-1,0-2,0-3c-0.2,0-0.3,0-0.5,0
		C420.2,1137.4,420.2,1138.4,420.2,1139.4z M406.5,1171.4c-0.1,0.1-0.3,0.2-0.3,0.3c0.1,0.2,0.2,0.4,0.3,0.7
		c0.1-0.1,0.3-0.2,0.3-0.3C406.8,1171.8,406.6,1171.6,406.5,1171.4z"/>
	<path class="st0" d="M281.2,1159.2c-1.8,0.1-2.4-0.1-3-0.2c0.1-0.6,0.1-1.2,0.4-1.7c0.3-0.5,1-0.7,1.5-1c3.4-1.7,6.1-4,7.9-7.3
		c0.5-0.8,1.5-1.4,1.9-2.2c1-1.9,2.9-3.2,3.2-5.7c0.1-1.4,1.5-2.6,2.3-4c1.8,0.5,2.9,1.3,2.6,3.1c-0.7,4.4,2.1,8.2,2,12.6
		c2.2,1.4,0.1,4,1.6,5.9c0.6,0.8-1.2,1.8-2.8,1.6c-0.1-1.4,0.5-2.8-0.4-4.3c-0.7-1.1-0.2-2.9-0.5-4.2c-0.3-1.2-1-2.2-1.9-4.1
		c-0.1,5,1.1,8.8,2.8,12.6c1.4,2.1,2.7,4.3,4.1,6.6c-0.6,0.4-1.5,1.4-2,1.2c-0.7-0.2-1.7-1.2-1.7-1.9c0-1.4-0.7-2.1-1.5-2.9
		c-1.3-1.4-2.4-3.6-3-6.4c-0.4,1-0.6,1.7-0.9,2.2c-1,1.6-1.7,2.7,1,3.6c0.8,0.3,0.9,2.7,2.8,2.7c0.2,0,0.5,0.4,0.5,0.7
		c0.4,2,0.7,4,1.1,6.5c-1.5-0.5-2.6-0.9-3.6-1.3c-0.1,0.1-0.3,0.3-0.4,0.4c0.7,0.7,1.3,1.5,2.1,2.3c-0.2,1.3-1.6,2.4-0.2,4.2
		c1.9,2.3,1.7,2.7,4.9,3.3c0,1.1,0,2.2,0,3.6c-0.6,0-1.6,0.5-2,0.1c-1.7-1.2-3.5-2.2-4.9-5.1c-0.6-0.5-0.9-0.1-0.8,0
		c0.2,0.4,0.6,0.8,1,1.2c-0.1-0.7-0.2-1.3-0.2-1.2c0.3,2.3-0.3,3.5,0.9,4.4c2.8,2.2,3,5.4,3.5,8.7c0.8,0.1,1.5,0.1,2.5,0.2
		c0,1.2,0,2.4,0,3.9c-1.6-0.4-3-0.8-4.5-1.2c0.1-2.4-2.1-1.3-3-2.1c-1.1-1.1-1.9-2.5-2.9-3.8c-0.8-1.1-1.6-2.1-2.7-3.6
		c-1.1,2.4-0.7,4.4-0.6,6.2c0.1,1.6-1.5,3.1-0.1,4.7c-1.6,1.6-1,3.7-1,5.6c0,1.8,0.3,3.5,0.5,5.3c0.2,1.9,0.4,3.8,0.6,5.6
		c-3,1.2-3.8-0.6-4.6-2.9c-0.6,1-1.1,1.9-1.5,2.7c-2.4-2-4.2-3.7-2-6.4c-0.1-4.4,1-8.4,2.8-12.3c0.1-0.3,0.1-0.6,0.2-0.9
		c0.2-2.2,0.5-4.3,0.8-6.8c-3.2,2.7-6.2,5.3-10.7,3.8c0-0.8,0-1.5,0-2.3c2.2-0.5,4.4-1,6.7-1.5c0-1.2,0-2.4,0-3.7
		c-2.7,2.1-4.2,2.6-7.1,2.5c0.6-0.9,0.9-1.9,1.5-2.3c1.4-1,3-1.6,4.4-2.6c0.3-0.2,0.2-0.9,0.3-1.3c-0.4,0.1-0.8,0-1,0.2
		c-1.5,1.2-1.9-0.5-2.8-1c0.6-1.3,1.7-1.6,3.1-1.7c0.9,0,2.4,1,3.1-1.4c0.1-0.3-0.1-0.1-0.3,0c0.1,0.1,0.3,0.3,0.4,0.4
		c0.2-0.2,0.3-0.4,0.4-0.6c0,0-0.2-0.2-0.6,0.1c-0.9,0-1.6-0.4-2.2-0.8c2.4-2.3,4.7-4.5,7.5-7.9c-0.2-0.5-0.6-0.3-0.5-0.2
		c0.1,0.5,0.3,0.9,0.4,1.4c0.2-0.6,0.3-1.2,0.1-1.2c-1.6,1.1-2.5,1.3-3.1,2.3c-1.7,2.5-4,2.2-6.4,1.7c0-0.6-0.1-1,0-1.2
		c1.3-1.5,2.5-3.2,4-4.5c3.8-3.5,7.9-6.4,10.1-11.4c0.7-1.7,0.6-3,0.2-4.7c-1.1,1.5-2.3,2.9-3.2,4.5c-0.6,1.1-0.1,3.2-0.8,3.5
		c-3.2,1.7-5,5.5-9.4,6.2c0.3-0.9,0.4-1.6,0.7-2.2C279,1160.6,279.5,1160,281.2,1159.2c0.5-0.6,0.1-0.9,0-0.8
		c-0.4,0.2-0.8,0.6-1.2,1C280.7,1159.3,281.3,1159.2,281.2,1159.2z M294.9,1170c-0.2-0.2-0.3-0.4-0.5-0.6c-0.1,0.1-0.3,0.3-0.4,0.4
		c0.2,0.2,0.4,0.3,0.6,0.4c0,0,0.2-0.2-0.6-0.9c-0.3-0.3-0.7-0.7-1.3-3.4c-0.4,0.7-0.7,1.1-0.6,1.2c0.2,0.4,0.6,0.8,1,1.2
		c-0.1-0.7-0.2-1.3,0,0C293.3,1168.7,293.7,1169.1,294.9,1170z M287.3,1175.5c-1.8,0.8-3.1,1.8-1.4,4.4c0.6-1.8,1-3.1,1.7-5.5
		c-0.2,0.2-0.4,0.3-0.6,0.5c0.1,0.1,0.3,0.3,0.4,0.4c0.2-0.2,0.3-0.4,0.4-0.6C287.9,1174.7,287.7,1174.6,287.3,1175.5z
		 M291.3,1182.2c-0.7,0.5-1.5,1-2.5,1.6c2.9,2,3.7,5.9,7.9,7.7C294.6,1188,293,1185.2,291.3,1182.2z M291.9,1172.1
		c-0.2,0.2-0.4,0.4-0.6,0.6c0.4,1.2,0.7,2.5,1.2,3.9c0.5-0.7,1.4-1.5,1.3-1.8C293.3,1173.8,292.5,1173,291.9,1172.1z M288.2,1172.2
		c0.3,0,0.6,0,0.9-0.1c-0.1-0.9-0.2-1.8-0.4-2.6c-0.2,0-0.3,0-0.5,0C288.2,1170.4,288.2,1171.3,288.2,1172.2z"/>
	<path class="st0" d="M311.3,110.9c-1,0.7-2,0.7-2.4,1.2c-1.4,1.6-3.4,1.5-5.1,2.2c-0.7,0.3-1.9-0.7-3.3-1.2c1.7-1.1,2.8-2.3,4-2.6
		c3.9-0.7,6.7-2.9,8.2-6.4c0.8-1.9,1.7-3,3.8-2.8c0.3,0,0.7-0.6,1-0.9c0.7,2.5,1.8,4.8,1.5,7.4c-0.1,0.6,0.6,1.4,0.9,2.1
		c1.5,3.5,3.1,7,4.5,10.6c0.3,0.7,0.7,1.9,0.4,2.2c-2,1.8-0.3,3.5,0.3,5.3c-0.7,0.2-1.3,0.4-2,0.7c0.1,0.2,0,0.6,0.2,0.7
		c1.9,1.4-1.2,2.5-0.2,3.8c0.9,1.1,2.4,1.9,1.7,4c-1,0.4-2.3,0.8-3.4,1.5c-0.4,0.2-0.3,1.2-0.4,2c0,0.1,0-0.1,0-0.2
		c-0.3,0.1-0.5,0.1-0.8,0.3c-0.1,0,0.1,0.4,0.2,0.6c0.2-0.2,0.4-0.3,0.6-0.7c2.6,0,2.6,0,5.2,2.5c-3.6,0.7-6.7,0.2-9.7-1.6
		c-3-1.8-2.8-5.7-5.8-8.9c0.6,3.5-0.6,6.1,1.2,8.6c-1.6,0-3.2,0-5.1,0c0.3-1.3,0.5-2.4,0.8-3.5c-0.1,0-0.5-0.3-0.7-0.2
		c-1.6,0.9-3.2,1.9-4.7,2.8c-1.7-0.4-3.4-0.7-5.2-1.2c0.3-0.4,0.5-0.7,0.8-1.1c-1.7-0.7-3.3-1.4-5.8-2.4c1.5-0.8,2.2-1.2,2.9-1.6
		c-0.3-0.4-0.6-0.7-1-1.1c2.5-0.9,5.1-1.7,7.9-1.5c2.6,0.2,4.1-2.2,6-3.4c1.4-0.9,1-2.3,1.3-4c0.1-0.3-0.1-0.1-0.3,0
		c0.1,0.1,0.3,0.3,0.4,0.4c0.2-0.2,0.3-0.4,0.4-0.6c0,0-0.2-0.2-0.6,0.1c-0.8,0.5-1.6,0.3-1.7,0.5c-1.4,2.7-4.6,2.8-6.7,4.5
		c-1,0.8-3,0.4-4.7,0.6c0-1.2,0-2,0-2.7c1-1.6,2.1,1.4,3.2-0.2c0.6-0.8,1.8-1.2,2.7-1.8c2-1.2,4.1-2.3,6.1-3.5
		c1.7-1,3.4-2.1,2.8-4.9c-2.7,1.8-5.3,3.3-7.2,5.8c-3.6,0.1-3.6,0.1-5.5-1.2c0.7-2.4,2.8-1.4,4.5-1.8
		C304.7,116,309.2,115.1,311.3,110.9c0.1-0.3-0.1-0.1-0.3,0c0.1,0.1,0.3,0.3,0.4,0.4c0.2-0.2,0.3-0.4,0.4-0.6
		C311.9,110.8,311.7,110.6,311.3,110.9z M319,128.4c-0.3-0.3-0.7-0.7-1-1c0.3-1.6-0.4-2.3-2-2c-0.2-0.8,0.5-1.9-1-2
		c0-2.8,0-2.8,2.3-0.6c0.4-0.7,0.7-1.1,0.6-1.2c-0.2-0.4-0.6-0.8-1-1.2c0.1,0.7,0.2,1.3,0,0c-0.5-1.3-0.9-2.6-1.6-4.3
		c-0.8,1.7-1.8,3.1-2,4.6c-0.1,0.5,0,2.5,1.6,2.7c0.2,0.8-0.5,1.9,1,2c0.7,0.7,1.3,1.3,2,2c0.3,0.3,0.7,0.7,1.9,1.6
		c-0.2-0.2-0.3-0.4-0.5-0.6c-0.1,0.1-0.3,0.3-0.4,0.4c0.2,0.2,0.4,0.3,0.6,0.4C319.6,129.3,319.8,129.1,319,128.4z M315.6,109.4
		c0.1,0,0.3,0,0.4,0c-0.1-0.3-0.1-0.5-0.3-0.8c0-0.1-0.4,0.1-0.6,0.2c0.2,0.2,0.3,0.4,1.2,3c0.4-0.7,0.7-1.1,0.6-1.2
		c-0.2-0.4-0.6-0.8-1-1.2C316.1,110,316.2,110.7,315.6,109.4z M318.4,116.4c0.6-1.6,1-3.3-1.6-4c0.6,1.6,1.1,2.8,2.2,4
		c-0.1,2,0.1,3.8,2.9,5.6c-0.2-0.2-0.3-0.4-0.5-0.6c-0.1,0.1-0.3,0.3-0.4,0.4c0.2,0.2,0.4,0.3,0.6,0.4c0,0,0.2-0.2-0.6-0.9
		C321.1,119.4,320.9,117.6,318.4,116.4z M318.8,137.8c0-2,0-3.5,0-5c-2-2.2-4-4.4-6.5-7.1c-0.1,1.9-0.2,3.1-0.2,3.9
		C314.4,132.4,316.4,134.9,318.8,137.8z M298.7,137.2c3.9-0.2,7.7-2.3,9.3-5c0.1-0.1-0.3-0.5-0.5-1c-1,2.5-3.2,2.3-4.9,2.2
		C301.1,134.8,300.1,135.8,298.7,137.2z"/>
	<path class="st0" d="M277.3,449.4c-0.7-0.9-2-1.9-2.2-3c-0.3-1.5-2.9-0.6-2.2-2.5c-3-2.5-5.8-5.1-8.9-7.4c-1.5-1.1-2.7-2.1-3.4-3.8
		c-0.7-1.7-0.9-3.7-2.6-5c-0.4-0.3,0-1.5,0.1-2.9c2.3,3.3,4.6,5.5,7.6,6.9c0.3,0.1,0.5,0.5,0.7,0.7c2.7,2.6,5.3,5.3,8.4,7.5
		c1.6,1.1,2.7,3,4.2,4.7c2.5-0.7,2.2-2.7,2-4.7c-1.7-0.8-3.4-1.5-5-2.4c-2.5-1.3-2.5-2.2-0.5-4.8c1.9,1,3.8,1.9,6.1,3.1
		c1.2-3.2,2.4-6.3,3.5-9.4c0.5-1.3,0.8-2.7,1-4.1c0.3-2.4,0.2-2.4,2.8-4.9c0.7,1.1,1.7,2.1,1.9,3.3c0.2,1.4-0.3,3-0.7,4.4
		c-1.3,4.1-2.8,8.1-4.2,12.2c-0.3,0.9-0.7,1.8-0.6,2.7c0.1,1.7-0.5,3.1-1,4.6C282.4,449.3,282.5,449.4,277.3,449.4z"/>
	<path class="st0" d="M130.3,905.9c-0.4-1.7-0.8-3.5-1.3-5.8c4.6,2.1,9.5,1.6,13.8,4.1c-0.6-0.9-1.7-1.8-1.7-2.7
		c0-1.6-0.8-2.6-1.8-3.2c-1.6-0.9-1-2.6-1.7-3.8c-1.4-2.6-2.6-5.2-3.9-7.9c-1.4-2.9-0.9-3.6,2.7-4.2c2.7,2.7,3.3,6.6,5.5,9.7
		c2.1,2.8,3.4,6.2,5.1,9.3c0.5,0.8,1.1,1.6,1.8,2.2c0.9,0.8,1.2,1.8,1.2,3c0,3.2-0.4,3.4-3.7,3.8c-3.6,0.4-6.3-1.9-9.4-2.6
		C134.8,907.3,132.7,906.6,130.3,905.9z"/>
	<path class="st0" d="M197.9,1069.8c2.5-0.4,4.3-0.9,6.2-0.9c1.6,0,2.8-0.8,4.2-1.1c3.9-0.8,8-0.7,11.7,1.2c0.8,0.4,1.3,0.4,2.1,0
		c2.2-0.9,4.6,0.5,4.9,2.7c0.1,0.8,0,1.7,0,2.5c0,0.8-0.1,1.5-0.2,2.7c-0.9-0.6-1.7-0.7-1.9-1.2c-1.7-2.9-4.5-2.2-7.1-2.3
		c-1.1,1.8-2.3,0.2-3.1-0.1c-3.7-1.4-5.5-1.4-8.9,0.8c-2.3,1.5-4.8,1.5-7.9,1.1c0.2-1,0.6-2,0.7-3
		C198.6,1071.5,198.2,1070.7,197.9,1069.8z M213.6,1070.5c1.8,1.6,1.8,1.6,5.5,0C217.3,1070.5,215.7,1070.5,213.6,1070.5z"/>
	<path class="st0" d="M377.7,1204.2c0.5-0.5,0.9-1.3,1.3-1.3c1.1,0,2.5,0,3.4,0.5c4.2,3,8.3,6,10.2,11.1c0.6,1.7,0.3,3.3-1.1,3.7
		c-1.4,0.5-2.6,0.1-3.4-1.2C385.5,1212.4,381.4,1208.9,377.7,1204.2z"/>
	<path class="st0" d="M308.7,399.4c0.8,2.7,0.3,4.3-2.4,5.4c-3.3,1.3-6,2-9.5,1.9c-1.9,0-3.8,0.8-5.7,1.2c-1.2,0.3-2.4,0.4-3.7,0.6
		c-0.1-3.4-0.1-3.6,2.2-4.1c1.5-0.3,2.8-1.4,4.6-1.1c4.8,0.7,8.9-1.3,13-3.4c0.3-0.1,0.5-0.4,0.8-0.5
		C307.9,399.3,308.1,399.4,308.7,399.4z"/>
	<path class="st0" d="M339,1139c-3.6,2.4-4.4,6.1-4,10.1c0.1,1.2,0.4,2.5,1,3.5c1,1.5,1.2,2.9,0.8,4.5c-2.6,1.2-4.3-0.9-4.7-2.3
		c-1.2-4.8-2.2-9.7-0.1-14.5c0.5-1.2,1.8-2.3,3.1-2.8C336.5,1137,338.1,1137.3,339,1139z"/>
	<path class="st0" d="M278.8,495.1c0.2-1.3,0.2-2.5,0.5-3.5c0.9-2.4,1.6-4.7,1.7-7.3c0.2-3.3,1.9-6.2,4.2-8.6c0.2-0.2,1-0.3,1.3-0.1
		c0.3,0.2,0.5,1.1,0.4,1.2c-2,1.4,1.3,2.9-0.1,4.1c-1.5,1.4-0.8,3.1-0.9,4.6c0,2.6-1,4.9-2.1,7.1C283.1,494.3,281.8,496,278.8,495.1
		z"/>
	<path class="st0" d="M321.3,1121.1c1,2,1.8,3.6,2.7,5.2c1.4,2.6,5.7,4.7,8.4,4.1c3-0.7,3-0.7,3.5,2.4c-3.6,3.4-7.6,0.9-11.3,0.4
		c-1.3-0.2-2.6-2-3.5-3.3c-0.8-1.1-1.3-2.5-1.8-3.7C318.5,1124.3,318.9,1123.2,321.3,1121.1z"/>
	<path class="st0" d="M337,328.5c1.4-2.6,2.9-5.1,4.1-7.8c1.1-2.5,2-5.2,2.8-7.8c0.7-2.2,0.7-2.2,3.6-2.2c-0.2,1.3-0.5,2.6-0.6,4
		c0,3.2-0.1,6.4-2.7,8.9c0.3,2.2-1.5,3.4-2.4,5C340.4,331.2,339.5,331.1,337,328.5z"/>
	<path class="st0" d="M173,943.6c2.7-0.8,1.8,2,3,2.4c0.1,4.5,3.2,8.2,3.1,12.7c0,1.2,1.3,2.4,2,3.5c-2.7,3-3.5,2.9-5.1-0.2
		c-0.3-0.6-1-1.1-0.9-1.6c0.2-3.6-3-6.3-2.1-10.2C173.4,948.2,173,945.8,173,943.6z"/>
	<path class="st0" d="M199.4,741.8c3.2,7.1,5.1,13.8,4.6,21.1c-0.8,0.4-1.7,0.8-2.6,1.3c-0.4-0.5-1.2-1.1-1.3-1.7
		c-0.2-1.9-0.3-3.7-1-5.6c-0.6-1.7,0-3.7-1-5.6c-0.8-1.5,0.3-3.4-0.6-5.2C197.1,745.3,198.6,743.6,199.4,741.8z"/>
	<path class="st0" d="M279,500.4c-1.5,2.3-0.8,4.6-1,6.8c-0.4,4.9-2.1,9.1-5.8,12.5c-0.7,0.6-1.9,0.7-3.2,1.1c0-1.5-0.4-2.9,0.1-3.4
		c3.4-3.4,2.8-8.5,5.6-12.1c1.1-1.5,1.9-3.2,2.9-4.7C277.6,500.3,278.1,500.4,279,500.4z"/>
	<path class="st0" d="M247.7,600.4c-1.2,0-2.2,0-3.4,0c-0.1-0.4-0.4-0.9-0.3-1.3c0.1-0.9,0.1-2,0.6-2.7c1.6-2.3,1.8-5,2.2-7.5
		c0.6-3.6,2.3-5.6,5.8-6.6c-0.2,1.3-0.6,2.5-0.6,3.6c0.2,4.1-0.7,7.8-3,11.2C248.4,597.9,248.2,599.1,247.7,600.4z"/>
	<path class="st0" d="M364.8,237.3c0.3,3.5,1.8,6.6,1.2,9.8c-0.6,3-1.3,5.9-0.9,9c-3.5,0-4-0.3-4.1-2.7c-0.1-4.3,0-8.7,0-13
		C361,238.2,361.4,237.9,364.8,237.3z"/>
	<path class="st0" d="M363.9,263.4c0,1-1.3,8.8-1.6,9.1c-1.9,2.5-0.6,5.9-2.9,8.8c-0.5,0-1.4,0.2-2.4,0c-1.7-0.3-1.8-1.3-1.5-3.1
		c0.4-2.7,2.7-4.6,2.5-7.4c1.4-0.9,1-2.4,0.9-3.6c-0.1-1.2,0.5-1.8,1.2-2.5C361.2,263.7,361.1,263.7,363.9,263.4z"/>
	<path class="st0" d="M163.1,660.1c2.3,1.7,2.4,3.5,1.4,5.1c-1.9,3.3-1.8,6.9-2.6,10.4c-0.3,1.6-0.8,3.2-1.2,4.9
		c-1.7-0.5-2.8-1.1-2.8-2.7c0-2-0.1-4,0-6c0.2-1.9,0.3-3.9,1-5.5C160.1,664.2,161.6,662.4,163.1,660.1z"/>
	<path class="st0" d="M244.7,608c0.8,3.1,0.1,5.3-1.1,7.4c-1.3,2.1-2.7,4.2-3.4,6.6c-0.5,1.5-1.4,2.2-2.3,3c-0.9,0.8-2,0.7-3-0.2
		c-1-1-1.3-2.3-0.5-3c2.9-2.7,4-6.3,5.8-9.6C241,610.5,242.4,609.1,244.7,608z"/>
	<path class="st0" d="M362,165.5c0,1.3,0,2.3,0,3.2c-1.7,0.8-3.7,1.2-4.9,2.4c-1.1,1.1-1.7,3-1.8,4.6c-0.2,1.7,0.5,3.6,0.8,5.5
		c-1.4,0-2.5,0-3.5,0c-2.7-3-1.4-6.3-0.4-9.4C353.4,167.5,356.6,165.5,362,165.5z"/>
	<path class="st0" d="M346.3,156.7c-0.7-2.9,0.3-4.9-1.1-6.7c-0.3-0.4,0.4-1.8,1-2.3c0.5-0.4,1.5-0.3,2.4-0.5
		c0.5,2.2,1.1,4.3,1.6,6.7c2.3,1.3,4.8,2.8,8,2.5c0.5-0.1,1.2,1,1.8,1.6c-1.2,3.6-4.2,2.7-6.2,2.2
		C351.2,159.6,348.7,157.8,346.3,156.7z"/>
	<path class="st0" d="M359.6,207.3c-1.1-3.8-1.8-7.5-3.3-10.9c-1.2-2.6-1.5-5.1-1.2-8.1c1.1,0.3,2.4,0.2,2.8,0.7c1.2,2,2.4,4,3,6.2
		c0.7,2.6,0.8,5.4,1.1,8.1c0,0.2-0.1,0.4,0,0.5c0.4,0.8,1.6,1.3,0.7,2.5C361.8,207.4,360.7,207.8,359.6,207.3z"/>
	<path class="st0" d="M216,1034c1.1-1.3,2-2.5,3.1-3.6c3.3-3,7-2.6,10.7-1c1.4,0.6,2.9,1,4.3,1.7c0.8,0.4,1.4,1.3,2.3,2.2
		c-0.8,0.9-1.4,1.5-2.1,2.3c-1.5-0.8-3-1.4-4.3-2.2c-2.2-1.5-4.7-1-7.1-0.9c-0.9,0.1-1.8,1.3-2.6,2
		C218.8,1035.8,218.8,1035.8,216,1034z"/>
	<path class="st0" d="M262.8,557.6c1.1,4.9-1.6,8.4-3.6,12.1c-0.8,1.5-1.8,2.9-3,4.8c-0.6-0.2-1.6-0.4-2.5-0.8
		c-0.3-0.1-0.5-0.7-0.4-1c0-0.9,2.1-7,2.8-7.8c1.6-1.6,2.7-3.3,3-5.7C259.3,557.5,261,557,262.8,557.6z"/>
	<path class="st0" d="M213,1021.3c-1.7-1.4-3-2.5-4.9-4.2c1.3-0.5,2.1-0.9,3.4-1.4c-0.2-0.1,0.4,0.5,1.1,0.7
		c2.5,0.5,5.2,1.9,4.9,4.2c-0.2,2.1,0.4,4.6-1.4,6.6c-1.1,1.2-1.6,3-2.7,4.3c-0.6,0.7-1.9,0.8-3.4,1.4c0.2-1.9-0.1-3.8,0.6-4.3
		C213.2,1026.6,213.3,1024,213,1021.3z"/>
	<path class="st0" d="M278.9,1064.3c1.2-0.3,2.2-0.8,2.8-0.6c1.1,0.4,2.3,1.1,3.1,2.1c2.5,2.8,5,5.6,6.4,9.3
		c0.6,1.8,0.8,1.7,0.3,4.5c-1.8-0.6-3-1.5-4.2-3.2c-2.1-3.2-3.9-6.6-6.9-9.1C279.8,1066.7,279.6,1065.6,278.9,1064.3z"/>
	<path class="st0" d="M178,898.6c-0.1,1.7-0.1,2.9-0.8,4.4c-1.2,2.4-1.9,5.3-2,8.1c-0.1,2.4-0.9,4-2.7,5.2c-0.1-0.1-0.2-0.3-0.4-0.4
		c-1.9-1.4-1-3.4-1-5.1c0.1-2.2-0.9-4.7,0.7-6.7c0.7-0.9,1-1.9,1.4-2.9C173.8,899.5,175.1,897.8,178,898.6z"/>
	<path class="st0" d="M268.4,531c1.1,7-0.8,14.1-4.8,18.3c-0.9-0.4-1.7-0.8-2.7-1.3C263.1,542.2,263.3,535.7,268.4,531z"/>
	<path class="st0" d="M344.6,60.4c0.3,0,0.8,0,1.2,0c0.3,0,0.6,0.1,1.2,0.3c-0.2,5.4,0.6,10.9-1.4,16.4c-0.6,0.3-1.6,0.8-2.9,1.5
		c-0.5-0.6-1.5-1.2-1.6-2c-0.1-0.8,0.7-1.7,0.9-2.6c0.1-0.6-0.9-0.6-0.5-1.8C342.8,68.6,343.5,64.7,344.6,60.4z"/>
	<path class="st0" d="M404.8,1238.5c-3.3-2.8-5.9-6.2-8.1-9.9c-0.7-1.1-1-2.1-0.3-3.1c1.2-1.8,3.4-1.7,4.4,0.1
		c1.4,2.5,3,4.8,4.9,6.9C407.7,1235,407.4,1236.2,404.8,1238.5z"/>
	<path class="st0" d="M180.3,967.5c0.8,0,1.6,0,2.5,0c1.7,5.1,4.7,9.6,6.2,14.8c0.1,0.2-0.2,0.6-0.3,1.1c-2.2-0.1-4.4,0.1-4.7-3.1
		c0-0.4-0.4-0.8-0.7-1.2C180.4,975.8,179.3,972,180.3,967.5z"/>
	<path class="st0" d="M373.2,1197.7c-2.6,2.1-2.9,2.1-4.6,0.8c-3.1-2.3-6.3-4.6-9.6-6.9c0.5-1,1-2.1,1.8-3.6
		C365.6,1190.2,370.4,1192.2,373.2,1197.7z"/>
	<path class="st0" d="M346.3,127.2c0.5,0.5,1.5,1,1.5,1.6c0.3,4.2,1.9,8.2,1.1,12.4c-0.1,0.8-0.9,1.6-1.4,2.3
		c-1.5-0.5-2-1.3-2.7-2.6c-0.7-1.3-0.7-2.4-0.8-3.6c-0.1-1.3,0.2-3-0.5-3.7c-1.5-1.6,0.6-2.2,0.5-3.4
		C343.8,128.7,344.6,127.8,346.3,127.2z"/>
	<path class="st0" d="M164.2,711.1c0-1.4,0-2.5,0-3.4c4.8,2.5,9.5,4.9,14.5,7.4c0.2,3.2-0.6,3.9-3.8,2.7
		C168.8,715.7,168.8,715.7,164.2,711.1z"/>
	<path class="st0" d="M337.5,340.1c-1.4,6.6-4.4,11.5-7.7,16.4c-2.5-1.4-2.4-4.1-1.6-5.3C330.6,347.4,330.7,341.6,337.5,340.1z"/>
	<path class="st0" d="M187.1,809.9c0.8,0.7,1.6,1.8,0.5,3.4c-3.1,5-3.5,6.4-3.8,10.9c-1.1,0-2.2,0-3.4,0c-1.5-3.4,0.1-6.9,0.8-10.1
		C181.7,812.1,183.4,809.7,187.1,809.9z"/>
	<path class="st0" d="M211.1,1086c0.8-1.8,1.9-2.3,3.9-1.5c1.8-1.3,3.8-2.7,5.6-4.2c1.2-1,2-1.2,3.5-0.4c3,1.7,5.3,4,7.4,7.1
		c-4.4,1.2-4.8-3.6-8.1-4.2c-0.8,0.7-1.9,1.7-3.1,2.6C218,1086.7,217.3,1086.7,211.1,1086z"/>
	<path class="st0" d="M344.4,82.4c1.1,1.6,1.8,3.2,1.7,5.2c-0.1,2.1-0.2,4.3,0,6.5c0.3,2.4-0.8,4-2.5,5.2c-0.8-0.4-1.5-0.7-2.6-1.2
		c0.4-1.6-0.2-3.2,0.8-5.2c1-2,0.2-4.9,0.2-7.4C342,83.8,342.1,83.8,344.4,82.4z"/>
	<path class="st0" d="M204.2,784.6c-0.5-2.7-0.2-5-1.1-7.4c-0.9-2.7-0.1-5.7,2.4-7.8c1.5,1.7,2.7,3.5,2.5,6
		c-0.1,1.3,0.2,2.4,0.8,3.6c0.6,1.1,0.8,3.1-0.5,4.6C207.1,785.1,205.6,783.9,204.2,784.6z"/>
	<path class="st0" d="M160.9,702.6c-2.9-2.1-3.3-5-4-8c-0.6-2.8-0.5-5.4,0.5-8.2c0.7,0,1.9-0.2,2.1,0.2c0.7,1.1,1.5,2.6,1.4,3.8
		c-0.3,3.1,1,5.9,1.5,8.9C162.6,700.9,162.8,700.9,160.9,702.6z"/>
	<path class="st0" d="M239.3,1036.3c0.9,0.2,2,0,2.6,0.6c2.5,2.3,5,4.1,8.5,4.6c1.3,0.2,2.5,1.6,3.8,2.5c-1,2.2-2.1,3-4.3,1.9
		c-2.6-1.3-5.3-2.4-7.9-3.5C239.5,1041.3,238.3,1039.5,239.3,1036.3z"/>
	<path class="st0" d="M305.1,1097.3c-1.6,0-2.7,0-3.7,0c-2.4-3.6-3.4-7.8-6.7-10.7c-1.4-1.2-0.5-2.7-0.7-4.5c1.6,0.8,3.3,1,3.9,1.9
		C300.3,1088.3,304.5,1091.6,305.1,1097.3z"/>
	<path class="st0" d="M345.5,102.4c2.1,4.5,1.4,8.9,1.5,13.6c-0.7,0.5-1.6,1.2-2.8,2c-0.3-0.1-1.1-0.5-2.3-1
		c0.3-1.8-0.5-3.8,0.6-5.9c0.4-0.7-0.6-1.9-0.5-2.9c0-0.9,1-1.8,0.9-2.5C342.3,103.4,344.6,103.5,345.5,102.4z"/>
	<path class="st0" d="M178.1,845.7c-0.2,2-0.3,3.9-0.7,5.8c-0.4,2.2-1.8,4.1-1.4,6.4c0.1,0.3,0.1,0.8,0,1c-0.8,0.8-1.4,1.8-2.9,1.5
		c-0.9-0.2-1.8-1.9-1.6-3c0.5-2.8,1-5.6,1.5-8.4C173.3,846.8,174.9,845.7,178.1,845.7z"/>
	<path class="st0" d="M349,305.2c0-1.6-0.5-3.3,0.1-4.1c1.9-2.5,1.5-5.7,3-8.3c0.6-1.1,1.8-1.8,2.5-2.6c2,0.7,2.6,1.6,1.3,3.1
		c0.4,3.8-1.7,6.9-3,10.2C352.3,305.3,351.1,305.6,349,305.2z"/>
	<path class="st0" d="M169.3,655.8c-1.2-0.5-2.3-1-3.3-1.5c0.9-5,4.4-7.7,7.6-10.9c1.9,0.4,4.6-1,5.6,2.4
		C174.3,647.2,171.7,650.8,169.3,655.8z"/>
	<path class="st0" d="M208.8,791.1c0.5,1.2,1.1,2,1.2,2.9c0.5,3.1-0.2,6.1-1.1,9c-0.4,1.3-1.5,2.6-2.6,3.2c-0.8,0.4-2.2-0.6-3.3-0.9
		c1.1-3.4,2.6-6.3,2.9-9.3C206,793.9,207.1,792.8,208.8,791.1z"/>
	<path class="st0" d="M342.1,1225.6c2.5,5.1,1.9,9.7,1.8,14.1c0,1.2-0.9,2.5-1.6,3.7c-0.2,0.3-1.2,0-2.3,0c0-4.9-0.1-9.8,0.1-14.7
		C340.1,1227.8,341.1,1227,342.1,1225.6z"/>
	<path class="st0" d="M171.5,940.4c-1.8-2.2-1.7-4.8-1.5-7.3c0.2-2.4-0.4-4.7,0.7-7.2c0.9-1.9,1.7-1.4,3.2-1.4c0,3.1,0,6.3,0,9.4
		c0,1-0.1,2,0,3C174.6,939.9,174.6,939.9,171.5,940.4z"/>
	<path class="st0" d="M179,894.5c-1-0.8-2.9-1-1-2.6c-1-2.5,2.2-3.2,2.2-5.6c0-1.8,1.2-3.7,2-5.5c0.3-0.7,1.1-1.1,1.8-1.8
		c2.3,2.7,2.7,5.3,0.9,7.8C183.1,889.4,182,892.7,179,894.5z"/>
	<path class="st0" d="M320.4,377.4c-1.3,0.2-2.6,0.1-3.2-1.3c-0.5-1-0.1-2,0.6-3.1c1.6-2.4,2.8-5.1,4.2-7.7c0.4-0.8,1.1-1.4,1.7-2.2
		c2.8,2.4,2.9,2.7,1.4,5.6C323.6,371.6,322,374.5,320.4,377.4z"/>
	<path class="st0" d="M364,215.4c0.5,4.3,0.9,8.3,1.4,12.3c-1.3,0.7-2.4,1.2-3.6,1.9c-0.7-1-3-1.4-1.1-3.3c-1-1.2-0.1-2.5-0.2-3.8
		c-0.1-1.4-0.5-2.8-0.5-4.2C360,216.1,360.5,215.8,364,215.4z"/>
	<path class="st0" d="M317.5,1114.6c-0.9,0.8-1.4,1.4-1.9,1.8c-2.6,0-9.1-8.9-9.5-13c1.1,0,2.6-0.5,3.3,0.1c1.4,1.2,3.3,2.8,3.4,4.4
		c0.2,2.6,2.1,3.6,3.4,5.2C316.4,1113.4,316.8,1113.8,317.5,1114.6z"/>
	<path class="st0" d="M190.1,989.6c2.3-0.8,3.6,0.5,4.3,1.9c1,2,2.4,3.4,4,4.8c1.6,1.4,1.8,2.9,1.4,4.8c-1.3,0.7-2.4,0.5-3.4-0.6
		c-1.3-1.5-2.8-2.8-4.2-4.2C190.5,994.4,189.6,992.3,190.1,989.6z"/>
	<path class="st0" d="M180.3,829.2c1,1,1.8,1.8,2.6,2.6c-3.3,2.7-1.8,6.9-3.3,10.3c-1.6,0.8-2.6-0.1-3.8-1.5
		c0.1-1.9,0.3-4.1,0.5-6.2c0.1-0.9,0.3-1.9,0.7-2.7c0.4-0.7,1.1-1.2,1.7-1.8C179.3,829.7,179.8,829.5,180.3,829.2z"/>
	<path class="st0" d="M345,1177.2c2.5-2.6,3.4-2.7,5,0c1.6,2.7,3.2,5.2,6.7,6.8c-1.1,1-1.8,2.1-2.6,2.2c-2,0.2-3.7-0.8-4.9-2.4
		C347.6,1181.8,346.4,1179.5,345,1177.2z"/>
	<path class="st0" d="M199,641.9c-0.6,0.5-1.2,1.4-1.8,1.4c-2.7,0-5.2,0.6-7.7,1.9c-1.2,0.6-2.8,0.1-4.4,0.1c-0.1-0.5-0.1-1-0.3-1.4
		c-0.2-0.4-0.6-0.7-1.1-1.2c1-0.5,1.8-1.2,2.6-1.2c1.9,0.2,3.4-0.6,5-1.1C195.5,639.2,195.5,639.2,199,641.9z"/>
	<path class="st0" d="M311.1,395.9c-0.3-4.9,1.7-8.2,3.6-11.5c0.4-0.7,1.8-0.8,3-1.3c1.3,5-1.7,8.1-3.5,11.6
		C313.8,395.2,312.5,395.3,311.1,395.9z"/>
	<path class="st0" d="M343.7,1173.4c-0.7,0-1.4,0.2-1.7,0c-2.8-1.9-5.2-4.3-6.8-7.3c-0.4-0.8-0.4-2-0.1-2.9c0.3-0.8,1.1-1.4,2.1-2.4
		c1,1.5,2.3,2.6,2.4,3.8c0.3,2.4,1.8,3.7,3.3,5.1C343.9,1170.7,344.4,1171.7,343.7,1173.4z"/>
	<path class="st0" d="M222.1,641.2c-0.4-2,0.1-3.3,1.8-3.8c3.6-1.1,6.6-3.3,9.9-5c0.2-0.1,0.6,0.1,1.4,0.2c-0.3,1-0.3,2.2-0.9,2.9
		c-1.7,1.9-3.4,3.7-6.3,4C226.1,639.7,224.6,641.9,222.1,641.2z"/>
	<path class="st0" d="M296.3,1362.5c-0.3-1-1-2.1-0.8-3.1c0.8-4.4,1.9-8.7,6.6-11.2c0.5,0.4,1.1,0.9,1.8,1.6c-0.9,1.2-2,2.3-2.5,3.7
		c-0.9,2.1-2.6,3.8-2.6,6.4c0,0.9-0.9,1.8-1.4,2.7C297.1,1362.6,296.7,1362.5,296.3,1362.5z"/>
	<path class="st0" d="M255.8,369c2.6-0.1,4.7-1.4,6.7,0.3c0.7,0.6,2,0,3-0.8c2.4-1.7,4.8-3.6,8.2-3c-0.1,0.7,1.5,1.7-0.7,2
		c-1.4,0.2-2.7,1.5-4,2.3c-3,1.9-6.1,2.2-9.5,0.7c-0.8-0.4-2,0-2.9-0.2C256.3,370.2,256.1,369.4,255.8,369z"/>
	<path class="st0" d="M289.2,443.4c4,1.5,3.9,5,4.8,8c0.6,2.1-1.6,2.6-2.4,4.1c-2.9-2.8-2.9-6.4-3.5-9.9
		C288,445,288.7,444.3,289.2,443.4z"/>
	<path class="st0" d="M303.8,1317.3c0.9-4.5,1.2-8.9,4.7-11.9c0.4,0,0.6-0.1,0.7,0c0.6,0.5,1.2,1,1.9,1.5c-0.7,3-3.3,5.3-3.2,8.7
		C307.9,1317.2,306.1,1317.7,303.8,1317.3z"/>
	<path class="st0" d="M337,1278.2c0.1-0.9-0.1-1.8,0.2-2.4c1-2.2,2.6-4.1,2.9-6.7c0.2-1.5,1.9-2.1,3.7-1.4c0.7,3.2-1,5.9-2.3,8.6
		C340.9,1277.6,339.5,1278.9,337,1278.2z"/>
	<path class="st0" d="M343.7,1248.4c0.5,0.7,1.2,1.4,1.2,2c0.1,2.5,0,5,0.1,7.4c0.1,1.3-0.7,2-1.5,2.3c-0.7,0.3-1.8-0.1-2.6-0.5
		c-0.3-0.1-0.4-0.9-0.4-1.3c0.1-1.6,0.6-3.2,0.4-4.8C340.7,1251.2,341.8,1249.7,343.7,1248.4z"/>
	<path class="st0" d="M324.2,1279.9c-4,2.5-4.4,7-6.7,11.1c-0.6-1.5-1.3-2.4-1.4-3.4c-0.2-3.3,1-6.2,3.6-8.4
		C321.1,1278,321.3,1277.9,324.2,1279.9z"/>
	<path class="st0" d="M286.9,412.9c-2.2,1.3-5,1.8-6.1,4.8c-0.3,0.8-2,1.2-3.6,2.1c-0.1-1.9-0.2-3.4-0.4-4.9c1.5-1.1,3.1-2,4.3-3.3
		c1.1-1.1,2.2-1.3,3.5-1.2C285.2,410.4,285.6,410.9,286.9,412.9z"/>
	<path class="st0" d="M214.2,1095c-0.9,0.6-1.6,1.3-1.9,1.2c-2.3-1.1-4.4-1-6.8,0.1c-1.6,0.7-3.6,0.8-5.4,0.7c-0.9,0-1.9-1-2.7-1.7
		c-0.3-0.2-0.4-0.8-0.6-1.5c1.5-0.3,2.7,1.3,4.3,0.1c1-0.7,3.1,0.1,4.2-0.6c3.1-2.2,5.4-0.4,7.8,1.1
		C213.3,1094.5,213.6,1094.7,214.2,1095z"/>
	<path class="st0" d="M271.5,429.1c-0.8-0.7-1.8-1.5-2.8-2.4c0.9-1.4,1.6-2.6,2.3-3.8c1.7-3,3.4-3.2,6.3-0.5
		C274.7,424.1,275.1,428.2,271.5,429.1z"/>
	<path class="st0" d="M292.6,461.3c2.6,4.1,1.8,6.4-3.6,11.3c-0.7-0.6-1.3-1.2-2.1-1.8c1.2-2.5,2.2-4.9,3.5-7.2
		C290.8,462.8,291.7,462.2,292.6,461.3z"/>
	<path class="st0" d="M206.8,1013.9c-2.2-3-4.1-5.8-6.2-8.7c0.9-0.7,1.6-1.2,2.3-1.8c0.2,0.1,0.8,0.2,1.1,0.5c1.4,1.8,3.2,3,4.4,5.1
		C209.5,1011.2,209,1012.2,206.8,1013.9z"/>
	<path class="st0" d="M304,1345.5c0-1.1-0.3-2.4,0-2.6c3-2.1,3.3-6.2,6.3-8.4c2.1,2.3,2.2,3.5,0.5,5.5c-1.3,1.6-3.4,2.5-4,4.8
		C306.8,1345.2,305.2,1345.3,304,1345.5z"/>
	<path class="st0" d="M310.1,1303.3c-0.7-3.8,0.9-6.5,2.7-9.1c0.5-0.7,1.9-0.6,3.4-1.1c-0.3,1.5-0.5,2.4-0.7,3.3
		c-0.5,1.5-1.5,2.6-1.6,4.3C313.8,1302.9,313.5,1303,310.1,1303.3z"/>
	<path class="st0" d="M193.9,1085.3c-0.4-1.1-0.8-2.2-1.3-3.6c3.1-0.3,5.4-3,8.1-1.8c1.5,0.6,4.3-0.1,4.2,3c-2,2.1-3.7-1.4-5.6-0.4
		C197.8,1083.3,196.2,1084.1,193.9,1085.3z"/>
	<path class="st0" d="M179.2,1025.4c1.3,0,2.3,0,3.3,0c1.7,3.7,1.7,3.7,1.3,10.7C179.1,1028.9,179.1,1028.9,179.2,1025.4z"/>
	<path class="st0" d="M256.2,404.1c-0.1-4-0.1-4,3.4-4.7c0.6-0.1,1.1-0.5,1.7-0.7c0.8-0.4,1.6-0.7,2.8-1.2c-0.1,1.4,0,2.7-0.5,3.8
		c-0.5,1.2-1.9,0.9-2.9,1.3C259.3,402.9,258.6,405.1,256.2,404.1z"/>
	<path class="st0" d="M293,362.4c-0.1,0.6,0,1.5-0.4,1.8c-0.4,0.3-1.3,0.4-1.8,0.2c-0.7-0.3-1.2-1.2-1.9-1.5c-1.7-0.7-1.3-3-3.4-3.6
		c-1.4-0.4-2.3-2.2-3.5-3.4c0.4-0.4,0.9-0.8,1.4-1.3c1.6,0.7,2.1,3.3,4.6,2.8c0.3,0.3,0.7,0.7,1,1s0.7,0.7,1,1s0.7,0.7,1,1
		s0.7,0.7,1,1S292.7,362.1,293,362.4z"/>
	<path class="st0" d="M306.4,195.4c-0.6-0.8-1.5-1.6-1.3-1.8c1.1-1.6,0.3-4.1,3-5.4C307.6,190.8,309,193.4,306.4,195.4z"/>
	<path class="st0" d="M391.8,1146.8c2.4-0.9,3.6,0,4.4,1.9C393.6,1149.5,393.6,1149.5,391.8,1146.8z"/>
	<path class="st0" d="M303.8,1279.9c0.7,0.7,1.2,1.1,1.2,1.3c-0.2,0.5-0.6,0.9-1,1.2c-0.1,0.1-0.9-0.5-0.9-0.7
		C303.1,1281.2,303.4,1280.7,303.8,1279.9z"/>
	<path class="st0" d="M350,1374.6c1,0,1.9-0.1,2.9-0.1c0,0.2,0,0.4,0.1,0.7c-1,0.1-2,0.3-2.9,0.4C350,1375.2,350,1374.9,350,1374.6z
		"/>
	<ellipse class="st0" cx="362.5" cy="213.4" rx="0.4" ry="1.4"/>
	<path class="st0" d="M347.6,1375.7c1.1-0.2,1.7-0.2,2.4-0.3c-0.4,0.3-0.7,0.7-1.2,1C348.7,1376.4,348.3,1376.1,347.6,1375.7z"/>
</g>
</svg>
