<?xml version="1.0" encoding="utf-8"?>
<!-- Generator: Adobe Illustrator 26.0.1, SVG Export Plug-In . SVG Version: 6.00 Build 0)  -->
<svg version="1.1" id="Слой_1" xmlns="http://www.w3.org/2000/svg" xmlns:xlink="http://www.w3.org/1999/xlink" x="0px" y="0px"
	 viewBox="0 0 4098 2699.7" style="enable-background:new 0 0 4098 2699.7;" xml:space="preserve">
<style type="text/css">
	.st0{fill:#8C3F0C;}
	.st1{clip-path:url(#SVGID_00000018217186272694619490000005677837398055186364_);}
	.st2{fill:none;}
</style>
<path class="st0" d="M826.9,2747.4c10.8-40.9,70.9-251.3,73.4-260.3l0.2-0.5l0.2-0.5c39.8-132.8,83.4-266.2,129.5-396.4
	c10.3-29,22.2-62.8,35.3-99.6c60.9-171.9,156-440.1,190.4-538.7c-2.4-3.4-4.8-6.9-7.3-10.4c-36.1-51.6-96.5-137.9-149.9-222.2
	C1005.7,1071.9,988,1016.1,983,983.9c-1.6-10.4-4.6-29.9,6.3-125.8c6.1-53.7,15.3-119.4,25.7-185c7.9-49.7,20.3-122.4,34.2-186
	c18.3-83.7,30.8-113.9,43.8-133c15.8-24.1,198.5-326,380.1-638.8c105.3-181.3,190.7-332.5,253.9-449.6
	c89.8-166.5,113.4-224.7,119.5-243.2l-48.5-384.5l321.4,241.9c207.4,156.1,401.5,324.6,576.9,500.7
	c134.4,135,260.9,277.7,376.1,424.3C3195.1-39,3343,169.6,3486,371.3c197,277.8,400.7,565,517.3,684.8
	c61.8,63.5,105.3,118.8,192,228.9c75.3,95.6,116.4,156.2,146.3,241.8c40.1,114.7,36.7,210.2,35.2,250.9l0,1.2
	c-4.6,128.8-6.8,393.2-9.9,759.3l0,3.1c-0.6,75.7-1.3,155.4-2,238.9l-1.5,167.9l-3593.1,13.9L826.9,2747.4z"/>
<g>
	<defs>
		<path id="SVGID_1_" d="M4261.3,1554.8c-26.1-74.7-62.1-127.4-132.8-217.2c-84.8-107.7-127.4-161.8-186.2-222.2
			c-121.2-124.5-326.8-414.5-525.7-694.9c-142.4-200.9-289.7-408.6-411.1-563c-113.2-144-237.5-284.2-369.5-416.8
			c-172.5-173.2-363.5-339-567.7-492.7l-160.7-121l25.2,199.5c-9.6,121.6-748.1,1344.8-769.3,1375.5
			c-35.3,51-104.2,518.3-96.4,568.9c15.8,101.6,283,462.1,283,467.9c0,3.4-165.3,469.3-239.7,679.2
			c-45.9,129.5-88.8,260.8-128.2,392.4c0,0-62.3,218.2-73,258.7l-28.4,107.2l3398.3-13.2l0.7-84c0.7-84.5,1.4-165.3,2.1-241.9
			c3.1-366.7,5.3-631.7,10-761.6l0-1.2C4293.1,1738.6,4296.1,1654.4,4261.3,1554.8z"/>
	</defs>
	<clipPath id="SVGID_00000141440760885258738330000015034490025621017240_">
		<use xlink:href="#SVGID_1_"  style="overflow:visible;"/>
	</clipPath>
	<g style="clip-path:url(#SVGID_00000141440760885258738330000015034490025621017240_);">
		
			<image style="overflow:visible;" width="4272" height="2848" xlink:href="oleg-archeo.JPG"  transform="matrix(1 0 0 1 -64.5496 -57.0611)">
		</image>
	</g>
	<path style="clip-path:url(#SVGID_00000141440760885258738330000015034490025621017240_);" d="M4083.7,3074.2
		c0.2-0.4,0.5-0.9,0.7-1.3c0.2,0.2,0.7,0.5,0.6,0.7c-0.1,0.5-0.4,0.9-0.6,1.3C4084.2,3074.7,4084,3074.5,4083.7,3074.2z"/>
</g>
<path class="st2" d="M4261.3,1554.8c-26.1-74.7-62.1-127.4-132.8-217.2c-84.8-107.7-127.4-161.8-186.2-222.2
	c-121.2-124.5-326.8-414.5-525.7-694.9c-142.4-200.9-289.7-408.6-411.1-563c-113.2-144-237.5-284.2-369.5-416.8
	c-172.5-173.2-363.5-339-567.7-492.7l-160.7-121l25.2,199.5c-9.6,121.6-748.1,1344.8-769.3,1375.5c-35.3,51-104.2,518.3-96.4,568.9
	c15.8,101.6,283,462.1,283,467.9c0,3.4-165.3,469.3-239.7,679.2c-45.9,129.5-88.8,260.8-128.2,392.4c0,0-62.3,218.2-73,258.7
	l-28.4,107.2l3398.3-13.2l0.7-84c0.7-84.5,1.4-165.3,2.1-241.9c3.1-366.7,5.3-631.7,10-761.6l0-1.2
	C4293.1,1738.6,4296.1,1654.4,4261.3,1554.8z"/>
</svg>
